<?xml version="1.0" encoding="UTF-8" standalone="no"?>
<!DOCTYPE svg PUBLIC "-//W3C//DTD SVG 1.1//EN"
 "http://www.w3.org/Graphics/SVG/1.1/DTD/svg11.dtd">
<!-- Generated by graphviz version 2.40.1 (20161225.0304)
 -->
<!-- Title: G Pages: 1 -->
<svg width="626pt" height="1310pt"
 viewBox="0.00 0.00 625.56 1310.00" xmlns="http://www.w3.org/2000/svg" xmlns:xlink="http://www.w3.org/1999/xlink">
<g id="graph0" class="graph" transform="scale(1 1) rotate(0) translate(4 1306)">
<title>G</title>
<polygon fill="#ffffff" stroke="transparent" points="-4,4 -4,-1306 621.5584,-1306 621.5584,4 -4,4"/>
<g id="clust1" class="cluster">
<title>cluster_0</title>
<polygon fill="#d3d3d3" stroke="#d3d3d3" points="33.3602,-65 33.3602,-1294 289.3602,-1294 289.3602,-65 33.3602,-65"/>
</g>
<!-- q1 -->
<g id="node1" class="node">
<title>q1</title>
<polygon fill="#ffffff" stroke="#ffffff" points="269.1937,-1280 61.5267,-1280 61.5267,-1256 269.1937,-1256 281.1937,-1268 269.1937,-1280"/>
<text text-anchor="middle" x="171.3602" y="-1263.8" font-family="Times,serif" font-size="14.00" fill="#000000">1. Does `sasjsbuild` subfolder exist?</text>
</g>
<!-- q2 -->
<g id="node2" class="node">
<title>q2</title>
<polygon fill="#ffffff" stroke="#ffffff" points="269.7516,-1112.6 88.9688,-1112.6 88.9688,-1088.6 269.7516,-1088.6 281.7516,-1100.6 269.7516,-1112.6"/>
<text text-anchor="middle" x="185.3602" y="-1096.4" font-family="Times,serif" font-size="14.00" fill="#000000">2. macVars in sasjsconfig.json?</text>
</g>
<!-- q1&#45;&gt;q2 -->
<g id="edge2" class="edge">
<title>q1&#45;&gt;q2</title>
<path fill="none" stroke="#000000" d="M172.8791,-1249.9468C174.9379,-1225.4771 178.3602,-1184.8 178.3602,-1184.8 178.3602,-1184.8 180.9571,-1153.5631 182.9874,-1129.1411"/>
<polygon fill="#000000" stroke="#000000" points="186.5007,-1129.1258 183.8413,-1118.8701 179.5248,-1128.5458 186.5007,-1129.1258"/>
<text text-anchor="middle" x="189.2431" y="-1172.2" font-family="Times,serif" font-size="14.00" fill="#000000">Yes</text>
</g>
<!-- a1 -->
<g id="node9" class="node">
<title>a1</title>
<polygon fill="none" stroke="#000000" points="483.5359,-1197.0019 297.1845,-1197.0019 297.1845,-1155.7981 483.5359,-1155.7981 483.5359,-1197.0019"/>
<text text-anchor="middle" x="390.3602" y="-1180.6" font-family="Times,serif" font-size="14.00" fill="#000000">Create empty compiled file in </text>
<text text-anchor="middle" x="390.3602" y="-1163.8" font-family="Times,serif" font-size="14.00" fill="#000000">sasjsbuild subdirectory</text>
</g>
<!-- q1&#45;&gt;a1 -->
<g id="edge1" class="edge">
<title>q1&#45;&gt;a1</title>
<path fill="none" stroke="#000000" d="M214.6276,-1249.9028C248.0409,-1235.9272 294.6338,-1216.439 331.4485,-1201.0407"/>
<polygon fill="#000000" stroke="#000000" points="333.1924,-1204.1052 341.0673,-1197.0175 330.4912,-1197.6473 333.1924,-1204.1052"/>
<text text-anchor="middle" x="301.9135" y="-1219.4" font-family="Times,serif" font-size="14.00" fill="#000000">No</text>
</g>
<!-- q3 -->
<g id="node3" class="node">
<title>q3</title>
<polygon fill="#ffffff" stroke="#ffffff" points="269.3259,-950.8 121.3945,-950.8 121.3945,-926.8 269.3259,-926.8 281.3259,-938.8 269.3259,-950.8"/>
<text text-anchor="middle" x="201.3602" y="-934.6" font-family="Times,serif" font-size="14.00" fill="#000000">3. Binary Files in source?</text>
</g>
<!-- q2&#45;&gt;q3 -->
<g id="edge5" class="edge">
<title>q2&#45;&gt;q3</title>
<path fill="none" stroke="#000000" d="M187.1755,-1082.356C189.5359,-1058.6346 193.3602,-1020.2 193.3602,-1020.2 193.3602,-1020.2 196.2687,-990.6055 198.5783,-967.1055"/>
<polygon fill="#000000" stroke="#000000" points="202.0898,-967.1597 199.5847,-956.8653 195.1233,-966.475 202.0898,-967.1597"/>
<text text-anchor="middle" x="201.9135" y="-1007.6" font-family="Times,serif" font-size="14.00" fill="#000000">No</text>
</g>
<!-- a2 -->
<g id="node10" class="node">
<title>a2</title>
<polygon fill="none" stroke="#000000" points="529.3903,-1029.8 297.3301,-1029.8 297.3301,-993.8 529.3903,-993.8 529.3903,-1029.8"/>
<text text-anchor="middle" x="413.3602" y="-1007.6" font-family="Times,serif" font-size="14.00" fill="#000000">Insert macro variables in compiled file</text>
</g>
<!-- q2&#45;&gt;a2 -->
<g id="edge4" class="edge">
<title>q2&#45;&gt;a2</title>
<path fill="none" stroke="#000000" d="M231.7742,-1082.523C268.1435,-1068.3581 318.8764,-1048.599 357.4754,-1033.5657"/>
<polygon fill="#000000" stroke="#000000" points="358.9632,-1036.7424 367.0112,-1029.8517 356.4227,-1030.2196 358.9632,-1036.7424"/>
<text text-anchor="middle" x="330.2431" y="-1052" font-family="Times,serif" font-size="14.00" fill="#000000">Yes</text>
</g>
<!-- q4 -->
<g id="node4" class="node">
<title>q4</title>
<polygon fill="#ffffff" stroke="#ffffff" points="263.2648,-766.8014 141.4556,-766.8014 141.4556,-719.9986 263.2648,-719.9986 275.2648,-743.4 263.2648,-766.8014"/>
<text text-anchor="middle" x="208.3602" y="-756" font-family="Times,serif" font-size="14.00" fill="#000000">4. Macros in source, </text>
<text text-anchor="middle" x="208.3602" y="-739.2" font-family="Times,serif" font-size="14.00" fill="#000000">initProgram, or </text>
<text text-anchor="middle" x="208.3602" y="-722.4" font-family="Times,serif" font-size="14.00" fill="#000000">termProgram?</text>
</g>
<!-- q3&#45;&gt;q4 -->
<g id="edge8" class="edge">
<title>q3&#45;&gt;q4</title>
<path fill="none" stroke="#000000" d="M201.9529,-920.7028C202.8272,-894.0077 204.3602,-847.2 204.3602,-847.2 204.3602,-847.2 205.706,-812.2759 206.8364,-782.9431"/>
<polygon fill="#000000" stroke="#000000" points="210.3369,-782.9947 207.2247,-772.8673 203.3421,-782.725 210.3369,-782.9947"/>
<text text-anchor="middle" x="212.9135" y="-834.6" font-family="Times,serif" font-size="14.00" fill="#000000">No</text>
</g>
<!-- a3 -->
<g id="node11" class="node">
<title>a3</title>
<polygon fill="none" stroke="#000000" points="509.7105,-868.2014 297.0099,-868.2014 297.0099,-809.3986 509.7105,-809.3986 509.7105,-868.2014"/>
<text text-anchor="middle" x="403.3602" y="-851.4" font-family="Times,serif" font-size="14.00" fill="#000000">Convert to base64 and </text>
<text text-anchor="middle" x="403.3602" y="-834.6" font-family="Times,serif" font-size="14.00" fill="#000000">wrap in put statements in compiled</text>
<text text-anchor="middle" x="403.3602" y="-817.8" font-family="Times,serif" font-size="14.00" fill="#000000"> file with filerefs</text>
</g>
<!-- q3&#45;&gt;a3 -->
<g id="edge7" class="edge">
<title>q3&#45;&gt;a3</title>
<path fill="none" stroke="#000000" d="M237.9409,-920.6908C264.9607,-907.3146 302.5374,-888.7123 335.049,-872.6174"/>
<polygon fill="#000000" stroke="#000000" points="336.6625,-875.7241 344.0716,-868.1508 333.5568,-869.4508 336.6625,-875.7241"/>
<text text-anchor="middle" x="313.2431" y="-890.2" font-family="Times,serif" font-size="14.00" fill="#000000">Yes</text>
</g>
<!-- q5 -->
<g id="node5" class="node">
<title>q5</title>
<polygon fill="#ffffff" stroke="#ffffff" points="269.0968,-543.2 113.6236,-543.2 113.6236,-519.2 269.0968,-519.2 281.0968,-531.2 269.0968,-543.2"/>
<text text-anchor="middle" x="197.3602" y="-527" font-family="Times,serif" font-size="14.00" fill="#000000">5. SAS Includes in source?</text>
</g>
<!-- q4&#45;&gt;q5 -->
<g id="edge11" class="edge">
<title>q4&#45;&gt;q5</title>
<path fill="none" stroke="#000000" d="M206.7838,-714.1835C205.0061,-681.2369 202.3602,-632.2 202.3602,-632.2 202.3602,-632.2 200.244,-589.4521 198.765,-559.5777"/>
<polygon fill="#000000" stroke="#000000" points="202.2444,-559.0715 198.2541,-549.2568 195.2529,-559.4176 202.2444,-559.0715"/>
<text text-anchor="middle" x="210.9135" y="-619.6" font-family="Times,serif" font-size="14.00" fill="#000000">No</text>
</g>
<!-- a4 -->
<g id="node12" class="node">
<title>a4</title>
<polygon fill="none" stroke="#000000" points="523.5562,-661.5003 297.1642,-661.5003 297.1642,-586.0997 523.5562,-586.0997 523.5562,-661.5003"/>
<text text-anchor="middle" x="410.3602" y="-644.8" font-family="Times,serif" font-size="14.00" fill="#000000">Construct macroFolders list and</text>
<text text-anchor="middle" x="410.3602" y="-628" font-family="Times,serif" font-size="14.00" fill="#000000"> recursively compile all dependencies</text>
<text text-anchor="middle" x="410.3602" y="-611.2" font-family="Times,serif" font-size="14.00" fill="#000000"> into a compileTree JSON file </text>
<text text-anchor="middle" x="410.3602" y="-594.4" font-family="Times,serif" font-size="14.00" fill="#000000">before adding to compiled file</text>
</g>
<!-- q4&#45;&gt;a4 -->
<g id="edge10" class="edge">
<title>q4&#45;&gt;a4</title>
<path fill="none" stroke="#000000" d="M257.775,-714.1425C281.8057,-699.9144 311.1622,-682.5331 337.6839,-666.8301"/>
<polygon fill="#000000" stroke="#000000" points="339.736,-669.6826 346.5577,-661.5761 336.1697,-663.6592 339.736,-669.6826"/>
<text text-anchor="middle" x="326.2431" y="-683.6" font-family="Times,serif" font-size="14.00" fill="#000000">Yes</text>
</g>
<!-- q6 -->
<g id="node6" class="node">
<title>q6</title>
<polygon fill="#ffffff" stroke="#ffffff" points="269.3862,-375.8 71.3342,-375.8 71.3342,-351.8 269.3862,-351.8 281.3862,-363.8 269.3862,-375.8"/>
<text text-anchor="middle" x="176.3602" y="-359.6" font-family="Times,serif" font-size="14.00" fill="#000000">6. initProgram in sasjsconfig.json?</text>
</g>
<!-- q5&#45;&gt;q6 -->
<g id="edge14" class="edge">
<title>q5&#45;&gt;q6</title>
<path fill="none" stroke="#000000" d="M194.9734,-513.1468C191.7382,-488.6771 186.3602,-448 186.3602,-448 186.3602,-448 182.617,-416.4823 179.7109,-392.013"/>
<polygon fill="#000000" stroke="#000000" points="183.1851,-391.5876 178.5301,-382.0701 176.2339,-392.4132 183.1851,-391.5876"/>
<text text-anchor="middle" x="194.9135" y="-435.4" font-family="Times,serif" font-size="14.00" fill="#000000">No</text>
</g>
<!-- a5 -->
<g id="node13" class="node">
<title>a5</title>
<polygon fill="none" stroke="#000000" points="513.3187,-460.2019 297.4017,-460.2019 297.4017,-418.9981 513.3187,-418.9981 513.3187,-460.2019"/>
<text text-anchor="middle" x="405.3602" y="-443.8" font-family="Times,serif" font-size="14.00" fill="#000000">Wrap in put statements in compiled</text>
<text text-anchor="middle" x="405.3602" y="-427" font-family="Times,serif" font-size="14.00" fill="#000000"> file with filerefs</text>
</g>
<!-- q5&#45;&gt;a5 -->
<g id="edge13" class="edge">
<title>q5&#45;&gt;a5</title>
<path fill="none" stroke="#000000" d="M238.4543,-513.1028C270.0543,-499.1866 314.0656,-479.8047 348.9607,-464.4375"/>
<polygon fill="#000000" stroke="#000000" points="350.802,-467.451 358.5432,-460.2175 347.9807,-461.0447 350.802,-467.451"/>
<text text-anchor="middle" x="324.2431" y="-482.6" font-family="Times,serif" font-size="14.00" fill="#000000">Yes</text>
</g>
<!-- q7 -->
<g id="node7" class="node">
<title>q7</title>
<polygon fill="#ffffff" stroke="#ffffff" points="280.8917,-220 41.8287,-220 41.8287,-184 280.8917,-184 280.8917,-220"/>
<text text-anchor="middle" x="161.3602" y="-197.8" font-family="Times,serif" font-size="14.00" fill="#000000">7. Insert actual Job / Service / Test code</text>
</g>
<!-- q6&#45;&gt;q7 -->
<g id="edge16" class="edge">
<title>q6&#45;&gt;q7</title>
<path fill="none" stroke="#000000" d="M174.5449,-345.556C172.1845,-321.8346 168.3602,-283.4 168.3602,-283.4 168.3602,-283.4 165.8152,-253.8055 163.7943,-230.3055"/>
<polygon fill="#000000" stroke="#000000" points="167.2577,-229.7286 162.9137,-220.0653 160.2835,-230.3284 167.2577,-229.7286"/>
<text text-anchor="middle" x="176.9135" y="-270.8" font-family="Times,serif" font-size="14.00" fill="#000000">No</text>
</g>
<!-- a6 -->
<g id="node14" class="node">
<title>a6</title>
<polygon fill="none" stroke="#000000" points="617.7568,-293 296.9636,-293 296.9636,-257 617.7568,-257 617.7568,-293"/>
<text text-anchor="middle" x="457.3602" y="-270.8" font-family="Times,serif" font-size="14.00" fill="#000000">Insert initProgram (macros were compiled previously)</text>
</g>
<!-- q6&#45;&gt;a6 -->
<g id="edge17" class="edge">
<title>q6&#45;&gt;a6</title>
<path fill="none" stroke="#000000" d="M233.5634,-345.723C279.0518,-331.348 342.7715,-311.2117 390.5912,-296.0999"/>
<polygon fill="#000000" stroke="#000000" points="391.7565,-299.4024 400.2371,-293.0517 389.6472,-292.7277 391.7565,-299.4024"/>
<text text-anchor="middle" x="352.2431" y="-315.2" font-family="Times,serif" font-size="14.00" fill="#000000">Yes</text>
</g>
<!-- q8 -->
<g id="node8" class="node">
<title>q8</title>
<polygon fill="#ffffff" stroke="#ffffff" points="257.8708,-103 52.8496,-103 52.8496,-79 257.8708,-79 269.8708,-91 257.8708,-103"/>
<text text-anchor="middle" x="161.3602" y="-86.8" font-family="Times,serif" font-size="14.00" fill="#000000">8. termProgram in sasjsconfig.json?</text>
</g>
<!-- q7&#45;&gt;q8 -->
<g id="edge19" class="edge">
<title>q7&#45;&gt;q8</title>
<path fill="none" stroke="#000000" d="M161.3602,-183.6706C161.3602,-166.2373 161.3602,-139.7482 161.3602,-119.5489"/>
<polygon fill="#000000" stroke="#000000" points="164.8603,-119.3566 161.3602,-109.3566 157.8603,-119.3567 164.8603,-119.3566"/>
</g>
<!-- a8 -->
<g id="node15" class="node">
<title>a8</title>
<polygon fill="none" stroke="#000000" points="322.5807,-36 .1397,-36 .1397,0 322.5807,0 322.5807,-36"/>
<text text-anchor="middle" x="161.3602" y="-13.8" font-family="Times,serif" font-size="14.00" fill="#000000">Insert termProgram (macros were compiled previously</text>
</g>
<!-- q8&#45;&gt;a8 -->
<g id="edge20" class="edge">
<title>q8&#45;&gt;a8</title>
<path fill="none" stroke="#000000" d="M161.3602,-72.9551C161.3602,-64.8828 161.3602,-55.1764 161.3602,-46.1817"/>
<polygon fill="#000000" stroke="#000000" points="164.8603,-46.0903 161.3602,-36.0904 157.8603,-46.0904 164.8603,-46.0903"/>
</g>
<!-- a1&#45;&gt;q2 -->
<g id="edge3" class="edge">
<title>a1&#45;&gt;q2</title>
<path fill="none" stroke="#000000" d="M334.6138,-1155.7874C306.3855,-1145.3498 272.1362,-1132.686 243.5695,-1122.1233"/>
<polygon fill="#000000" stroke="#000000" points="244.7097,-1118.8133 234.1165,-1118.6279 242.282,-1125.3789 244.7097,-1118.8133"/>
</g>
<!-- a2&#45;&gt;q3 -->
<g id="edge6" class="edge">
<title>a2&#45;&gt;q3</title>
<path fill="none" stroke="#000000" d="M360.9557,-993.7551C331.525,-983.6209 294.6141,-970.911 263.7043,-960.2675"/>
<polygon fill="#000000" stroke="#000000" points="264.4913,-956.8369 253.8966,-956.8904 262.2122,-963.4555 264.4913,-956.8369"/>
</g>
<!-- a3&#45;&gt;q4 -->
<g id="edge9" class="edge">
<title>a3&#45;&gt;q4</title>
<path fill="none" stroke="#000000" d="M343.5286,-809.5285C322.5649,-799.2725 298.8559,-787.6733 277.2135,-777.0851"/>
<polygon fill="#000000" stroke="#000000" points="278.5995,-773.8668 268.0787,-772.6161 275.5232,-780.1547 278.5995,-773.8668"/>
</g>
<!-- a4&#45;&gt;q5 -->
<g id="edge12" class="edge">
<title>a4&#45;&gt;q5</title>
<path fill="none" stroke="#000000" d="M323.7249,-586.136C298.127,-575.0076 270.9418,-563.189 248.3705,-553.3763"/>
<polygon fill="#000000" stroke="#000000" points="249.564,-550.0788 238.9977,-549.3016 246.7731,-556.4984 249.564,-550.0788"/>
</g>
<!-- a5&#45;&gt;q6 -->
<g id="edge15" class="edge">
<title>a5&#45;&gt;q6</title>
<path fill="none" stroke="#000000" d="M343.0874,-418.9874C311.2801,-408.4591 272.6295,-395.6655 240.5533,-385.0482"/>
<polygon fill="#000000" stroke="#000000" points="241.4178,-381.6477 230.8245,-381.8279 239.2181,-388.2931 241.4178,-381.6477"/>
</g>
<!-- a6&#45;&gt;q7 -->
<g id="edge18" class="edge">
<title>a6&#45;&gt;q7</title>
<path fill="none" stroke="#000000" d="M384.1916,-256.9551C341.775,-246.4942 288.2299,-233.2888 244.2593,-222.4447"/>
<polygon fill="#000000" stroke="#000000" points="245.0032,-219.0234 234.456,-220.027 243.327,-225.8197 245.0032,-219.0234"/>
</g>
</g>
</svg>
