<?xml version="1.0" encoding="UTF-8" standalone="no"?>
<!DOCTYPE svg PUBLIC "-//W3C//DTD SVG 1.1//EN"
 "http://www.w3.org/Graphics/SVG/1.1/DTD/svg11.dtd">
<!-- Generated by graphviz version 2.40.1 (20161225.0304)
 -->
<!-- Title: G Pages: 1 -->
<svg width="615pt" height="1383pt"
 viewBox="0.00 0.00 614.56 1383.20" xmlns="http://www.w3.org/2000/svg" xmlns:xlink="http://www.w3.org/1999/xlink">
<g id="graph0" class="graph" transform="scale(1 1) rotate(0) translate(4 1379.2)">
<title>G</title>
<polygon fill="#ffffff" stroke="transparent" points="-4,4 -4,-1379.2 610.5584,-1379.2 610.5584,4 -4,4"/>
<g id="clust1" class="cluster">
<title>cluster_0</title>
<polygon fill="#d3d3d3" stroke="#d3d3d3" points="42.3602,-65 42.3602,-1367.2 278.3602,-1367.2 278.3602,-65 42.3602,-65"/>
</g>
<!-- q1 -->
<g id="node1" class="node">
<title>q1</title>
<polygon fill="#ffffff" stroke="#ffffff" points="258.1937,-1353.2 50.5267,-1353.2 50.5267,-1329.2 258.1937,-1329.2 270.1937,-1341.2 258.1937,-1353.2"/>
<text text-anchor="middle" x="160.3602" y="-1337" font-family="Times,serif" font-size="14.00" fill="#000000">1. Does `sasjsbuild` subfolder exist?</text>
</g>
<!-- q2 -->
<g id="node2" class="node">
<title>q2</title>
<polygon fill="#ffffff" stroke="#ffffff" points="258.7516,-1185.8 77.9688,-1185.8 77.9688,-1161.8 258.7516,-1161.8 270.7516,-1173.8 258.7516,-1185.8"/>
<text text-anchor="middle" x="174.3602" y="-1169.6" font-family="Times,serif" font-size="14.00" fill="#000000">2. macVars in sasjsconfig.json?</text>
</g>
<!-- q1&#45;&gt;q2 -->
<g id="edge2" class="edge">
<title>q1&#45;&gt;q2</title>
<path fill="none" stroke="#000000" d="M161.8791,-1323.1468C163.9379,-1298.6771 167.3602,-1258 167.3602,-1258 167.3602,-1258 169.9571,-1226.7631 171.9874,-1202.3411"/>
<polygon fill="#000000" stroke="#000000" points="175.5007,-1202.3258 172.8413,-1192.0701 168.5248,-1201.7458 175.5007,-1202.3258"/>
<text text-anchor="middle" x="178.2431" y="-1245.4" font-family="Times,serif" font-size="14.00" fill="#000000">Yes</text>
</g>
<!-- a1 -->
<g id="node9" class="node">
<title>a1</title>
<polygon fill="none" stroke="#000000" points="472.5359,-1270.2019 286.1845,-1270.2019 286.1845,-1228.9981 472.5359,-1228.9981 472.5359,-1270.2019"/>
<text text-anchor="middle" x="379.3602" y="-1253.8" font-family="Times,serif" font-size="14.00" fill="#000000">Create empty compiled file in </text>
<text text-anchor="middle" x="379.3602" y="-1237" font-family="Times,serif" font-size="14.00" fill="#000000">sasjsbuild subdirectory</text>
</g>
<!-- q1&#45;&gt;a1 -->
<g id="edge1" class="edge">
<title>q1&#45;&gt;a1</title>
<path fill="none" stroke="#000000" d="M203.6276,-1323.1028C237.0409,-1309.1272 283.6338,-1289.639 320.4485,-1274.2407"/>
<polygon fill="#000000" stroke="#000000" points="322.1924,-1277.3052 330.0673,-1270.2175 319.4912,-1270.8473 322.1924,-1277.3052"/>
<text text-anchor="middle" x="290.9135" y="-1292.6" font-family="Times,serif" font-size="14.00" fill="#000000">No</text>
</g>
<!-- q3 -->
<g id="node3" class="node">
<title>q3</title>
<polygon fill="#ffffff" stroke="#ffffff" points="257.982,-1024 88.7384,-1024 88.7384,-1000 257.982,-1000 269.982,-1012 257.982,-1024"/>
<text text-anchor="middle" x="179.3602" y="-1007.8" font-family="Times,serif" font-size="14.00" fill="#000000">3. Binary Files in source file?</text>
</g>
<!-- q2&#45;&gt;q3 -->
<g id="edge5" class="edge">
<title>q2&#45;&gt;q3</title>
<path fill="none" stroke="#000000" d="M174.814,-1155.556C175.4041,-1131.8346 176.3602,-1093.4 176.3602,-1093.4 176.3602,-1093.4 177.4509,-1063.8055 178.317,-1040.3055"/>
<polygon fill="#000000" stroke="#000000" points="181.8236,-1040.1875 178.6944,-1030.0653 174.8284,-1039.9296 181.8236,-1040.1875"/>
<text text-anchor="middle" x="184.9135" y="-1080.8" font-family="Times,serif" font-size="14.00" fill="#000000">No</text>
</g>
<!-- a2 -->
<g id="node10" class="node">
<title>a2</title>
<polygon fill="none" stroke="#000000" points="518.3903,-1103 286.3301,-1103 286.3301,-1067 518.3903,-1067 518.3903,-1103"/>
<text text-anchor="middle" x="402.3602" y="-1080.8" font-family="Times,serif" font-size="14.00" fill="#000000">Insert macro variables in compiled file</text>
</g>
<!-- q2&#45;&gt;a2 -->
<g id="edge4" class="edge">
<title>q2&#45;&gt;a2</title>
<path fill="none" stroke="#000000" d="M220.7742,-1155.723C257.1435,-1141.5581 307.8764,-1121.799 346.4754,-1106.7657"/>
<polygon fill="#000000" stroke="#000000" points="347.9632,-1109.9424 356.0112,-1103.0517 345.4227,-1103.4196 347.9632,-1109.9424"/>
<text text-anchor="middle" x="319.2431" y="-1125.2" font-family="Times,serif" font-size="14.00" fill="#000000">Yes</text>
</g>
<!-- q4 -->
<g id="node4" class="node">
<title>q4</title>
<polygon fill="#ffffff" stroke="#ffffff" points="254.9212,-839.8 111.7992,-839.8 111.7992,-759.8 254.9212,-759.8 266.9212,-799.8 254.9212,-839.8"/>
<text text-anchor="middle" x="189.3602" y="-829.2" font-family="Times,serif" font-size="14.00" fill="#000000">4. Macros in source file, </text>
<text text-anchor="middle" x="189.3602" y="-812.4" font-family="Times,serif" font-size="14.00" fill="#000000">initProgram, or </text>
<text text-anchor="middle" x="189.3602" y="-795.6" font-family="Times,serif" font-size="14.00" fill="#000000">termProgram?</text>
<text text-anchor="middle" x="189.3602" y="-778.8" font-family="Times,serif" font-size="14.00" fill="#000000">Is source file a </text>
<text text-anchor="middle" x="189.3602" y="-762" font-family="Times,serif" font-size="14.00" fill="#000000">Service or Test?</text>
</g>
<!-- q3&#45;&gt;q4 -->
<g id="edge8" class="edge">
<title>q3&#45;&gt;q4</title>
<path fill="none" stroke="#000000" d="M180.5456,-993.9028C182.2942,-967.2077 185.3602,-920.4 185.3602,-920.4 185.3602,-920.4 186.4487,-887.5803 187.4901,-856.1828"/>
<polygon fill="#000000" stroke="#000000" points="190.9916,-856.1928 187.8251,-846.0822 183.9955,-855.9606 190.9916,-856.1928"/>
<text text-anchor="middle" x="193.9135" y="-907.8" font-family="Times,serif" font-size="14.00" fill="#000000">No</text>
</g>
<!-- a3 -->
<g id="node11" class="node">
<title>a3</title>
<polygon fill="none" stroke="#000000" points="498.7105,-941.4014 286.0099,-941.4014 286.0099,-882.5986 498.7105,-882.5986 498.7105,-941.4014"/>
<text text-anchor="middle" x="392.3602" y="-924.6" font-family="Times,serif" font-size="14.00" fill="#000000">Convert to base64 and </text>
<text text-anchor="middle" x="392.3602" y="-907.8" font-family="Times,serif" font-size="14.00" fill="#000000">wrap in put statements in compiled</text>
<text text-anchor="middle" x="392.3602" y="-891" font-family="Times,serif" font-size="14.00" fill="#000000"> file with filerefs</text>
</g>
<!-- q3&#45;&gt;a3 -->
<g id="edge7" class="edge">
<title>q3&#45;&gt;a3</title>
<path fill="none" stroke="#000000" d="M217.9329,-993.8908C246.5459,-980.4574 286.386,-961.7532 320.7683,-945.6112"/>
<polygon fill="#000000" stroke="#000000" points="322.2784,-948.7688 329.843,-941.3508 319.3036,-942.4324 322.2784,-948.7688"/>
<text text-anchor="middle" x="296.2431" y="-963.4" font-family="Times,serif" font-size="14.00" fill="#000000">Yes</text>
</g>
<!-- q5 -->
<g id="node5" class="node">
<title>q5</title>
<polygon fill="#ffffff" stroke="#ffffff" points="258.2534,-599.6 80.467,-599.6 80.467,-575.6 258.2534,-575.6 270.2534,-587.6 258.2534,-599.6"/>
<text text-anchor="middle" x="175.3602" y="-583.4" font-family="Times,serif" font-size="14.00" fill="#000000">5. SAS Includes in source file?</text>
</g>
<!-- q4&#45;&gt;q5 -->
<g id="edge11" class="edge">
<title>q4&#45;&gt;q5</title>
<path fill="none" stroke="#000000" d="M187.0404,-753.5595C185.352,-719.9041 183.3602,-680.2 183.3602,-680.2 183.3602,-680.2 180.1742,-643.3218 177.8234,-616.111"/>
<polygon fill="#000000" stroke="#000000" points="181.2886,-615.5564 176.9407,-605.8948 174.3145,-616.159 181.2886,-615.5564"/>
<text text-anchor="middle" x="191.9135" y="-667.6" font-family="Times,serif" font-size="14.00" fill="#000000">No</text>
</g>
<!-- a4 -->
<g id="node12" class="node">
<title>a4</title>
<polygon fill="none" stroke="#000000" points="512.5562,-701.2014 286.1642,-701.2014 286.1642,-642.3986 512.5562,-642.3986 512.5562,-701.2014"/>
<text text-anchor="middle" x="399.3602" y="-684.4" font-family="Times,serif" font-size="14.00" fill="#000000">Construct macroFolders list and</text>
<text text-anchor="middle" x="399.3602" y="-667.6" font-family="Times,serif" font-size="14.00" fill="#000000"> recursively compile all dependencies</text>
<text text-anchor="middle" x="399.3602" y="-650.8" font-family="Times,serif" font-size="14.00" fill="#000000">before adding to compiled file</text>
</g>
<!-- q4&#45;&gt;a4 -->
<g id="edge10" class="edge">
<title>q4&#45;&gt;a4</title>
<path fill="none" stroke="#000000" d="M264.8783,-753.7699C290.5363,-738.1307 318.7502,-720.9337 342.6813,-706.3472"/>
<polygon fill="#000000" stroke="#000000" points="344.5743,-709.2923 351.2915,-701.099 340.931,-703.3151 344.5743,-709.2923"/>
<text text-anchor="middle" x="329.2431" y="-723.2" font-family="Times,serif" font-size="14.00" fill="#000000">Yes</text>
</g>
<!-- q6 -->
<g id="node6" class="node">
<title>q6</title>
<polygon fill="#ffffff" stroke="#ffffff" points="258.3862,-432.2 60.3342,-432.2 60.3342,-408.2 258.3862,-408.2 270.3862,-420.2 258.3862,-432.2"/>
<text text-anchor="middle" x="165.3602" y="-416" font-family="Times,serif" font-size="14.00" fill="#000000">6. initProgram in sasjsconfig.json?</text>
</g>
<!-- q5&#45;&gt;q6 -->
<g id="edge14" class="edge">
<title>q5&#45;&gt;q6</title>
<path fill="none" stroke="#000000" d="M174.2753,-569.5468C172.8047,-545.0771 170.3602,-504.4 170.3602,-504.4 170.3602,-504.4 168.5053,-473.1631 167.055,-448.7411"/>
<polygon fill="#000000" stroke="#000000" points="170.5318,-448.2451 166.4451,-438.4701 163.5442,-448.6601 170.5318,-448.2451"/>
<text text-anchor="middle" x="178.9135" y="-491.8" font-family="Times,serif" font-size="14.00" fill="#000000">No</text>
</g>
<!-- a5 -->
<g id="node13" class="node">
<title>a5</title>
<polygon fill="none" stroke="#000000" points="502.3187,-516.6019 286.4017,-516.6019 286.4017,-475.3981 502.3187,-475.3981 502.3187,-516.6019"/>
<text text-anchor="middle" x="394.3602" y="-500.2" font-family="Times,serif" font-size="14.00" fill="#000000">Wrap in put statements in compiled</text>
<text text-anchor="middle" x="394.3602" y="-483.4" font-family="Times,serif" font-size="14.00" fill="#000000"> file with filerefs</text>
</g>
<!-- q5&#45;&gt;a5 -->
<g id="edge13" class="edge">
<title>q5&#45;&gt;a5</title>
<path fill="none" stroke="#000000" d="M218.6276,-569.5028C252.0409,-555.5272 298.6338,-536.039 335.4485,-520.6407"/>
<polygon fill="#000000" stroke="#000000" points="337.1924,-523.7052 345.0673,-516.6175 334.4912,-517.2473 337.1924,-523.7052"/>
<text text-anchor="middle" x="308.2431" y="-539" font-family="Times,serif" font-size="14.00" fill="#000000">Yes</text>
</g>
<!-- q7 -->
<g id="node7" class="node">
<title>q7</title>
<polygon fill="#ffffff" stroke="#ffffff" points="254.961,-270.2019 85.7594,-270.2019 85.7594,-240.9981 254.961,-240.9981 266.961,-255.6 254.961,-270.2019"/>
<text text-anchor="middle" x="176.3602" y="-259.8" font-family="Times,serif" font-size="14.00" fill="#000000">7. Does source file contain </text>
<text text-anchor="middle" x="176.3602" y="-243" font-family="Times,serif" font-size="14.00" fill="#000000">anything other than a header?</text>
</g>
<!-- q6&#45;&gt;q7 -->
<g id="edge16" class="edge">
<title>q6&#45;&gt;q7</title>
<path fill="none" stroke="#000000" d="M166.9486,-401.956C169.0139,-378.2346 172.3602,-339.8 172.3602,-339.8 172.3602,-339.8 173.7463,-310.6221 174.8866,-286.6185"/>
<polygon fill="#000000" stroke="#000000" points="178.3929,-286.5683 175.3714,-276.4135 171.4008,-286.2361 178.3929,-286.5683"/>
<text text-anchor="middle" x="180.9135" y="-327.2" font-family="Times,serif" font-size="14.00" fill="#000000">No</text>
</g>
<!-- a6 -->
<g id="node14" class="node">
<title>a6</title>
<polygon fill="none" stroke="#000000" points="606.7568,-349.4 285.9636,-349.4 285.9636,-313.4 606.7568,-313.4 606.7568,-349.4"/>
<text text-anchor="middle" x="446.3602" y="-327.2" font-family="Times,serif" font-size="14.00" fill="#000000">Insert initProgram (macros were compiled previously)</text>
</g>
<!-- q6&#45;&gt;a6 -->
<g id="edge17" class="edge">
<title>q6&#45;&gt;a6</title>
<path fill="none" stroke="#000000" d="M222.5634,-402.123C268.0518,-387.748 331.7715,-367.6117 379.5912,-352.4999"/>
<polygon fill="#000000" stroke="#000000" points="380.7565,-355.8024 389.2371,-349.4517 378.6472,-349.1277 380.7565,-355.8024"/>
<text text-anchor="middle" x="341.2431" y="-371.6" font-family="Times,serif" font-size="14.00" fill="#000000">Yes</text>
</g>
<!-- q8 -->
<g id="node8" class="node">
<title>q8</title>
<polygon fill="#ffffff" stroke="#ffffff" points="257.8708,-103 52.8496,-103 52.8496,-79 257.8708,-79 269.8708,-91 257.8708,-103"/>
<text text-anchor="middle" x="161.3602" y="-86.8" font-family="Times,serif" font-size="14.00" fill="#000000">8. termProgram in sasjsconfig.json?</text>
</g>
<!-- q7&#45;&gt;q8 -->
<g id="edge20" class="edge">
<title>q7&#45;&gt;q8</title>
<path fill="none" stroke="#000000" d="M174.8461,-234.6051C173.0687,-209.9578 170.3602,-172.4 170.3602,-172.4 170.3602,-172.4 167.0881,-142.8055 164.4898,-119.3055"/>
<polygon fill="#000000" stroke="#000000" points="167.9354,-118.6201 163.3576,-109.0653 160.9778,-119.3894 167.9354,-118.6201"/>
<text text-anchor="middle" x="178.9135" y="-159.8" font-family="Times,serif" font-size="14.00" fill="#000000">No</text>
</g>
<!-- a7 -->
<g id="node15" class="node">
<title>a7</title>
<polygon fill="none" stroke="#000000" points="426.3512,-182 286.3692,-182 286.3692,-146 426.3512,-146 426.3512,-182"/>
<text text-anchor="middle" x="356.3602" y="-159.8" font-family="Times,serif" font-size="14.00" fill="#000000">Insert source file code</text>
</g>
<!-- q7&#45;&gt;a7 -->
<g id="edge19" class="edge">
<title>q7&#45;&gt;a7</title>
<path fill="none" stroke="#000000" d="M217.205,-234.8145C245.3774,-220.4779 282.8195,-201.424 311.7686,-186.6922"/>
<polygon fill="#000000" stroke="#000000" points="313.5217,-189.7272 320.8467,-182.0724 310.3469,-183.4886 313.5217,-189.7272"/>
<text text-anchor="middle" x="293.2431" y="-204.2" font-family="Times,serif" font-size="14.00" fill="#000000">Yes</text>
</g>
<!-- a8 -->
<g id="node16" class="node">
<title>a8</title>
<polygon fill="none" stroke="#000000" points="322.5807,-36 .1397,-36 .1397,0 322.5807,0 322.5807,-36"/>
<text text-anchor="middle" x="161.3602" y="-13.8" font-family="Times,serif" font-size="14.00" fill="#000000">Insert termProgram (macros were compiled previously</text>
</g>
<!-- q8&#45;&gt;a8 -->
<g id="edge21" class="edge">
<title>q8&#45;&gt;a8</title>
<path fill="none" stroke="#000000" d="M161.3602,-72.9551C161.3602,-64.8828 161.3602,-55.1764 161.3602,-46.1817"/>
<polygon fill="#000000" stroke="#000000" points="164.8603,-46.0903 161.3602,-36.0904 157.8603,-46.0904 164.8603,-46.0903"/>
</g>
<!-- a1&#45;&gt;q2 -->
<g id="edge3" class="edge">
<title>a1&#45;&gt;q2</title>
<path fill="none" stroke="#000000" d="M323.6138,-1228.9874C295.3855,-1218.5498 261.1362,-1205.886 232.5695,-1195.3233"/>
<polygon fill="#000000" stroke="#000000" points="233.7097,-1192.0133 223.1165,-1191.8279 231.282,-1198.5789 233.7097,-1192.0133"/>
</g>
<!-- a2&#45;&gt;q3 -->
<g id="edge6" class="edge">
<title>a2&#45;&gt;q3</title>
<path fill="none" stroke="#000000" d="M347.2366,-1066.9551C316.1449,-1056.777 277.1164,-1044.0009 244.5172,-1033.3294"/>
<polygon fill="#000000" stroke="#000000" points="245.2152,-1029.8752 234.6225,-1030.0904 243.0374,-1036.5278 245.2152,-1029.8752"/>
</g>
<!-- a3&#45;&gt;q4 -->
<g id="edge9" class="edge">
<title>a3&#45;&gt;q4</title>
<path fill="none" stroke="#000000" d="M339.2895,-882.6673C319.8786,-871.9388 297.3812,-859.5042 275.8112,-847.5823"/>
<polygon fill="#000000" stroke="#000000" points="277.4041,-844.4637 266.9589,-842.6895 274.0179,-850.5902 277.4041,-844.4637"/>
</g>
<!-- a4&#45;&gt;q5 -->
<g id="edge12" class="edge">
<title>a4&#45;&gt;q5</title>
<path fill="none" stroke="#000000" d="M321.6445,-642.5872C292.6093,-631.6731 260.1719,-619.4801 233.2342,-609.3544"/>
<polygon fill="#000000" stroke="#000000" points="234.1671,-605.966 223.575,-605.7236 231.7041,-612.5184 234.1671,-605.966"/>
</g>
<!-- a5&#45;&gt;q6 -->
<g id="edge15" class="edge">
<title>a5&#45;&gt;q6</title>
<path fill="none" stroke="#000000" d="M332.0874,-475.3874C300.2801,-464.8591 261.6295,-452.0655 229.5533,-441.4482"/>
<polygon fill="#000000" stroke="#000000" points="230.4178,-438.0477 219.8245,-438.2279 228.2181,-444.6931 230.4178,-438.0477"/>
</g>
<!-- a6&#45;&gt;q7 -->
<g id="edge18" class="edge">
<title>a6&#45;&gt;q7</title>
<path fill="none" stroke="#000000" d="M382.0315,-313.3403C345.5084,-303.0868 299.3745,-290.1351 260.0596,-279.0978"/>
<polygon fill="#000000" stroke="#000000" points="260.795,-275.669 250.2211,-276.3358 258.9029,-282.4085 260.795,-275.669"/>
</g>
</g>
</svg>
