<svg version="1.1" xmlns="http://www.w3.org/2000/svg" viewBox="0 0 2755.514383951827 1427.2228567940865" width="2755.514383951827" height="1427.2228567940865">
  <!-- svg-source:excalidraw -->
  
  <defs>
    <style>
      @font-face {
        font-family: "Virgil";
        src: url("https://excalidraw.com/Virgil.woff2");
      }
      @font-face {
        font-family: "Cascadia";
        src: url("https://excalidraw.com/Cascadia.woff2");
      }
    </style>
  </defs>
  <rect x="0" y="0" width="2755.514383951827" height="1427.2228567940865" fill="#ffffff"></rect><g transform="translate(1019.6132376534613 140.94110107421966) rotate(0 18.5 22.5)"><text x="18.5" y="32" font-family="Virgil, Segoe UI Emoji" font-size="36px" fill="#a61e4d" text-anchor="middle" style="white-space: pre;" direction="ltr">no</text></g><g transform="translate(797.595043364028 556.5763142903643) rotate(0 244.63483537946433 195.6953212193082)"><path d="M244.717054083592 -0.7313956036682262 C336.0641542880316 73.3289664368046, 429.47818456849717 147.649958265972, 489.0743073186126 194.87408076972815 M244.94576759658764 -0.19341584723003674 C341.6930635487231 77.51608964982358, 437.59937559118384 154.9423768619771, 488.68908803457 195.2909036270663 M489.255521376493 196.47234693840812 C418.33964476791414 253.29798705028895, 344.86746824471874 308.45222695754836, 244.94271652923945 391.4950090353616 M488.9614848397478 196.57758784757814 C416.23925498756745 254.36922098541538, 341.3700050229178 315.224936340582, 244.7967529700744 391.19870866012565 M246.15562006334434 391.7780742404076 C151.03964763217328 316.66491115761414, 60.20879312199629 241.95707275699658, 0.32551183538990813 195.58810423229104 M244.56501761672706 391.73323230938394 C173.77673145959176 333.69883665626423, 101.96913944018064 277.36566687216936, 0.15053696632627 196.10656971855107 M1.0297488737580303 196.97350788180006 C53.881778653587986 153.85897202162744, 108.0637500816356 109.69718086659385, 244.18278136477187 0.32573120276927997 M0.655215231213367 195.36480527286176 C48.20123006473406 156.46036805073902, 97.64874131029103 116.06363295531914, 244.8264293961048 -0.3186710766041405" stroke="#1864ab" stroke-width="2" fill="none"></path></g><g transform="translate(2030.646150134862 628.1216256277885) rotate(0 244.63483537946422 195.6953212193082)"><path d="M245.82939933264208 -0.02002465634256723 C311.1711330187159 53.91108134307184, 374.71638621886603 104.15463870816511, 489.1591983221286 195.4424308914339 M245.49917994718632 0.649314836143779 C302.24845475976434 45.48422029159439, 360.57002951640953 92.24228201939137, 489.3114148533906 196.56992081249365 M490.4085204016966 195.06273926869082 C429.22217750596667 246.8707420775385, 367.7120304661311 293.45380403800743, 246.10437569273657 392.3369818158651 M489.0018018056799 196.2317796614123 C437.5598127810234 238.95870547277997, 383.74475207999546 281.7113367247447, 244.95091521878624 391.4067483059723 M246.23808027390697 390.5911548480751 C173.9034754250076 334.93351861930057, 99.7687919901399 275.7014475595375, -1.1995915304941684 194.70252928140715 M244.8895693311674 391.90161801840344 C158.43911170801994 323.4652200682428, 71.34590437901889 255.38508500326614, -0.6942473934943851 196.45791225820724 M-0.958949144861669 197.1395458959705 C77.29620400271423 133.38682077890732, 157.9669919659471 69.24020090674789, 244.57619321657998 1.0889392334132149 M0.6327496002007647 196.3722308593628 C68.16668709011775 142.23101675259127, 135.2557068660152 89.6725353281006, 245.2921270187311 0.4118035719322801" stroke="#1864ab" stroke-width="2" fill="none"></path></g><g transform="translate(1389.1414998372402 777.5394054594492) rotate(0 244.63483537946433 195.6953212193082)"><path d="M246.1842857974938 -0.7350592994240241 C303.7411393653127 48.0665409746459, 364.69496095949484 95.14380434795108, 490.02840522732373 196.40876566247175 M244.67783913302316 -0.14147295820400133 C310.4122123857562 51.5553578309814, 374.8037678616477 104.13159688574075, 488.8029803335926 195.90231827984198 M488.81563119738803 195.89143835967468 C436.22355150058024 240.42026478343374, 382.64199672847985 283.52974040455433, 245.88923065466153 390.22844034291217 M488.8186421229765 195.99292530878216 C440.4675148577432 234.95725013716648, 391.9509292941808 273.052416462557, 244.6770523888679 391.3620007032361 M244.24283570888548 390.77509406460996 C170.77635895007273 333.8743331330819, 93.39097235002481 273.5157374022582, 1.2448050459232363 195.59404901065932 M244.421587315552 391.9684524702886 C177.22111053912894 338.93112939496376, 110.36374123700854 286.4170012382329, -0.23666908435409564 196.16275591769497 M-0.01791302312061259 195.1308108389697 C67.18394614358779 144.07489673004775, 132.10398772755417 90.95876132617381, 246.07341290613593 0.3008055141926878 M0.36588723258130235 196.514874436879 C78.83351727298022 135.73988302657915, 156.02949508085675 74.67707166815137, 244.56244660436886 -0.40860931761406794" stroke="#1864ab" stroke-width="2" fill="none"></path></g><g><g transform="translate(1045.2599910933047 947.623563779739) rotate(0 5.082458191791034 147.10906881335723)"><path d="M-0.6169335030019283 -0.7971234060823917 C0.9187244577713349 48.411864330680324, 7.063124341521432 245.79290583387592, 8.670461226855242 295.01526103279684 M1.2600376785825937 1.398782860385254 C3.1951351098258085 50.250449652183086, 9.073847401248308 243.99572191005217, 10.781849886583931 293.0572547964392" stroke="#1864ab" stroke-width="2" fill="none"></path></g><g transform="translate(1045.2599910933047 947.623563779739) rotate(0 5.082458191791034 147.10906881335723)"><path d="M-1.715257562133571 263.3071500057416 C2.9250837287322975 271.0509610569712, 4.97273496865924 277.87229815688613, 12.636141329365618 293.5594893112419 M0.19628130142102584 265.1996326496886 C3.1386393381948645 273.3337981545343, 4.764730015110565 279.1776482675434, 10.704196804496295 292.66532934416216" stroke="#1864ab" stroke-width="2" fill="none"></path></g><g transform="translate(1045.2599910933047 947.623563779739) rotate(0 5.082458191791034 147.10906881335723)"><path d="M18.795177755648616 262.6422850112403 C18.209994905607967 270.44999700708485, 15.033444340142843 277.4406815075206, 12.636141329365618 293.5594893112419 M20.706716619203213 264.5347676551873 C18.14944926204513 272.7914221081027, 14.276421450616922 278.81353130371383, 10.704196804496295 292.66532934416216" stroke="#1864ab" stroke-width="2" fill="none"></path></g></g><g transform="translate(925.0103352864614 683.2602626255584) rotate(0 116 67.5)"><text x="116" y="32" font-family="Virgil, Segoe UI Emoji" font-size="36px" fill="#000000" text-anchor="middle" style="white-space: pre;" direction="ltr">is target</text><text x="116" y="77" font-family="Virgil, Segoe UI Emoji" font-size="36px" fill="#000000" text-anchor="middle" style="white-space: pre;" direction="ltr">found in</text><text x="116" y="122" font-family="Virgil, Segoe UI Emoji" font-size="36px" fill="#000000" text-anchor="middle" style="white-space: pre;" direction="ltr">global config?</text></g><g transform="translate(1070.9513404482918 1041.7718767438628) rotate(0 28 22.5)"><text x="28" y="32" font-family="Virgil, Segoe UI Emoji" font-size="36px" fill="#087f5b" text-anchor="middle" style="white-space: pre;" direction="ltr">yes</text></g><g transform="translate(948.4151611328159 1266.7059006463924) rotate(0 116.5 45)"><text x="116.5" y="32" font-family="Virgil, Segoe UI Emoji" font-size="36px" fill="#5c940d" text-anchor="middle" style="white-space: pre;" direction="ltr">return</text><text x="116.5" y="77" font-family="Virgil, Segoe UI Emoji" font-size="36px" fill="#5c940d" text-anchor="middle" style="white-space: pre;" direction="ltr">global target</text></g><g transform="translate(1318.730936686201 693.1983787899926) rotate(0 18.5 22.5)"><text x="18.5" y="32" font-family="Virgil, Segoe UI Emoji" font-size="36px" fill="#a61e4d" text-anchor="middle" style="white-space: pre;" direction="ltr">no</text></g><g><g transform="translate(667.094193724997 754.0290453975258) rotate(0 64.50296496439921 -1.2518999363898047)"><path d="M0.9243795253336431 -0.07593261972069731 C22.376145410806906 -0.41035185194406637, 107.71246265009529 -1.9428018111186098, 129.0553898820041 -2.4278672530587757 M-0.04945995320565988 -1.1614011904131623 C21.166560046597418 -1.2754676081409677, 106.49837823878525 -0.861420157673768, 127.82201398604012 -1.015741330421715" stroke="#1864ab" stroke-width="2" fill="none"></path></g><g transform="translate(667.094193724997 754.0290453975258) rotate(0 64.50296496439921 -1.2518999363898047)"><path d="M99.50935657264826 8.351889018206833 C108.5399069245416 4.635137335741673, 116.87484241290917 0.3795835663877245, 128.34445370801188 -2.3279220320649436 M99.88702819625077 8.93883193494284 C107.70974269207353 5.783509798063385, 116.43775106278864 3.1003922818051555, 128.37415967390336 -0.39124248441234144" stroke="#1864ab" stroke-width="2" fill="none"></path></g><g transform="translate(667.094193724997 754.0290453975258) rotate(0 64.50296496439921 -1.2518999363898047)"><path d="M99.50001126627225 -12.169317453418767 C108.46157832339811 -9.140145804135164, 116.7995859212523 -6.6497042533247495, 128.34445370801188 -2.3279220320649436 M99.87768288987476 -11.58237453668276 C107.54066184919756 -8.863227839307058, 116.27134547786343 -5.671789876701915, 128.37415967390336 -0.39124248441234144" stroke="#1864ab" stroke-width="2" fill="none"></path></g></g><g transform="translate(1384.8728521437874 11.283534458704708) rotate(0 244.63483537946433 195.6953212193082)"><path d="M245.75204889776887 -0.7936107643128592 C309.7085618084497 51.665879617699204, 374.0163781314965 101.76756843080325, 487.8818456635321 196.44643933586343 M245.20438283123588 -0.24976346421133133 C316.97387956952326 56.609278020126574, 387.8654299324964 114.09378287347025, 488.90397295709454 195.52749157571048 M489.0741329051197 194.87307558930468 C440.95804266665914 235.20757747530894, 389.18864794881375 274.73245705955924, 244.61282295603706 392.2207822293215 M488.6885697110765 195.29027057118338 C417.04539721190406 255.14919378345846, 343.7125794082977 313.7633193658108, 245.23617346920406 391.8902680358078 M244.9427930591738 391.4948696030142 C150.2814443984044 315.2867687308514, 53.576484694043955 237.0788411100917, 1.153632396209334 197.1373281552039 M244.79702450532966 391.1989650810316 C187.36911246800847 347.63207061570586, 128.8658833106849 301.9813475624422, 0.19371590089558494 195.7324889160132 M0.32522162964293677 195.58847145248382 C80.26566925377828 131.43061129978395, 161.82177102205713 65.34843108845146, 245.68456887865057 1.2369764799073748 M0.1504027570963439 196.10647470773606 C57.907567577734746 146.25650666800854, 118.59822275320046 99.63913255874488, 245.48675394090003 -0.11033221583873086" stroke="#1864ab" stroke-width="2" fill="none"></path></g><g><g transform="translate(1623.1995116135993 405.49840162970963) rotate(0 4.85680229399884 185.84284180571603)"><path d="M-0.6694121025502682 0.4083977960050107 C1.110128285104315 62.320752183381444, 8.672617690832817 310.52006375582874, 10.383016690547947 372.1084809178634 M1.1800078142713755 -0.4227973064314574 C2.8421476150228635 61.11582668163439, 8.303933101519473 308.66625301144074, 9.524226979800869 370.5103534456583" stroke="#1864ab" stroke-width="2" fill="none"></path></g><g transform="translate(1623.1995116135993 405.49840162970963) rotate(0 4.85680229399884 185.84284180571603)"><path d="M-0.6497985109350815 342.8263001229185 C3.4725568269103353 349.2746218158116, 2.8468524880430977 358.6401096966374, 9.399835904577184 370.02876132319295 M-0.5601452331653967 342.47967134337307 C2.132309191127031 352.2639765481764, 5.9064211192551195 361.68039701794777, 8.570947810524512 370.7715733066442" stroke="#1864ab" stroke-width="2" fill="none"></path></g><g transform="translate(1623.1995116135993 405.49840162970963) rotate(0 4.85680229399884 185.84284180571603)"><path d="M19.86681753526558 342.39217065073115 C18.339525858794286 348.8456362579253, 12.061879572069493 358.3307186454247, 9.399835904577184 370.02876132319295 M19.956470813035263 342.0455418711857 C15.40097873596624 351.91119998219733, 11.925896783696839 361.48101264422854, 8.570947810524512 370.7715733066442" stroke="#1864ab" stroke-width="2" fill="none"></path></g></g><g><g transform="translate(1633.0628909974214 1170.0677218766261) rotate(0 1.306175958180802 69.45683914580093)"><path d="M-0.620023836940527 -1.1706329561769961 C-0.10962970436795938 21.760554042452927, 2.7012304305441983 115.17418074008998, 3.2323757533023127 138.5860691852531 M1.255324919326231 0.8291807964909821 C1.6257718875420901 24.480797132443616, 2.416343561901555 117.3401444910652, 2.482030789287946 140.08431124777894" stroke="#1864ab" stroke-width="2" fill="none"></path></g><g transform="translate(1633.0628909974214 1170.0677218766261) rotate(0 1.306175958180802 69.45683914580093)"><path d="M-9.90654619246532 112.58617618752089 C-4.566616758142235 120.36709329900846, -0.09643816559933605 130.2595436337878, 1.7797776897570108 141.62494379000168 M-8.469602518005267 111.29428604876068 C-5.970942597632549 120.5002892241168, -2.608542862158064 128.36149970188478, 1.6906017148068164 141.01145696916979" stroke="#1864ab" stroke-width="2" fill="none"></path></g><g transform="translate(1633.0628909974214 1170.0677218766261) rotate(0 1.306175958180802 69.45683914580093)"><path d="M10.614257365462837 112.4572431709484 C9.508288920609402 120.17263862821932, 7.531496323350352 130.10559553677444, 1.7797776897570108 141.62494379000168 M12.05120103992289 111.1653530321882 C8.522885812671245 120.36840688121715, 5.858894345177888 128.26748141214713, 1.6906017148068164 141.01145696916979" stroke="#1864ab" stroke-width="2" fill="none"></path></g></g><g><g transform="translate(661.783148107753 208.16672493243811) rotate(0 361.9796070757703 0.90100454690878)"><path d="M-0.4752060078084469 0.530797078460455 C120.14269290825378 1.0198135787512759, 603.6786802093511 1.8245818914303675, 724.4344201593489 2.0381474945043916 M1.4761721087526531 -0.23613840068690473 C121.84669015989665 -0.018852368371223394, 603.0875859151142 0.26190477851015814, 723.3319062371475 0.24860890736819785" stroke="#1864ab" stroke-width="2" fill="none"></path></g><g transform="translate(661.783148107753 208.16672493243811) rotate(0 361.9796070757703 0.90100454690878)"><path d="M696.0226070422773 10.01008943949976 C706.4380810329407 5.799756756720698, 716.2278214493238 3.502123789525953, 724.9968182262701 -0.7847641541993471 M694.8971491836105 11.03379373547771 C701.1008926412904 8.091414122612461, 707.2916700772261 6.303803277576358, 722.8790007889938 0.04972108421863597" stroke="#1864ab" stroke-width="2" fill="none"></path></g><g transform="translate(661.783148107753 208.16672493243811) rotate(0 361.9796070757703 0.90100454690878)"><path d="M696.0289744938729 -10.511118172173608 C706.2889357493832 -7.3218250293658205, 716.0763801546972 -2.21980695554661, 724.9968182262701 -0.7847641541993471 M694.9035166352061 -9.487413876195658 C701.1703686864245 -8.275335326727571, 707.3598570492718 -5.908484049159586, 722.8790007889938 0.04972108421863597" stroke="#1864ab" stroke-width="2" fill="none"></path></g></g><g transform="translate(1481.8429623558418 144.99575369698687) rotate(0 148.5 67.5)"><text x="148.5" y="32" font-family="Virgil, Segoe UI Emoji" font-size="36px" fill="#000000" text-anchor="middle" style="white-space: pre;" direction="ltr">is defaultTarget</text><text x="148.5" y="77" font-family="Virgil, Segoe UI Emoji" font-size="36px" fill="#000000" text-anchor="middle" style="white-space: pre;" direction="ltr">specified in</text><text x="148.5" y="122" font-family="Virgil, Segoe UI Emoji" font-size="36px" fill="#000000" text-anchor="middle" style="white-space: pre;" direction="ltr">local config?</text></g><g transform="translate(1643.6337687174487 471.26197160993433) rotate(0 28 22.5)"><text x="28" y="32" font-family="Virgil, Segoe UI Emoji" font-size="36px" fill="#087f5b" text-anchor="middle" style="white-space: pre;" direction="ltr">yes</text></g><g transform="translate(1452.9226917085202 913.3650687081472) rotate(0 184.5 45)"><text x="184.5" y="32" font-family="Virgil, Segoe UI Emoji" font-size="36px" fill="#000000" text-anchor="middle" style="white-space: pre;" direction="ltr">is default target</text><text x="184.5" y="77" font-family="Virgil, Segoe UI Emoji" font-size="36px" fill="#000000" text-anchor="middle" style="white-space: pre;" direction="ltr">found in local config?</text></g><g transform="translate(1682.1242472330737 1208.4955269949796) rotate(0 28 22.5)"><text x="28" y="32" font-family="Virgil, Segoe UI Emoji" font-size="36px" fill="#087f5b" text-anchor="middle" style="white-space: pre;" direction="ltr">yes</text></g><g transform="translate(1467.3805948893228 1327.2228567940865) rotate(0 181 45)"><text x="181" y="32" font-family="Virgil, Segoe UI Emoji" font-size="36px" fill="#5c940d" text-anchor="middle" style="white-space: pre;" direction="ltr">return</text><text x="181" y="77" font-family="Virgil, Segoe UI Emoji" font-size="36px" fill="#5c940d" text-anchor="middle" style="white-space: pre;" direction="ltr">local default target</text></g><g><g transform="translate(1875.1312232813061 207.1287608526278) rotate(0 69.95366037936037 -1.3434108417126254)"><path d="M-0.16478941217064857 -0.9497148893773555 C23.385927172568913 -1.1332520950746696, 118.23654062284766 -1.666590366220555, 141.61776334162042 -1.8885316551698224 M-1.7104425828997047 1.1660808483604344 C21.752174928370216 0.6721681897274245, 117.77608562266131 -3.489904360991425, 141.25381968246944 -3.8529025317856895" stroke="#1864ab" stroke-width="2" fill="none"></path></g><g transform="translate(1875.1312232813061 207.1287608526278) rotate(0 69.95366037936037 -1.3434108417126254)"><path d="M111.81468164541872 9.138160022789489 C123.05738691226279 3.0524402070620464, 131.48721395484577 -0.48559179386828966, 142.419819389304 -3.8810539209971058 M112.40066635788531 7.206215497920166 C122.83102178346653 2.921782514807979, 133.10796669769098 -0.06892887828830396, 141.95558498317547 -2.940072151062809" stroke="#1864ab" stroke-width="2" fill="none"></path></g><g transform="translate(1875.1312232813061 207.1287608526278) rotate(0 69.95366037936037 -1.3434108417126254)"><path d="M111.17323463669422 -11.373021028550237 C122.49055799628312 -10.768712878624498, 131.12957501132834 -7.6175977778642086, 142.419819389304 -3.8810539209971058 M111.75921934916082 -13.30496555341956 C122.54551818631388 -10.298292686132989, 133.05031442314169 -6.00313374677943, 141.95558498317547 -2.940072151062809" stroke="#1864ab" stroke-width="2" fill="none"></path></g></g><g><g transform="translate(118.66261190586795 141.1894445577904) rotate(0 21.881638386939812 29.237553731204372)"><path d="M-0.4605680845677852 -0.8820101715624332 C6.759381806385137 9.00950193673416, 36.736439675746446 49.531217555703925, 44.223844858447414 59.35711763397122 M1.4984949416946622 1.269330543028191 C8.52392405607774 10.788436848419225, 36.434585734020885 47.82959652086008, 43.531478862457305 57.43812519525441" stroke="#1864ab" stroke-width="2" fill="none"></path></g><g transform="translate(118.66261190586795 141.1894445577904) rotate(0 21.881638386939812 29.237553731204372)"><path d="M16.972454499050954 41.80165395596187 C28.50691222118438 48.47171671400966, 35.78441167365226 52.641734798042265, 44.4161406598914 56.947749136288486 M18.584147249877432 41.82242910088162 C26.68700946850654 45.73300221125915, 36.37048579771239 52.45027649996885, 43.29068280122462 57.971453432266436" stroke="#1864ab" stroke-width="2" fill="none"></path></g><g transform="translate(118.66261190586795 141.1894445577904) rotate(0 21.881638386939812 29.237553731204372)"><path d="M33.414835564443905 29.52288743459471 C38.77854339940827 40.73862248712347, 39.88446977735244 49.51741983191222, 44.4161406598914 56.947749136288486 M35.02652831527038 29.543662579514464 C37.25898826011395 37.84291524342282, 41.14055860648253 48.89291048409518, 43.29068280122462 57.971453432266436" stroke="#1864ab" stroke-width="2" fill="none"></path></g></g><g transform="translate(10 36.07145472935281) rotate(0 116.5 45)"><text x="116.5" y="32" font-family="Virgil, Segoe UI Emoji" font-size="36px" fill="#1864ab" text-anchor="middle" style="white-space: pre;" direction="ltr">findTargetIn</text><text x="116.5" y="77" font-family="Virgil, Segoe UI Emoji" font-size="36px" fill="#1864ab" text-anchor="middle" style="white-space: pre;" direction="ltr">Configuration</text></g><g transform="translate(170.20465087890716 11.335850306919838) rotate(0 244.63483537946433 195.6953212193082)"><path d="M245.45972140422288 0.8619147808677787 C306.81874584986525 50.00885117057945, 372.41587141149654 101.50079749578718, 490.02171965669754 195.20638923568714 M244.63247035028797 -0.6939125476982875 C327.0149098444136 63.979830873277045, 408.2145745269733 129.8739363945031, 489.47405359016454 195.75023653578867 M488.98647223852527 195.2679514324931 C396.1383942883438 267.52342348930796, 305.35881717661687 341.6150457000093, 244.80446214619107 390.2637180279211 M489.215389938766 195.80641147801853 C394.1058091847153 272.16819080739697, 298.15558315620893 349.3555799468096, 244.41889895214788 390.6809130097998 M244.98586952094595 391.8623583279679 C174.94489357005247 334.48522694244133, 101.26207918537146 275.4422179134154, -0.057206940826209494 196.10422716439777 M244.69222581299678 391.96745863672106 C169.51779560561164 330.231262067217, 94.42536777339436 271.55781903917136, -0.2029754946703391 195.80832264241516 M1.1545897856486036 196.3870863921218 C91.04214302643626 123.87674610511246, 185.21387072443838 48.939673797715955, 245.32522162964293 -0.4115285475161826 M-0.4345945805151542 196.34228443932528 C72.39787238196678 138.17385095447818, 144.21204015457906 81.66123972671609, 245.15040275709634 0.10647470773605626" stroke="#1864ab" stroke-width="2" fill="none"></path></g><g transform="translate(293.42125592913067 162.6860089983261) rotate(0 125.5 45)"><text x="125.5" y="32" font-family="Virgil, Segoe UI Emoji" font-size="36px" fill="#000000" text-anchor="middle" style="white-space: pre;" direction="ltr">is targetName</text><text x="125.5" y="77" font-family="Virgil, Segoe UI Emoji" font-size="36px" fill="#000000" text-anchor="middle" style="white-space: pre;" direction="ltr">specified?</text></g><g><g transform="translate(418.61185534747995 402.90256478561855) rotate(0 2.6537525924366037 78.15942455072985)"><path d="M0.7270266629755497 -0.8959515072405337 C1.588846620207221 25.241885956094624, 4.805947926070246 130.84574900351942, 5.657928253174964 157.21480060870027 M-0.3504230683017522 1.2480700061190872 C0.2691818298283374 26.992789577010104, 3.5822054791242657 129.6940924741096, 4.460399635448325 155.37089432611327" stroke="#1864ab" stroke-width="2" fill="none"></path></g><g transform="translate(418.61185534747995 402.90256478561855) rotate(0 2.6537525924366037 78.15942455072985)"><path d="M-8.216002072681956 126.74119090903638 C-1.9393290637337302 136.45614528567052, 2.042068955715428 145.31190865998505, 5.141062628790009 155.65424592255812 M-6.408939243768626 127.47100538443861 C-2.821486516694348 138.84429734686816, 1.992531069627847 148.62851605620673, 5.230715906559694 155.3076171430127" stroke="#1864ab" stroke-width="2" fill="none"></path></g><g transform="translate(418.61185534747995 402.90256478561855) rotate(0 2.6537525924366037 78.15942455072985)"><path d="M12.294082227550728 126.06558423116195 C11.587531013372345 136.13490094582565, 8.583521610200052 145.22076517361853, 5.141062628790009 155.65424592255812 M14.101145056464059 126.79539870656419 C9.824707462294219 138.22753245012044, 6.778325496077948 148.27067444571756, 5.230715906559694 155.3076171430127" stroke="#1864ab" stroke-width="2" fill="none"></path></g></g><g transform="translate(467.5110473632822 450.63723318917437) rotate(0 27.99999999999997 22.5)"><text x="28" y="32" font-family="Virgil, Segoe UI Emoji" font-size="36px" fill="#087f5b" text-anchor="middle" style="white-space: pre;" direction="ltr">yes</text></g><g transform="translate(177.34329368954855 559.3674171084449) rotate(0 244.63483537946433 195.6953212193082)"><path d="M244.65743371748965 0.7587344683950568 C295.298000207221 39.28820201582807, 345.43684183678573 79.37736996254692, 488.625349024975 195.717054083592 M245.18581100587298 -0.4666904253360735 C304.6989243577103 49.8168204324654, 366.1788262967828 99.28182431681186, 489.04285347252016 195.94576759658764 M490.05587696991626 196.88923065466153 C422.2795367815484 247.86036800786593, 356.6922281978371 302.0260657601385, 244.0979427280956 391.3764930561807 M488.72524406861356 195.6770523888679 C408.8333116357035 262.7384690601106, 327.5197956811955 328.355505933653, 244.6209113972485 391.08245651943554 M245.82805533665095 392.6354474845396 C150.1068249075642 315.3920336671417, 58.239568450252705 242.2518198974023, -1.1568253688960461 197.15562006334434 M245.56807969289068 391.1539733542623 C165.5103262070472 327.81110845757706, 85.12342974849155 264.09245307735347, -0.008964503744376186 195.56501761672706 M1.243549300538645 197.07341290613593 C84.393634360594 128.94739593017144, 168.19937259249008 59.19407990149861, 245.7317744651626 1.0297488737580303 M0.5646258037101627 195.56244660436886 C90.09532376171624 122.68194598790645, 180.0979865691513 50.74643885011716, 245.18264281457925 0.655215231213367" stroke="#1864ab" stroke-width="2" fill="none"></path></g><g transform="translate(313.25858561198174 686.051365443639) rotate(0 106.5 67.5)"><text x="106.5" y="32" font-family="Virgil, Segoe UI Emoji" font-size="36px" fill="#000000" text-anchor="middle" style="white-space: pre;" direction="ltr">is target</text><text x="106.5" y="77" font-family="Virgil, Segoe UI Emoji" font-size="36px" fill="#000000" text-anchor="middle" style="white-space: pre;" direction="ltr">found in</text><text x="106.5" y="122" font-family="Virgil, Segoe UI Emoji" font-size="36px" fill="#000000" text-anchor="middle" style="white-space: pre;" direction="ltr">local config?</text></g><g><g transform="translate(424.00824141882526 950.4146665978196) rotate(0 4.454948157330421 147.55319224879213)"><path d="M0.6399938844144344 0.34479456916451445 C2.217940386981521 49.663983235568956, 7.876632749293019 246.65725737616992, 9.393044370268308 295.6261767249474 M-0.483148055607453 -0.5197922273632138 C0.9064394018713422 48.499930982138245, 6.654447723099981 244.70385801205055, 8.22378918028886 293.9889012269689" stroke="#1864ab" stroke-width="2" fill="none"></path></g><g transform="translate(424.00824141882526 950.4146665978196) rotate(0 4.454948157330421 147.55319224879213)"><path d="M-2.312997778041222 265.42025619221033 C1.8502011199109663 274.12329551188606, 2.6680828265723298 282.038675289585, 7.1955666752856455 292.6603622168316 M-3.02497990345762 265.33108021726014 C0.3864853851731169 272.1500001499209, 1.4146741910337557 277.5261134950956, 7.951878157104202 294.57190108038617" stroke="#1864ab" stroke-width="2" fill="none"></path></g><g transform="translate(424.00824141882526 950.4146665978196) rotate(0 4.454948157330421 147.55319224879213)"><path d="M18.19875788756221 264.79745453804975 C16.33450437107935 273.7928557904746, 11.12643334515818 281.8912025160511, 7.1955666752856455 292.6603622168316 M17.48677576214581 264.70827856309955 C16.70168417284134 271.5200929579521, 13.53168921915155 277.0236764150248, 7.951878157104202 294.57190108038617" stroke="#1864ab" stroke-width="2" fill="none"></path></g></g><g transform="translate(449.6995907738122 1044.5629795619425) rotate(0 27.99999999999997 22.5)"><text x="28" y="32" font-family="Virgil, Segoe UI Emoji" font-size="36px" fill="#087f5b" text-anchor="middle" style="white-space: pre;" direction="ltr">yes</text></g><g transform="translate(336.163411458336 1269.497003464472) rotate(0 107.5 45)"><text x="107.5" y="32" font-family="Virgil, Segoe UI Emoji" font-size="36px" fill="#5c940d" text-anchor="middle" style="white-space: pre;" direction="ltr">return</text><text x="107.5" y="77" font-family="Virgil, Segoe UI Emoji" font-size="36px" fill="#5c940d" text-anchor="middle" style="white-space: pre;" direction="ltr">local target</text></g><g transform="translate(707.4818318684922 700.0500837053578) rotate(0 18.5 22.5)"><text x="18.5" y="32" font-family="Virgil, Segoe UI Emoji" font-size="36px" fill="#a61e4d" text-anchor="middle" style="white-space: pre;" direction="ltr">no</text></g><g transform="translate(1915.2682548321661 144.11897205171226) rotate(0 18.5 22.5)"><text x="18.5" y="32" font-family="Virgil, Segoe UI Emoji" font-size="36px" fill="#a61e4d" text-anchor="middle" style="white-space: pre;" direction="ltr">no</text></g><g transform="translate(2016.2904832547854 10) rotate(0 244.63483537946422 195.6953212193082)"><path d="M245.35724963648406 -0.45363457281696723 C313.7146142872307 54.11065521866, 384.5789583664193 110.58590185799025, 490.055175699197 196.88843748944342 M244.72121544571695 -0.45062633287758636 C296.9466088439231 43.1732842210043, 350.7963632876231 86.38903232923533, 488.7257296797565 195.6773404477771 M490.4105299937556 195.24182279449698 C416.45704795306676 255.08837739280688, 345.91405718476034 310.82708346836, 245.8291630872076 392.6371127518491 M489.742840447553 195.42081353034123 C423.16567389516905 250.58203799919073, 356.01166269967047 303.65907812767745, 245.56883965489823 391.15365674461276 M245.03216870027433 391.37271343112764 C165.42414529290417 328.8658469286844, 88.42389749945508 264.29130139645173, 1.2446589596780286 197.0743707470845 M244.3512646407036 391.7568561641734 C166.61985812094926 327.6542411596382, 87.30684507890533 264.9239385110285, 0.565129637521293 195.56205616136495 M0.9150080252489327 196.36528562915848 C60.39866591661419 148.9030386132427, 117.53673834222714 103.7870123371686, 243.7812483424346 -0.3300642918151224 M0.5444696167066074 195.81052809363194 C67.4478488112052 142.42485176855388, 136.284773773915 88.86945107819622, 244.84809008057593 -0.4009313686340778" stroke="#1864ab" stroke-width="2" fill="none"></path></g><g transform="translate(2110.205775177219 136.68394833519415) rotate(0 148.5 67.5)"><text x="148.5" y="32" font-family="Virgil, Segoe UI Emoji" font-size="36px" fill="#000000" text-anchor="middle" style="white-space: pre;" direction="ltr">is defaultTarget</text><text x="148.5" y="77" font-family="Virgil, Segoe UI Emoji" font-size="36px" fill="#000000" text-anchor="middle" style="white-space: pre;" direction="ltr">specified in</text><text x="148.5" y="122" font-family="Virgil, Segoe UI Emoji" font-size="36px" fill="#000000" text-anchor="middle" style="white-space: pre;" direction="ltr">global config?</text></g><g><g transform="translate(2270.4172623941204 402.04140610680224) rotate(0 2.291189912947857 112.34536034289727)"><path d="M-0.38264157548546784 -0.09149025902152053 C0.2594328471332725 37.504260835521805, 4.02217717285451 188.22079518672518, 4.965021401381454 225.87584727614154 M1.617332868045196 -1.1851265903469175 C1.9754850436713483 36.03983992497896, 3.3652511693741807 186.61568118771044, 3.845671993147916 224.1205624350157" stroke="#1864ab" stroke-width="2" fill="none"></path></g><g transform="translate(2270.4172623941204 402.04140610680224) rotate(0 2.291189912947857 112.34536034289727)"><path d="M-6.869937130074304 195.49791593556003 C-1.332649628835087 207.0742325483894, 2.7539352955484855 219.37834516088185, 2.2132634301002687 222.12681556202438 M-6.727390351529521 196.3734630708088 C-3.038824440662467 205.2270930969866, -1.4183701838086886 212.06626280818617, 3.8054423168565696 224.19385817542639" stroke="#1864ab" stroke-width="2" fill="none"></path></g><g transform="translate(2270.4172623941204 402.04140610680224) rotate(0 2.291189912947857 112.34536034289727)"><path d="M13.650085198511558 195.27726684723842 C11.129414998634797 206.87480379177418, 7.157488133963315 219.26556851657972, 2.2132634301002687 222.12681556202438 M13.792631977056342 196.1528139824872 C11.483670707242467 204.94092957659308, 7.107462563352667 211.84458060611234, 3.8054423168565696 224.19385817542639" stroke="#1864ab" stroke-width="2" fill="none"></path></g></g><g transform="translate(2291.805085681737 469.1775251116069) rotate(0 28 22.5)"><text x="28" y="32" font-family="Virgil, Segoe UI Emoji" font-size="36px" fill="#087f5b" text-anchor="middle" style="white-space: pre;" direction="ltr">yes</text></g><g transform="translate(2091.594008672808 777.2806222098206) rotate(0 194 45)"><text x="194" y="32" font-family="Virgil, Segoe UI Emoji" font-size="36px" fill="#000000" text-anchor="middle" style="white-space: pre;" direction="ltr">is default target</text><text x="194" y="77" font-family="Virgil, Segoe UI Emoji" font-size="36px" fill="#000000" text-anchor="middle" style="white-space: pre;" direction="ltr">found in global config?</text></g><g><g transform="translate(2276.8548206147716 1019.9729527064719) rotate(0 3.1506658609432634 129.12800658215247)"><path d="M-0.016890833526849836 0.6625748254358768 C1.3351961998358093 43.42397051258458, 6.809983461208503 214.35269718684623, 7.786228972354365 257.267973946993 M-1.4848972504679114 -0.03517733654938637 C-0.1967084696520398 42.7836696646314, 5.632992628140237 215.04819414855348, 7.231617781713067 258.29119050085427" stroke="#1864ab" stroke-width="2" fill="none"></path></g><g transform="translate(2276.8548206147716 1019.9729527064719) rotate(0 3.1506658609432634 129.12800658215247)"><path d="M-2.9074588451292334 231.726762011282 C-2.414715719025726 236.07335016576195, 2.129677510855268 244.87099627154572, 5.964604049369155 258.2713165278721 M-4.77644234669767 230.0241578012778 C-0.11081379750085496 239.7150961624204, 3.7340823687584512 249.70968478226766, 6.699156617193876 257.85831799499573" stroke="#1864ab" stroke-width="2" fill="none"></path></g><g transform="translate(2276.8548206147716 1019.9729527064719) rotate(0 3.1506658609432634 129.12800658215247)"><path d="M17.601115309587907 231.006769979168 C12.503134480014868 235.54689164200246, 11.452606201727473 244.54095798040672, 5.964604049369155 258.2713165278721 M15.73213180801947 229.3041657691638 C13.569919906623902 239.4221941775625, 10.5819229680416 249.6566643491285, 6.699156617193876 257.85831799499573" stroke="#1864ab" stroke-width="2" fill="none"></path></g></g><g transform="translate(2298.295564197362 1118.411080496653) rotate(0 28 22.5)"><text x="28" y="32" font-family="Virgil, Segoe UI Emoji" font-size="36px" fill="#087f5b" text-anchor="middle" style="white-space: pre;" direction="ltr">yes</text></g><g transform="translate(2106.5519118536104 1302.1384102957581) rotate(0 190 45)"><text x="190" y="32" font-family="Virgil, Segoe UI Emoji" font-size="36px" fill="#5c940d" text-anchor="middle" style="white-space: pre;" direction="ltr">return</text><text x="190" y="77" font-family="Virgil, Segoe UI Emoji" font-size="36px" fill="#5c940d" text-anchor="middle" style="white-space: pre;" direction="ltr">global default target</text></g><g><g transform="translate(2526.2412961020364 829.1852918667519) rotate(0 55.23548278951762 20.651721919823785)"><path d="M-0.09318369850516328 -0.4703105427324772 C18.36328453078472 6.6515818800535955, 91.25755985749778 34.391863129539864, 109.75936423791072 41.53510641292164 M-1.6012438695598394 -1.7628275230061263 C17.32638629952983 5.667060975231321, 93.4118469549053 36.024342087209675, 112.07220944859519 43.066271362653545" stroke="#1864ab" stroke-width="2" fill="none"></path></g><g transform="translate(2526.2412961020364 829.1852918667519) rotate(0 55.23548278951762 20.651721919823785)"><path d="M81.29603242897912 41.120748818448305 C88.6029568221627 43.22267515799838, 96.57607273227828 44.53305820551432, 110.54282519691124 42.15905832668262 M82.88109871210082 41.85530138627303 C90.52454782316735 43.38225417194107, 100.63426406624973 42.11357754889593, 112.65452337176039 43.941656470126084" stroke="#1864ab" stroke-width="2" fill="none"></path></g><g transform="translate(2526.2412961020364 829.1852918667519) rotate(0 55.23548278951762 20.651721919823785)"><path d="M88.74904084471325 22.000794112936163 C94.23777870156286 28.272340484078754, 100.58330982487372 33.75813105393028, 110.54282519691124 42.15905832668262 M90.33410712783495 22.735346680760884 C95.785651038145 29.925740744364532, 103.6894479681033 34.31613157412224, 112.65452337176039 43.941656470126084" stroke="#1864ab" stroke-width="2" fill="none"></path></g></g><g transform="translate(2582.875142415368 777.1983787899926) rotate(0 18.5 22.5)"><text x="18.5" y="32" font-family="Virgil, Segoe UI Emoji" font-size="36px" fill="#a61e4d" text-anchor="middle" style="white-space: pre;" direction="ltr">no</text></g><g transform="translate(2647.514383951827 821.1492047991069) rotate(0 49 45)"><text x="49" y="32" font-family="Virgil, Segoe UI Emoji" font-size="36px" fill="#c92a2a" text-anchor="middle" style="white-space: pre;" direction="ltr">throw</text><text x="49" y="77" font-family="Virgil, Segoe UI Emoji" font-size="36px" fill="#c92a2a" text-anchor="middle" style="white-space: pre;" direction="ltr">error</text></g><g transform="translate(2553.427307128909 175.86339750744037) rotate(0 18.5 22.5)"><text x="18.5" y="32" font-family="Virgil, Segoe UI Emoji" font-size="36px" fill="#a61e4d" text-anchor="middle" style="white-space: pre;" direction="ltr">no</text></g><g transform="translate(2634.833333333335 227.71034361824206) rotate(0 49 45)"><text x="49" y="32" font-family="Virgil, Segoe UI Emoji" font-size="36px" fill="#c92a2a" text-anchor="middle" style="white-space: pre;" direction="ltr">throw</text><text x="49" y="77" font-family="Virgil, Segoe UI Emoji" font-size="36px" fill="#c92a2a" text-anchor="middle" style="white-space: pre;" direction="ltr">error</text></g><g transform="translate(1409.3333333333346 714.210343618242) rotate(0 49 45)"><text x="49" y="32" font-family="Virgil, Segoe UI Emoji" font-size="36px" fill="#c92a2a" text-anchor="middle" style="white-space: pre;" direction="ltr">throw</text><text x="49" y="77" font-family="Virgil, Segoe UI Emoji" font-size="36px" fill="#c92a2a" text-anchor="middle" style="white-space: pre;" direction="ltr">error</text></g><g><g transform="translate(1289.338790520862 751.9553190246584) rotate(0 52.2288911033736 1.8209105241030556)"><path d="M-0.859627441316843 0.923780194669962 C16.794295238589804 1.458385050522247, 87.42067004310866 2.92826630883892, 105.31740964806413 3.278660196673627 M0.8899294226523491 0.3631608515325935 C18.420822356443786 0.5388909801953379, 86.69631362551792 1.38963278563735, 104.26109706414638 1.4739219028712613" stroke="#1864ab" stroke-width="2" fill="none"></path></g><g transform="translate(1289.338790520862 751.9553190246584) rotate(0 52.2288911033736 1.8209105241030556)"><path d="M77.51761756629755 11.133491734104181 C84.03740607673689 10.8460554240302, 90.67288369466586 4.9629792050278505, 105.37713660476504 1.8185871061147554 M75.63284984582175 11.510856647105838 C87.20228918386337 8.517049107574724, 97.69002228176794 3.7556112976582874, 104.15292275687455 1.7919355839700801" stroke="#1864ab" stroke-width="2" fill="none"></path></g><g transform="translate(1289.338790520862 751.9553190246584) rotate(0 52.2288911033736 1.8209105241030556)"><path d="M77.70462784472699 -9.386864733111517 C84.18990578355753 -4.5560279657496405, 90.77872630734892 -5.31949144758991, 105.37713660476504 1.8185871061147554 M75.81986012425119 -9.00949982010986 C87.19326901766905 -4.477521075773323, 97.61242520554165 -1.714117732067793, 104.15292275687455 1.7919355839700801" stroke="#1864ab" stroke-width="2" fill="none"></path></g></g><g><g transform="translate(2519.0980203252066 216.3964991986104) rotate(0 54.06968893137969 29.921570426432936)"><path d="M-0.15924287661910053 0.38710271939635277 C18.087751668367947 10.073582607412254, 91.40045340197366 49.150160762190396, 109.84136197894313 59.26087847369263 M-1.701984116183594 -0.45527229825966065 C16.306136801319607 9.862335317085972, 90.01945019510781 50.36436214016523, 108.59688470552177 60.29841315112548" stroke="#1864ab" stroke-width="2" fill="none"></path></g><g transform="translate(2519.0980203252066 216.3964991986104) rotate(0 54.06968893137969 29.921570426432936)"><path d="M79.57370487451578 54.908882838270735 C87.17297345476777 57.49077080278392, 99.94625032042586 58.12267032590661, 109.5451723452887 59.09107234067755 M78.92930312491978 54.99202808976836 C88.45860618539486 58.26906803282966, 97.3556826051105 58.95283113519755, 107.89104126992137 60.52993328421848" stroke="#1864ab" stroke-width="2" fill="none"></path></g><g transform="translate(2519.0980203252066 216.3964991986104) rotate(0 54.06968893137969 29.921570426432936)"><path d="M89.3742063259073 36.87918029809797 C93.91138631426213 45.396955165814234, 103.45099204722099 51.977747092501914, 109.5451723452887 59.09107234067755 M88.7298045763113 36.9623255495956 C95.2676944113362 45.96747389617397, 101.00325702410493 52.46738363130512, 107.89104126992137 60.52993328421848" stroke="#1864ab" stroke-width="2" fill="none"></path></g></g><g><g transform="translate(1865.5301227417701 993.9162881348884) rotate(0 55.17859259447755 20.675117142426075)"><path d="M-0.39752112664282324 -0.7423041757196187 C17.902331571202513 6.391269887214618, 92.36845034321664 34.98649926397063, 110.7547063155981 42.09253846057186 M1.5946415525302293 1.4823821866884828 C19.673433036166962 8.320085186151879, 92.05595494562654 33.88116219221659, 109.93010611706845 40.25635523532012" stroke="#1864ab" stroke-width="2" fill="none"></path></g><g transform="translate(1865.5301227417701 993.9162881348884) rotate(0 55.17859259447755 20.675117142426075)"><path d="M78.69386495311889 40.88477586335177 C92.230236665357 39.503205557644364, 103.28784556588033 41.11250807448041, 111.63574725822977 41.25988023352304 M79.68085719213965 39.98714563469077 C90.06615541284137 39.82898977040846, 100.54775861412554 41.177314015897345, 110.7870986793699 40.144330088947505" stroke="#1864ab" stroke-width="2" fill="none"></path></g><g transform="translate(1865.5301227417701 993.9162881348884) rotate(0 55.17859259447755 20.675117142426075)"><path d="M85.56027437456292 21.546409230077288 C96.37569148413786 27.483565412323486, 104.82658813643211 36.434340607189824, 111.63574725822977 41.25988023352304 M86.54726661358369 20.648779001416287 C94.29157043731888 27.3758253398781, 102.31665103692151 35.64263227384207, 110.7870986793699 40.144330088947505" stroke="#1864ab" stroke-width="2" fill="none"></path></g></g><g transform="translate(1922.1639690551017 941.9293750581292) rotate(0 18.5 22.5)"><text x="18.5" y="32" font-family="Virgil, Segoe UI Emoji" font-size="36px" fill="#a61e4d" text-anchor="middle" style="white-space: pre;" direction="ltr">no</text></g><g transform="translate(1986.8032105915606 985.8802010672434) rotate(0 49 45)"><text x="49" y="32" font-family="Virgil, Segoe UI Emoji" font-size="36px" fill="#c92a2a" text-anchor="middle" style="white-space: pre;" direction="ltr">throw</text><text x="49" y="77" font-family="Virgil, Segoe UI Emoji" font-size="36px" fill="#c92a2a" text-anchor="middle" style="white-space: pre;" direction="ltr">error</text></g></svg>