<svg version="1.1" xmlns="http://www.w3.org/2000/svg" viewBox="0 0 2842.514383951827 1538.2228567940865" width="2842.514383951827" height="1538.2228567940865">
  <!-- svg-source:excalidraw -->
  
  <defs>
    <style>
      @font-face {
        font-family: "Virgil";
        src: url("https://excalidraw.com/Virgil.woff2");
      }
      @font-face {
        font-family: "Cascadia";
        src: url("https://excalidraw.com/Cascadia.woff2");
      }
    </style>
  </defs>
  <rect x="0" y="0" width="2842.514383951827" height="1538.2228567940865" fill="#ffffff"></rect><g transform="translate(1019.6132376534613 140.94110107421966) rotate(0 18.5 22.5)"><text x="18.5" y="32" font-family="Virgil, Segoe UI Emoji" font-size="36px" fill="#a61e4d" text-anchor="middle" style="white-space: pre;" direction="ltr">no</text></g><g transform="translate(813.595043364028 556.5763142903643) rotate(0 244.63483537946433 195.6953212193082)"><path d="M244.717054083592 -0.7313956036682262 C336.0641542880316 73.3289664368046, 429.47818456849717 147.649958265972, 489.0743073186126 194.87408076972815 M244.94576759658764 -0.19341584723003674 C341.6930635487231 77.51608964982358, 437.59937559118384 154.9423768619771, 488.68908803457 195.2909036270663 M489.255521376493 196.47234693840812 C418.33964476791414 253.29798705028895, 344.86746824471874 308.45222695754836, 244.94271652923945 391.4950090353616 M488.9614848397478 196.57758784757814 C416.23925498756745 254.36922098541538, 341.3700050229178 315.224936340582, 244.7967529700744 391.19870866012565 M246.15562006334434 391.7780742404076 C151.03964763217328 316.66491115761414, 60.20879312199629 241.95707275699658, 0.32551183538990813 195.58810423229104 M244.56501761672706 391.73323230938394 C173.77673145959176 333.69883665626423, 101.96913944018064 277.36566687216936, 0.15053696632627 196.10656971855107 M1.0297488737580303 196.97350788180006 C53.881778653587986 153.85897202162744, 108.0637500816356 109.69718086659385, 244.18278136477187 0.32573120276927997 M0.655215231213367 195.36480527286176 C48.20123006473406 156.46036805073902, 97.64874131029103 116.06363295531914, 244.8264293961048 -0.3186710766041405" stroke="#1864ab" stroke-width="2" fill="none"></path></g><g transform="translate(2117.646150134862 762.1216256277885) rotate(0 244.63483537946422 195.6953212193082)"><path d="M245.82939933264208 -0.02002465634256723 C311.1711330187159 53.91108134307184, 374.71638621886603 104.15463870816511, 489.1591983221286 195.4424308914339 M245.49917994718632 0.649314836143779 C302.24845475976434 45.48422029159439, 360.57002951640953 92.24228201939137, 489.3114148533906 196.56992081249365 M490.4085204016966 195.06273926869082 C429.22217750596667 246.8707420775385, 367.7120304661311 293.45380403800743, 246.10437569273657 392.3369818158651 M489.0018018056799 196.2317796614123 C437.5598127810234 238.95870547277997, 383.74475207999546 281.7113367247447, 244.95091521878624 391.4067483059723 M246.23808027390697 390.5911548480751 C173.9034754250076 334.93351861930057, 99.7687919901399 275.7014475595375, -1.1995915304941684 194.70252928140715 M244.8895693311674 391.90161801840344 C158.43911170801994 323.4652200682428, 71.34590437901889 255.38508500326614, -0.6942473934943851 196.45791225820724 M-0.958949144861669 197.1395458959705 C77.29620400271423 133.38682077890732, 157.9669919659471 69.24020090674789, 244.57619321657998 1.0889392334132149 M0.6327496002007647 196.3722308593628 C68.16668709011775 142.23101675259127, 135.2557068660152 89.6725353281006, 245.2921270187311 0.4118035719322801" stroke="#1864ab" stroke-width="2" fill="none"></path></g><g transform="translate(1441.1414998372402 777.5394054594492) rotate(0 244.63483537946433 195.6953212193082)"><path d="M246.1842857974938 -0.7350592994240241 C303.7411393653127 48.0665409746459, 364.69496095949484 95.14380434795108, 490.02840522732373 196.40876566247175 M244.67783913302316 -0.14147295820400133 C310.4122123857562 51.5553578309814, 374.8037678616477 104.13159688574075, 488.8029803335926 195.90231827984198 M488.81563119738803 195.89143835967468 C436.22355150058024 240.42026478343374, 382.64199672847985 283.52974040455433, 245.88923065466153 390.22844034291217 M488.8186421229765 195.99292530878216 C440.4675148577432 234.95725013716648, 391.9509292941808 273.052416462557, 244.6770523888679 391.3620007032361 M244.24283570888548 390.77509406460996 C170.77635895007273 333.8743331330819, 93.39097235002481 273.5157374022582, 1.2448050459232363 195.59404901065932 M244.421587315552 391.9684524702886 C177.22111053912894 338.93112939496376, 110.36374123700854 286.4170012382329, -0.23666908435409564 196.16275591769497 M-0.01791302312061259 195.1308108389697 C67.18394614358779 144.07489673004775, 132.10398772755417 90.95876132617381, 246.07341290613593 0.3008055141926878 M0.36588723258130235 196.514874436879 C78.83351727298022 135.73988302657915, 156.02949508085675 74.67707166815137, 244.56244660436886 -0.40860931761406794" stroke="#1864ab" stroke-width="2" fill="none"></path></g><g><g transform="translate(1933.1949954792171 971.5634408507713) rotate(0 91.36699498691871 -1.067613128816788)"><path d="M-0.8257619462907314 -1.15490939989686 C29.926952602296133 -1.5167352468744335, 153.06361162080896 -1.2324553494530013, 183.55975192012824 -1.4898675916942465 M0.9415743025671692 0.8531592198181897 C31.70469569547195 0.1301154428217144, 153.08465382839088 -2.6140531624762557, 183.1200941853002 -2.988385477451857" stroke="#1864ab" stroke-width="2" fill="none"></path></g><g transform="translate(1933.1949954792171 971.5634408507713) rotate(0 91.36699498691871 -1.067613128816788)"><path d="M153.19740442282244 9.401485200514177 C163.20983347500942 4.872543022136499, 167.36158318337897 2.9800661801388184, 181.92000774440916 -4.360973728237923 M155.9335418520747 7.491332636688927 C162.34552982155 4.031901222380824, 171.24983323821107 1.9247353432972698, 184.0455628815815 -3.6889472821487743" stroke="#1864ab" stroke-width="2" fill="none"></path></g><g transform="translate(1933.1949954792171 971.5634408507713) rotate(0 91.36699498691871 -1.067613128816788)"><path d="M152.82101324801909 -11.116271306213577 C163.03281025732468 -11.122793106690098, 167.26747469545361 -8.495439650028892, 181.92000774440916 -4.360973728237923 M155.55715067727135 -13.026423870038826 C161.8732540615928 -10.546478148510166, 170.8865706437111 -6.711141294770647, 184.0455628815815 -3.6889472821487743" stroke="#1864ab" stroke-width="2" fill="none"></path></g></g><g><g transform="translate(1061.2599910933047 947.623563779739) rotate(0 5.082458191791034 147.10906881335723)"><path d="M-0.6169335030019283 -0.7971234060823917 C0.9187244577713349 48.411864330680324, 7.063124341521432 245.79290583387592, 8.670461226855242 295.01526103279684 M1.2600376785825937 1.398782860385254 C3.1951351098258085 50.250449652183086, 9.073847401248308 243.99572191005217, 10.781849886583931 293.0572547964392" stroke="#1864ab" stroke-width="2" fill="none"></path></g><g transform="translate(1061.2599910933047 947.623563779739) rotate(0 5.082458191791034 147.10906881335723)"><path d="M-1.715257562133571 263.3071500057416 C2.9250837287322975 271.0509610569712, 4.97273496865924 277.87229815688613, 12.636141329365618 293.5594893112419 M0.19628130142102584 265.1996326496886 C3.1386393381948645 273.3337981545343, 4.764730015110565 279.1776482675434, 10.704196804496295 292.66532934416216" stroke="#1864ab" stroke-width="2" fill="none"></path></g><g transform="translate(1061.2599910933047 947.623563779739) rotate(0 5.082458191791034 147.10906881335723)"><path d="M18.795177755648616 262.6422850112403 C18.209994905607967 270.44999700708485, 15.033444340142843 277.4406815075206, 12.636141329365618 293.5594893112419 M20.706716619203213 264.5347676551873 C18.14944926204513 272.7914221081027, 14.276421450616922 278.81353130371383, 10.704196804496295 292.66532934416216" stroke="#1864ab" stroke-width="2" fill="none"></path></g></g><g transform="translate(941.0103352864614 683.2602626255584) rotate(0 116 67.5)"><text x="116" y="32" font-family="Virgil, Segoe UI Emoji" font-size="36px" fill="#000000" text-anchor="middle" style="white-space: pre;" direction="ltr">is target</text><text x="116" y="77" font-family="Virgil, Segoe UI Emoji" font-size="36px" fill="#000000" text-anchor="middle" style="white-space: pre;" direction="ltr">found in</text><text x="116" y="122" font-family="Virgil, Segoe UI Emoji" font-size="36px" fill="#000000" text-anchor="middle" style="white-space: pre;" direction="ltr">global config?</text></g><g transform="translate(1086.9513404482918 1041.7718767438628) rotate(0 28 22.5)"><text x="28" y="32" font-family="Virgil, Segoe UI Emoji" font-size="36px" fill="#087f5b" text-anchor="middle" style="white-space: pre;" direction="ltr">yes</text></g><g transform="translate(964.4151611328159 1266.7059006463924) rotate(0 116.5 45)"><text x="116.5" y="32" font-family="Virgil, Segoe UI Emoji" font-size="36px" fill="#5c940d" text-anchor="middle" style="white-space: pre;" direction="ltr">return</text><text x="116.5" y="77" font-family="Virgil, Segoe UI Emoji" font-size="36px" fill="#5c940d" text-anchor="middle" style="white-space: pre;" direction="ltr">global target</text></g><g transform="translate(1334.730936686201 693.1983787899926) rotate(0 18.5 22.5)"><text x="18.5" y="32" font-family="Virgil, Segoe UI Emoji" font-size="36px" fill="#a61e4d" text-anchor="middle" style="white-space: pre;" direction="ltr">no</text></g><g><g transform="translate(667.2073826033266 754.1195906948415) rotate(0 72.47797294425135 -1.3535207894245787)"><path d="M0.9243795253336431 -0.07593261972069731 C25.03448140409095 -0.4442254696223244, 121.00414261651552 -2.1121698995098996, 145.00540584170838 -2.6311089591283237 M-0.04945995320565988 -1.1614011904131623 C23.824896039881466 -1.3093412258192259, 119.7900582052055 -1.030788246065058, 143.7720299457444 -1.218983036491263" stroke="#1864ab" stroke-width="2" fill="none"></path></g><g transform="translate(667.2073826033266 754.1195906948415) rotate(0 72.47797294425135 -1.3535207894245787)"><path d="M115.47338894768151 8.187021368441032 C124.49946638448569 4.4577628426284575, 132.8297942162642 0.1895942591991897, 144.29446966771616 -2.5311637381344916 M115.85106057128402 8.773964285177039 C123.67006632568365 5.607786853849882, 132.39406225153695 2.9136840905489363, 144.32417563360764 -0.5944841904818894" stroke="#1864ab" stroke-width="2" fill="none"></path></g><g transform="translate(667.2073826033266 754.1195906948415) rotate(0 72.47797294425135 -1.3535207894245787)"><path d="M115.43609805512628 -12.33415334879121 C124.40237894171042 -9.317714250965622, 132.74496551602485 -6.839897952943732, 144.29446966771616 -2.5311637381344916 M115.81376967872879 -11.747210432055203 C123.48104006240244 -9.039187215686137, 132.21571116066704 -5.858743590376065, 144.32417563360764 -0.5944841904818894" stroke="#1864ab" stroke-width="2" fill="none"></path></g></g><g transform="translate(1436.8728521437874 11.283534458704708) rotate(0 244.63483537946433 195.6953212193082)"><path d="M245.75204889776887 -0.7936107643128592 C309.7085618084497 51.665879617699204, 374.0163781314965 101.76756843080325, 487.8818456635321 196.44643933586343 M245.20438283123588 -0.24976346421133133 C316.97387956952326 56.609278020126574, 387.8654299324964 114.09378287347025, 488.90397295709454 195.52749157571048 M489.0741329051197 194.87307558930468 C440.95804266665914 235.20757747530894, 389.18864794881375 274.73245705955924, 244.61282295603706 392.2207822293215 M488.6885697110765 195.29027057118338 C417.04539721190406 255.14919378345846, 343.7125794082977 313.7633193658108, 245.23617346920406 391.8902680358078 M244.9427930591738 391.4948696030142 C150.2814443984044 315.2867687308514, 53.576484694043955 237.0788411100917, 1.153632396209334 197.1373281552039 M244.79702450532966 391.1989650810316 C187.36911246800847 347.63207061570586, 128.8658833106849 301.9813475624422, 0.19371590089558494 195.7324889160132 M0.32522162964293677 195.58847145248382 C80.26566925377828 131.43061129978395, 161.82177102205713 65.34843108845146, 245.68456887865057 1.2369764799073748 M0.1504027570963439 196.10647470773606 C57.907567577734746 146.25650666800854, 118.59822275320046 99.63913255874488, 245.48675394090003 -0.11033221583873086" stroke="#1864ab" stroke-width="2" fill="none"></path></g><g><g transform="translate(1675.1995116135993 405.49840162970963) rotate(0 4.85680229399884 185.84284180571603)"><path d="M-0.6694121025502682 0.4083977960050107 C1.110128285104315 62.320752183381444, 8.672617690832817 310.52006375582874, 10.383016690547947 372.1084809178634 M1.1800078142713755 -0.4227973064314574 C2.8421476150228635 61.11582668163439, 8.303933101519473 308.66625301144074, 9.524226979800869 370.5103534456583" stroke="#1864ab" stroke-width="2" fill="none"></path></g><g transform="translate(1675.1995116135993 405.49840162970963) rotate(0 4.85680229399884 185.84284180571603)"><path d="M-0.6497985109350815 342.8263001229185 C3.4725568269103353 349.2746218158116, 2.8468524880430977 358.6401096966374, 9.399835904577184 370.02876132319295 M-0.5601452331653967 342.47967134337307 C2.132309191127031 352.2639765481764, 5.9064211192551195 361.68039701794777, 8.570947810524512 370.7715733066442" stroke="#1864ab" stroke-width="2" fill="none"></path></g><g transform="translate(1675.1995116135993 405.49840162970963) rotate(0 4.85680229399884 185.84284180571603)"><path d="M19.86681753526558 342.39217065073115 C18.339525858794286 348.8456362579253, 12.061879572069493 358.3307186454247, 9.399835904577184 370.02876132319295 M19.956470813035263 342.0455418711857 C15.40097873596624 351.91119998219733, 11.925896783696839 361.48101264422854, 8.570947810524512 370.7715733066442" stroke="#1864ab" stroke-width="2" fill="none"></path></g></g><g><g transform="translate(1684.5505022089808 1169.66911636362) rotate(0 1.4631901709602744 122.44433819360813)"><path d="M-0.620023836940527 -1.1706329561769961 C-0.05729163344146859 39.423053725055325, 2.9629207851766526 203.486679153102, 3.5464041788612577 244.56106728086752 M1.255324919326231 0.8291807964909821 C1.6781099584685808 42.143296815046014, 2.678033916534009 205.6526429040772, 2.796059214846891 246.05930934339335" stroke="#1864ab" stroke-width="2" fill="none"></path></g><g transform="translate(1684.5505022089808 1169.66911636362) rotate(0 1.4631901709602744 122.44433819360813)"><path d="M-9.551972942902001 218.54616125157756 C-4.224656400929519 226.33158548121085, 0.2327843223816055 236.22875242378052, 2.0938061153159557 247.5999418856161 M-8.115029268441948 217.25427111281735 C-5.628344233883167 226.46460256068823, -2.2778513893847654 234.33022194968885, 2.0046301403657614 246.9864550647842" stroke="#1864ab" stroke-width="2" fill="none"></path></g><g transform="translate(1684.5505022089808 1169.66911636362) rotate(0 1.4631901709602744 122.44433819360813)"><path d="M10.968995118816718 218.44680232767058 C9.850115908547695 226.15741283200012, 7.860533760299119 236.08579512722739, 2.0938061153159557 247.5999418856161 M12.405938793276771 217.15491218891037 C8.865734312684587 226.3536088920041, 6.18978764401163 234.24840724289476, 2.0046301403657614 246.9864550647842" stroke="#1864ab" stroke-width="2" fill="none"></path></g></g><g><g transform="translate(661.7926745982718 208.14714677567736) rotate(0 387.98695545999266 0.9204823076807429)"><path d="M-0.4752060078084469 0.530797078460455 C128.8118090363279 1.0263061656752634, 647.0242608497217 1.8570448260503056, 776.4491169277936 2.0771030160483175 M1.4761721087526531 -0.23613840068690473 C130.51580628797078 -0.012359781447235735, 646.4331665554848 0.2943677131300964, 775.3466030055922 0.28756442891212375" stroke="#1864ab" stroke-width="2" fill="none"></path></g><g transform="translate(661.7926745982718 208.14714677567736) rotate(0 387.98695545999266 0.9204823076807429)"><path d="M748.0370015060008 10.048213544922865 C758.452578295809 5.838181855929202, 768.2424277189078 3.540848685378026, 777.0115149947148 -0.7458086326554212 M746.911543647334 11.071917840900815 C753.115350914844 8.129706733965914, 759.3061895515402 6.342264206840114, 774.8936975574386 0.08867660576256187" stroke="#1864ab" stroke-width="2" fill="none"></path></g><g transform="translate(661.7926745982718 208.14714677567736) rotate(0 387.98695545999266 0.9204823076807429)"><path d="M748.0439741074468 -10.472993870058106 C758.3038199552757 -7.283402200813061, 768.0911551590106 -2.1810844012747195, 777.0115149947148 -0.7458086326554212 M746.9185162487801 -9.449289574080156 C753.1853095982862 -8.237042934877758, 759.3747366509687 -5.870023379219306, 774.8936975574386 0.08867660576256187" stroke="#1864ab" stroke-width="2" fill="none"></path></g></g><g transform="translate(1533.8429623558418 144.99575369698687) rotate(0 148.5 67.5)"><text x="148.5" y="32" font-family="Virgil, Segoe UI Emoji" font-size="36px" fill="#000000" text-anchor="middle" style="white-space: pre;" direction="ltr">is defaultTarget</text><text x="148.5" y="77" font-family="Virgil, Segoe UI Emoji" font-size="36px" fill="#000000" text-anchor="middle" style="white-space: pre;" direction="ltr">specified in</text><text x="148.5" y="122" font-family="Virgil, Segoe UI Emoji" font-size="36px" fill="#000000" text-anchor="middle" style="white-space: pre;" direction="ltr">local config?</text></g><g transform="translate(1695.6337687174487 471.26197160993433) rotate(0 28 22.5)"><text x="28" y="32" font-family="Virgil, Segoe UI Emoji" font-size="36px" fill="#087f5b" text-anchor="middle" style="white-space: pre;" direction="ltr">yes</text></g><g transform="translate(1504.9226917085202 913.3650687081472) rotate(0 184.5 45)"><text x="184.5" y="32" font-family="Virgil, Segoe UI Emoji" font-size="36px" fill="#000000" text-anchor="middle" style="white-space: pre;" direction="ltr">is default target</text><text x="184.5" y="77" font-family="Virgil, Segoe UI Emoji" font-size="36px" fill="#000000" text-anchor="middle" style="white-space: pre;" direction="ltr">found in local config?</text></g><g transform="translate(1702.1242472330737 1254.4955269949796) rotate(0 28 22.5)"><text x="28" y="32" font-family="Virgil, Segoe UI Emoji" font-size="36px" fill="#087f5b" text-anchor="middle" style="white-space: pre;" direction="ltr">yes</text></g><g transform="translate(1519.3805948893228 1438.2228567940865) rotate(0 181 45)"><text x="181" y="32" font-family="Virgil, Segoe UI Emoji" font-size="36px" fill="#5c940d" text-anchor="middle" style="white-space: pre;" direction="ltr">return</text><text x="181" y="77" font-family="Virgil, Segoe UI Emoji" font-size="36px" fill="#5c940d" text-anchor="middle" style="white-space: pre;" direction="ltr">local default target</text></g><g><g transform="translate(1927.082485770893 207.32013240802655) rotate(0 87.60914782294924 -1.5444530581914933)"><path d="M-0.16478941217064857 -0.9497148893773555 C29.271089653765202 -1.2002661672342922, 147.6623530288291 -2.001660727018668, 176.92873822879815 -2.290616088127558 M-1.7104425828997047 1.1660808483604344 C27.637337409566506 0.6051541175678018, 147.20189802864274 -3.824974721789538, 176.56479456964718 -4.254986964743425" stroke="#1864ab" stroke-width="2" fill="none"></path></g><g transform="translate(1927.082485770893 207.32013240802655) rotate(0 87.60914782294924 -1.5444530581914933)"><path d="M147.0819635307372 8.626158641406048 C158.3381968916337 2.5763451604058627, 166.78227318276163 -0.9258405069979867, 177.73079427648173 -4.2831383539548415 M147.6679482432038 6.694214116536726 C158.1145104896739 2.4491818590137857, 168.40697579471276 -0.5024854326451518, 177.2665598703532 -3.342156584020545" stroke="#1864ab" stroke-width="2" fill="none"></path></g><g transform="translate(1927.082485770893 207.32013240802655) rotate(0 87.60914782294924 -1.5444530581914933)"><path d="M146.5213919951371 -11.887392049279226 C157.82585263188133 -11.246515834983818, 166.45274362554952 -8.058781609207333, 177.73079427648173 -4.2831383539548415 M147.1073767076037 -13.819336574148549 C157.88116901770476 -10.773081359928767, 168.37275749903569 -6.438036588719555, 177.2665598703532 -3.342156584020545" stroke="#1864ab" stroke-width="2" fill="none"></path></g></g><g><g transform="translate(118.66261190586795 141.1894445577904) rotate(0 21.881638386939812 29.237553731204372)"><path d="M-0.4605680845677852 -0.8820101715624332 C6.759381806385137 9.00950193673416, 36.736439675746446 49.531217555703925, 44.223844858447414 59.35711763397122 M1.4984949416946622 1.269330543028191 C8.52392405607774 10.788436848419225, 36.434585734020885 47.82959652086008, 43.531478862457305 57.43812519525441" stroke="#1864ab" stroke-width="2" fill="none"></path></g><g transform="translate(118.66261190586795 141.1894445577904) rotate(0 21.881638386939812 29.237553731204372)"><path d="M16.972454499050954 41.80165395596187 C28.50691222118438 48.47171671400966, 35.78441167365226 52.641734798042265, 44.4161406598914 56.947749136288486 M18.584147249877432 41.82242910088162 C26.68700946850654 45.73300221125915, 36.37048579771239 52.45027649996885, 43.29068280122462 57.971453432266436" stroke="#1864ab" stroke-width="2" fill="none"></path></g><g transform="translate(118.66261190586795 141.1894445577904) rotate(0 21.881638386939812 29.237553731204372)"><path d="M33.414835564443905 29.52288743459471 C38.77854339940827 40.73862248712347, 39.88446977735244 49.51741983191222, 44.4161406598914 56.947749136288486 M35.02652831527038 29.543662579514464 C37.25898826011395 37.84291524342282, 41.14055860648253 48.89291048409518, 43.29068280122462 57.971453432266436" stroke="#1864ab" stroke-width="2" fill="none"></path></g></g><g transform="translate(10 36.07145472935281) rotate(0 116.5 45)"><text x="116.5" y="32" font-family="Virgil, Segoe UI Emoji" font-size="36px" fill="#1864ab" text-anchor="middle" style="white-space: pre;" direction="ltr">findTargetIn</text><text x="116.5" y="77" font-family="Virgil, Segoe UI Emoji" font-size="36px" fill="#1864ab" text-anchor="middle" style="white-space: pre;" direction="ltr">Configuration</text></g><g transform="translate(170.20465087890716 11.335850306919838) rotate(0 244.63483537946433 195.6953212193082)"><path d="M245.45972140422288 0.8619147808677787 C306.81874584986525 50.00885117057945, 372.41587141149654 101.50079749578718, 490.02171965669754 195.20638923568714 M244.63247035028797 -0.6939125476982875 C327.0149098444136 63.979830873277045, 408.2145745269733 129.8739363945031, 489.47405359016454 195.75023653578867 M488.98647223852527 195.2679514324931 C396.1383942883438 267.52342348930796, 305.35881717661687 341.6150457000093, 244.80446214619107 390.2637180279211 M489.215389938766 195.80641147801853 C394.1058091847153 272.16819080739697, 298.15558315620893 349.3555799468096, 244.41889895214788 390.6809130097998 M244.98586952094595 391.8623583279679 C174.94489357005247 334.48522694244133, 101.26207918537146 275.4422179134154, -0.057206940826209494 196.10422716439777 M244.69222581299678 391.96745863672106 C169.51779560561164 330.231262067217, 94.42536777339436 271.55781903917136, -0.2029754946703391 195.80832264241516 M1.1545897856486036 196.3870863921218 C91.04214302643626 123.87674610511246, 185.21387072443838 48.939673797715955, 245.32522162964293 -0.4115285475161826 M-0.4345945805151542 196.34228443932528 C72.39787238196678 138.17385095447818, 144.21204015457906 81.66123972671609, 245.15040275709634 0.10647470773605626" stroke="#1864ab" stroke-width="2" fill="none"></path></g><g transform="translate(293.42125592913067 162.6860089983261) rotate(0 125.5 45)"><text x="125.5" y="32" font-family="Virgil, Segoe UI Emoji" font-size="36px" fill="#000000" text-anchor="middle" style="white-space: pre;" direction="ltr">is targetName</text><text x="125.5" y="77" font-family="Virgil, Segoe UI Emoji" font-size="36px" fill="#000000" text-anchor="middle" style="white-space: pre;" direction="ltr">specified?</text></g><g><g transform="translate(418.61185534747995 402.90256478561855) rotate(0 2.6537525924366037 78.15942455072985)"><path d="M0.7270266629755497 -0.8959515072405337 C1.588846620207221 25.241885956094624, 4.805947926070246 130.84574900351942, 5.657928253174964 157.21480060870027 M-0.3504230683017522 1.2480700061190872 C0.2691818298283374 26.992789577010104, 3.5822054791242657 129.6940924741096, 4.460399635448325 155.37089432611327" stroke="#1864ab" stroke-width="2" fill="none"></path></g><g transform="translate(418.61185534747995 402.90256478561855) rotate(0 2.6537525924366037 78.15942455072985)"><path d="M-8.216002072681956 126.74119090903638 C-1.9393290637337302 136.45614528567052, 2.042068955715428 145.31190865998505, 5.141062628790009 155.65424592255812 M-6.408939243768626 127.47100538443861 C-2.821486516694348 138.84429734686816, 1.992531069627847 148.62851605620673, 5.230715906559694 155.3076171430127" stroke="#1864ab" stroke-width="2" fill="none"></path></g><g transform="translate(418.61185534747995 402.90256478561855) rotate(0 2.6537525924366037 78.15942455072985)"><path d="M12.294082227550728 126.06558423116195 C11.587531013372345 136.13490094582565, 8.583521610200052 145.22076517361853, 5.141062628790009 155.65424592255812 M14.101145056464059 126.79539870656419 C9.824707462294219 138.22753245012044, 6.778325496077948 148.27067444571756, 5.230715906559694 155.3076171430127" stroke="#1864ab" stroke-width="2" fill="none"></path></g></g><g transform="translate(467.5110473632822 450.63723318917437) rotate(0 27.99999999999997 22.5)"><text x="28" y="32" font-family="Virgil, Segoe UI Emoji" font-size="36px" fill="#087f5b" text-anchor="middle" style="white-space: pre;" direction="ltr">yes</text></g><g transform="translate(177.34329368954855 559.3674171084449) rotate(0 244.63483537946433 195.6953212193082)"><path d="M244.65743371748965 0.7587344683950568 C295.298000207221 39.28820201582807, 345.43684183678573 79.37736996254692, 488.625349024975 195.717054083592 M245.18581100587298 -0.4666904253360735 C304.6989243577103 49.8168204324654, 366.1788262967828 99.28182431681186, 489.04285347252016 195.94576759658764 M490.05587696991626 196.88923065466153 C422.2795367815484 247.86036800786593, 356.6922281978371 302.0260657601385, 244.0979427280956 391.3764930561807 M488.72524406861356 195.6770523888679 C408.8333116357035 262.7384690601106, 327.5197956811955 328.355505933653, 244.6209113972485 391.08245651943554 M245.82805533665095 392.6354474845396 C150.1068249075642 315.3920336671417, 58.239568450252705 242.2518198974023, -1.1568253688960461 197.15562006334434 M245.56807969289068 391.1539733542623 C165.5103262070472 327.81110845757706, 85.12342974849155 264.09245307735347, -0.008964503744376186 195.56501761672706 M1.243549300538645 197.07341290613593 C84.393634360594 128.94739593017144, 168.19937259249008 59.19407990149861, 245.7317744651626 1.0297488737580303 M0.5646258037101627 195.56244660436886 C90.09532376171624 122.68194598790645, 180.0979865691513 50.74643885011716, 245.18264281457925 0.655215231213367" stroke="#1864ab" stroke-width="2" fill="none"></path></g><g transform="translate(313.25858561198174 686.051365443639) rotate(0 106.5 67.5)"><text x="106.5" y="32" font-family="Virgil, Segoe UI Emoji" font-size="36px" fill="#000000" text-anchor="middle" style="white-space: pre;" direction="ltr">is target</text><text x="106.5" y="77" font-family="Virgil, Segoe UI Emoji" font-size="36px" fill="#000000" text-anchor="middle" style="white-space: pre;" direction="ltr">found in</text><text x="106.5" y="122" font-family="Virgil, Segoe UI Emoji" font-size="36px" fill="#000000" text-anchor="middle" style="white-space: pre;" direction="ltr">local config?</text></g><g><g transform="translate(424.00824141882526 950.4146665978196) rotate(0 4.454948157330421 147.55319224879213)"><path d="M0.6399938844144344 0.34479456916451445 C2.217940386981521 49.663983235568956, 7.876632749293019 246.65725737616992, 9.393044370268308 295.6261767249474 M-0.483148055607453 -0.5197922273632138 C0.9064394018713422 48.499930982138245, 6.654447723099981 244.70385801205055, 8.22378918028886 293.9889012269689" stroke="#1864ab" stroke-width="2" fill="none"></path></g><g transform="translate(424.00824141882526 950.4146665978196) rotate(0 4.454948157330421 147.55319224879213)"><path d="M-2.312997778041222 265.42025619221033 C1.8502011199109663 274.12329551188606, 2.6680828265723298 282.038675289585, 7.1955666752856455 292.6603622168316 M-3.02497990345762 265.33108021726014 C0.3864853851731169 272.1500001499209, 1.4146741910337557 277.5261134950956, 7.951878157104202 294.57190108038617" stroke="#1864ab" stroke-width="2" fill="none"></path></g><g transform="translate(424.00824141882526 950.4146665978196) rotate(0 4.454948157330421 147.55319224879213)"><path d="M18.19875788756221 264.79745453804975 C16.33450437107935 273.7928557904746, 11.12643334515818 281.8912025160511, 7.1955666752856455 292.6603622168316 M17.48677576214581 264.70827856309955 C16.70168417284134 271.5200929579521, 13.53168921915155 277.0236764150248, 7.951878157104202 294.57190108038617" stroke="#1864ab" stroke-width="2" fill="none"></path></g></g><g transform="translate(449.6995907738122 1044.5629795619425) rotate(0 27.99999999999997 22.5)"><text x="28" y="32" font-family="Virgil, Segoe UI Emoji" font-size="36px" fill="#087f5b" text-anchor="middle" style="white-space: pre;" direction="ltr">yes</text></g><g transform="translate(336.163411458336 1269.497003464472) rotate(0 107.5 45)"><text x="107.5" y="32" font-family="Virgil, Segoe UI Emoji" font-size="36px" fill="#5c940d" text-anchor="middle" style="white-space: pre;" direction="ltr">return</text><text x="107.5" y="77" font-family="Virgil, Segoe UI Emoji" font-size="36px" fill="#5c940d" text-anchor="middle" style="white-space: pre;" direction="ltr">local target</text></g><g transform="translate(707.4818318684922 700.0500837053578) rotate(0 18.5 22.5)"><text x="18.5" y="32" font-family="Virgil, Segoe UI Emoji" font-size="36px" fill="#a61e4d" text-anchor="middle" style="white-space: pre;" direction="ltr">no</text></g><g transform="translate(1977.2682548321661 150.11897205171226) rotate(0 18.5 22.5)"><text x="18.5" y="32" font-family="Virgil, Segoe UI Emoji" font-size="36px" fill="#a61e4d" text-anchor="middle" style="white-space: pre;" direction="ltr">no</text></g><g transform="translate(2103.2904832547856 10) rotate(0 244.63483537946422 195.6953212193082)"><path d="M245.35724963648406 -0.45363457281696723 C313.7146142872307 54.11065521866, 384.5789583664193 110.58590185799025, 490.055175699197 196.88843748944342 M244.72121544571695 -0.45062633287758636 C296.9466088439231 43.1732842210043, 350.7963632876231 86.38903232923533, 488.7257296797565 195.6773404477771 M490.4105299937556 195.24182279449698 C416.45704795306676 255.08837739280688, 345.91405718476034 310.82708346836, 245.8291630872076 392.6371127518491 M489.742840447553 195.42081353034123 C423.16567389516905 250.58203799919073, 356.01166269967047 303.65907812767745, 245.56883965489823 391.15365674461276 M245.03216870027433 391.37271343112764 C165.42414529290417 328.8658469286844, 88.42389749945508 264.29130139645173, 1.2446589596780286 197.0743707470845 M244.3512646407036 391.7568561641734 C166.61985812094926 327.6542411596382, 87.30684507890533 264.9239385110285, 0.565129637521293 195.56205616136495 M0.9150080252489327 196.36528562915848 C60.39866591661419 148.9030386132427, 117.53673834222714 103.7870123371686, 243.7812483424346 -0.3300642918151224 M0.5444696167066074 195.81052809363194 C67.4478488112052 142.42485176855388, 136.284773773915 88.86945107819622, 244.84809008057593 -0.4009313686340778" stroke="#1864ab" stroke-width="2" fill="none"></path></g><g transform="translate(2197.205775177219 136.68394833519415) rotate(0 148.5 67.5)"><text x="148.5" y="32" font-family="Virgil, Segoe UI Emoji" font-size="36px" fill="#000000" text-anchor="middle" style="white-space: pre;" direction="ltr">is defaultTarget</text><text x="148.5" y="77" font-family="Virgil, Segoe UI Emoji" font-size="36px" fill="#000000" text-anchor="middle" style="white-space: pre;" direction="ltr">specified in</text><text x="148.5" y="122" font-family="Virgil, Segoe UI Emoji" font-size="36px" fill="#000000" text-anchor="middle" style="white-space: pre;" direction="ltr">global config?</text></g><g><g transform="translate(2356.6178572909157 402.6808891886508) rotate(0 3.1103880406874396 179.34390901600023)"><path d="M-0.38264157548546784 -0.09149025902152053 C0.5324988897131333 59.83711039322279, 5.387507385753815 299.88504297523014, 6.6034176568606195 359.87294462234746 M1.617332868045196 -1.1851265903469175 C2.2485510862512093 58.37268948267996, 4.730581382273485 298.2799289762154, 5.484068248627081 358.1176597812216" stroke="#1864ab" stroke-width="2" fill="none"></path></g><g transform="translate(2356.6178572909157 402.6808891886508) rotate(0 3.1103880406874396 179.34390901600023)"><path d="M-5.246968149310724 329.5008217908373 C0.2963632813490209 341.07490651015115, 4.389006721321796 353.37673803648886, 3.851659685579434 356.1239129082303 M-5.10442137076594 330.37636892608606 C-1.41132431000175 339.2283992372502, 0.2136383317237156 346.0658715005915, 5.443838572335735 358.1909555216323" stroke="#1864ab" stroke-width="2" fill="none"></path></g><g transform="translate(2356.6178572909157 402.6808891886508) rotate(0 3.1103880406874396 179.34390901600023)"><path d="M15.272929838260588 329.2688973085028 C12.758380712792887 340.8686307675422, 8.792561194238937 353.26154241772844, 3.851659685579434 356.1239129082303 M15.415476616805371 330.1444444437516 C13.111038642507715 338.93425617184687, 8.739375220247668 345.83950481480207, 5.443838572335735 358.1909555216323" stroke="#1864ab" stroke-width="2" fill="none"></path></g></g><g transform="translate(2378.805085681737 469.1775251116069) rotate(0 28 22.5)"><text x="28" y="32" font-family="Virgil, Segoe UI Emoji" font-size="36px" fill="#087f5b" text-anchor="middle" style="white-space: pre;" direction="ltr">yes</text></g><g transform="translate(2178.594008672808 911.2806222098206) rotate(0 194 45)"><text x="194" y="32" font-family="Virgil, Segoe UI Emoji" font-size="36px" fill="#000000" text-anchor="middle" style="white-space: pre;" direction="ltr">is default target</text><text x="194" y="77" font-family="Virgil, Segoe UI Emoji" font-size="36px" fill="#000000" text-anchor="middle" style="white-space: pre;" direction="ltr">found in global config?</text></g><g><g transform="translate(2363.8548206147716 1153.972952706472) rotate(0 3.1506658609432634 129.12800658215247)"><path d="M-0.016890833526849836 0.6625748254358768 C1.3351961998358093 43.42397051258458, 6.809983461208503 214.35269718684623, 7.786228972354365 257.267973946993 M-1.4848972504679114 -0.03517733654938637 C-0.1967084696520398 42.7836696646314, 5.632992628140237 215.04819414855348, 7.231617781713067 258.29119050085427" stroke="#1864ab" stroke-width="2" fill="none"></path></g><g transform="translate(2363.8548206147716 1153.972952706472) rotate(0 3.1506658609432634 129.12800658215247)"><path d="M-2.9074588451292334 231.726762011282 C-2.414715719025726 236.07335016576195, 2.129677510855268 244.87099627154572, 5.964604049369155 258.2713165278721 M-4.77644234669767 230.0241578012778 C-0.11081379750085496 239.7150961624204, 3.7340823687584512 249.70968478226766, 6.699156617193876 257.85831799499573" stroke="#1864ab" stroke-width="2" fill="none"></path></g><g transform="translate(2363.8548206147716 1153.972952706472) rotate(0 3.1506658609432634 129.12800658215247)"><path d="M17.601115309587907 231.006769979168 C12.503134480014868 235.54689164200246, 11.452606201727473 244.54095798040672, 5.964604049369155 258.2713165278721 M15.73213180801947 229.3041657691638 C13.569919906623902 239.4221941775625, 10.5819229680416 249.6566643491285, 6.699156617193876 257.85831799499573" stroke="#1864ab" stroke-width="2" fill="none"></path></g></g><g transform="translate(2385.295564197362 1252.411080496653) rotate(0 28 22.5)"><text x="28" y="32" font-family="Virgil, Segoe UI Emoji" font-size="36px" fill="#087f5b" text-anchor="middle" style="white-space: pre;" direction="ltr">yes</text></g><g transform="translate(2193.5519118536104 1436.1384102957581) rotate(0 190 45)"><text x="190" y="32" font-family="Virgil, Segoe UI Emoji" font-size="36px" fill="#5c940d" text-anchor="middle" style="white-space: pre;" direction="ltr">return</text><text x="190" y="77" font-family="Virgil, Segoe UI Emoji" font-size="36px" fill="#5c940d" text-anchor="middle" style="white-space: pre;" direction="ltr">global default target</text></g><g transform="translate(1988.2084757487003 888.6983787899931) rotate(0 18.5 22.5)"><text x="18.5" y="32" font-family="Virgil, Segoe UI Emoji" font-size="36px" fill="#a61e4d" text-anchor="middle" style="white-space: pre;" direction="ltr">no</text></g><g><g transform="translate(2613.737605591821 962.9842186517649) rotate(0 54.9873280446252 20.701671224071333)"><path d="M-0.09318369850516328 -0.4703105427324772 C18.280566282487246 6.6682316481361115, 90.84396861601043 34.475111969952444, 109.26305474812588 41.63500502141674 M-1.6012438695598394 -1.7628275230061263 C17.243668051232362 5.683710743313837, 92.99825571341793 36.107590927622255, 111.57589995881035 43.16616997114864" stroke="#1864ab" stroke-width="2" fill="none"></path></g><g transform="translate(2613.737605591821 962.9842186517649) rotate(0 54.9873280446252 20.701671224071333)"><path d="M80.80133119458085 41.15293759701886 C88.10722939633328 43.26964913137786, 96.07999409632612 44.5948186225626, 110.0465157071264 42.258956935177714 M82.38639747770256 41.887490164843584 C90.02942021053364 43.434484448845566, 100.1386604469594 42.185848380323826, 112.15821388197556 44.04155507862118" stroke="#1864ab" stroke-width="2" fill="none"></path></g><g transform="translate(2613.737605591821 962.9842186517649) rotate(0 54.9873280446252 20.701671224071333)"><path d="M88.29748638975988 22.04985774910874 C93.77594390092945 28.33247068607807, 100.11170143889579 33.82936257542028, 110.0465157071264 42.258956935177714 M89.88255267288159 22.78441031693346 C95.32088738066791 29.989876629440975, 103.21143784823313 34.39531344344735, 112.15821388197556 44.04155507862118" stroke="#1864ab" stroke-width="2" fill="none"></path></g></g><g transform="translate(2669.875142415368 911.1983787899926) rotate(0 18.5 22.5)"><text x="18.5" y="32" font-family="Virgil, Segoe UI Emoji" font-size="36px" fill="#a61e4d" text-anchor="middle" style="white-space: pre;" direction="ltr">no</text></g><g transform="translate(2734.514383951827 955.1492047991069) rotate(0 49 45)"><text x="49" y="32" font-family="Virgil, Segoe UI Emoji" font-size="36px" fill="#c92a2a" text-anchor="middle" style="white-space: pre;" direction="ltr">throw</text><text x="49" y="77" font-family="Virgil, Segoe UI Emoji" font-size="36px" fill="#c92a2a" text-anchor="middle" style="white-space: pre;" direction="ltr">error</text></g><g transform="translate(2640.427307128909 175.86339750744037) rotate(0 18.5 22.5)"><text x="18.5" y="32" font-family="Virgil, Segoe UI Emoji" font-size="36px" fill="#a61e4d" text-anchor="middle" style="white-space: pre;" direction="ltr">no</text></g><g transform="translate(2721.833333333335 227.71034361824206) rotate(0 49 45)"><text x="49" y="32" font-family="Virgil, Segoe UI Emoji" font-size="36px" fill="#c92a2a" text-anchor="middle" style="white-space: pre;" direction="ltr">throw</text><text x="49" y="77" font-family="Virgil, Segoe UI Emoji" font-size="36px" fill="#c92a2a" text-anchor="middle" style="white-space: pre;" direction="ltr">error</text></g><g transform="translate(1439.3333333333346 710.210343618242) rotate(0 49 45)"><text x="49" y="32" font-family="Virgil, Segoe UI Emoji" font-size="36px" fill="#c92a2a" text-anchor="middle" style="white-space: pre;" direction="ltr">throw</text><text x="49" y="77" font-family="Virgil, Segoe UI Emoji" font-size="36px" fill="#c92a2a" text-anchor="middle" style="white-space: pre;" direction="ltr">error</text></g><g><g transform="translate(1304.8643266887827 750.6771487832343) rotate(0 59.4661230194132 0.7570401976621497)"><path d="M-0.859627441316843 0.923780194669962 C19.20670587726967 1.1885099085038595, 99.482723236508 1.5788905987469812, 119.79187348014334 1.6594093445633007 M0.8899294226523491 0.3631608515325935 C20.83323299512366 0.26901583817695013, 98.75836681891725 0.04025707554541136, 118.73556089622559 -0.14532894923906503" stroke="#1864ab" stroke-width="2" fill="none"></path></g><g transform="translate(1304.8643266887827 750.6771487832343) rotate(0 59.4661230194132 0.7570401976621497)"><path d="M92.14337905818041 9.932144194903907 C98.62517302893013 9.539361581098312, 105.22290347480237 3.5520228885324716, 119.85160043684425 0.199336254004429 M90.25861133770462 10.309509107905564 C101.77516525904682 7.163220527564326, 112.20741731017932 2.2485370344042988, 118.62738658895375 0.17268473185975375" stroke="#1864ab" stroke-width="2" fill="none"></path></g><g transform="translate(1304.8643266887827 750.6771487832343) rotate(0 59.4661230194132 0.7570401976621497)"><path d="M92.02636933677016 -10.588730813509729 C98.54950282966995 -5.860933113192474, 105.1764259682257 -6.728529698030675, 119.85160043684425 0.199336254004429 M90.14160161629437 -10.211365900508072 C101.5736063979338 -5.83321453230706, 112.04876606465515 -3.2228667221197824, 118.62738658895375 0.17268473185975375" stroke="#1864ab" stroke-width="2" fill="none"></path></g></g><g><g transform="translate(2606.0980203252066 216.3964991986104) rotate(0 54.06968893137969 29.921570426432936)"><path d="M-0.15924287661910053 0.38710271939635277 C18.087751668367947 10.073582607412254, 91.40045340197366 49.150160762190396, 109.84136197894313 59.26087847369263 M-1.701984116183594 -0.45527229825966065 C16.306136801319607 9.862335317085972, 90.01945019510781 50.36436214016523, 108.59688470552177 60.29841315112548" stroke="#1864ab" stroke-width="2" fill="none"></path></g><g transform="translate(2606.0980203252066 216.3964991986104) rotate(0 54.06968893137969 29.921570426432936)"><path d="M79.57370487451578 54.908882838270735 C87.17297345476777 57.49077080278392, 99.94625032042586 58.12267032590661, 109.5451723452887 59.09107234067755 M78.92930312491978 54.99202808976836 C88.45860618539486 58.26906803282966, 97.3556826051105 58.95283113519755, 107.89104126992137 60.52993328421848" stroke="#1864ab" stroke-width="2" fill="none"></path></g><g transform="translate(2606.0980203252066 216.3964991986104) rotate(0 54.06968893137969 29.921570426432936)"><path d="M89.3742063259073 36.87918029809797 C93.91138631426213 45.396955165814234, 103.45099204722099 51.977747092501914, 109.5451723452887 59.09107234067755 M88.7298045763113 36.9623255495956 C95.2676944113362 45.96747389617397, 101.00325702410493 52.46738363130512, 107.89104126992137 60.52993328421848" stroke="#1864ab" stroke-width="2" fill="none"></path></g></g></svg>