<svg version="1.1" xmlns="http://www.w3.org/2000/svg" viewBox="0 0 3593.7261608157164 1507.497003464472" width="3593.7261608157164" height="1507.497003464472">
  <!-- svg-source:excalidraw -->
  
  <defs>
    <style>
      @font-face {
        font-family: "Virgil";
        src: url("https://excalidraw.com/Virgil.woff2");
      }
      @font-face {
        font-family: "Cascadia";
        src: url("https://excalidraw.com/Cascadia.woff2");
      }
    </style>
  </defs>
  <rect x="0" y="0" width="3593.7261608157164" height="1507.497003464472" fill="#ffffff"></rect><g transform="translate(1512.825014517351 140.94110107421966) rotate(0 18.5 22.5)"><text x="18.5" y="32" font-family="Virgil, Segoe UI Emoji" font-size="36px" fill="#a61e4d" text-anchor="middle" style="white-space: pre;" direction="ltr">no</text></g><g transform="translate(1179.3068202279178 694.5763142903643) rotate(0 244.63483537946433 195.6953212193082)"><path d="M244.717054083592 -0.7313956036682262 C336.0641542880316 73.3289664368046, 429.47818456849717 147.649958265972, 489.0743073186126 194.87408076972815 M244.94576759658764 -0.19341584723003674 C341.6930635487231 77.51608964982358, 437.59937559118384 154.9423768619771, 488.68908803457 195.2909036270663 M489.255521376493 196.47234693840812 C418.33964476791414 253.29798705028895, 344.86746824471874 308.45222695754836, 244.94271652923945 391.4950090353616 M488.9614848397478 196.57758784757814 C416.23925498756745 254.36922098541538, 341.3700050229178 315.224936340582, 244.7967529700744 391.19870866012565 M246.15562006334434 391.7780742404076 C151.03964763217328 316.66491115761414, 60.20879312199629 241.95707275699658, 0.32551183538990813 195.58810423229104 M244.56501761672706 391.73323230938394 C173.77673145959176 333.69883665626423, 101.96913944018064 277.36566687216936, 0.15053696632627 196.10656971855107 M1.0297488737580303 196.97350788180006 C53.881778653587986 153.85897202162744, 108.0637500816356 109.69718086659385, 244.18278136477187 0.32573120276927997 M0.655215231213367 195.36480527286176 C48.20123006473406 156.46036805073902, 97.64874131029103 116.06363295531914, 244.8264293961048 -0.3186710766041405" stroke="#1864ab" stroke-width="2" fill="none"></path></g><g transform="translate(2796.3579269987517 687.1216256277885) rotate(0 244.63483537946422 195.6953212193082)"><path d="M245.82939933264208 -0.02002465634256723 C311.1711330187159 53.91108134307184, 374.71638621886603 104.15463870816511, 489.1591983221286 195.4424308914339 M245.49917994718632 0.649314836143779 C302.24845475976434 45.48422029159439, 360.57002951640953 92.24228201939137, 489.3114148533906 196.56992081249365 M490.4085204016966 195.06273926869082 C429.22217750596667 246.8707420775385, 367.7120304661311 293.45380403800743, 246.10437569273657 392.3369818158651 M489.0018018056799 196.2317796614123 C437.5598127810234 238.95870547277997, 383.74475207999546 281.7113367247447, 244.95091521878624 391.4067483059723 M246.23808027390697 390.5911548480751 C173.9034754250076 334.93351861930057, 99.7687919901399 275.7014475595375, -1.1995915304941684 194.70252928140715 M244.8895693311674 391.90161801840344 C158.43911170801994 323.4652200682428, 71.34590437901889 255.38508500326614, -0.6942473934943851 196.45791225820724 M-0.958949144861669 197.1395458959705 C77.29620400271423 133.38682077890732, 157.9669919659471 69.24020090674789, 244.57619321657998 1.0889392334132149 M0.6327496002007647 196.3722308593628 C68.16668709011775 142.23101675259127, 135.2557068660152 89.6725353281006, 245.2921270187311 0.4118035719322801" stroke="#1864ab" stroke-width="2" fill="none"></path></g><g><g transform="translate(1672.5169617509712 884.6062979519611) rotate(0 73.62698688770354 -0.3513599452916196)"><path d="M0.3544668830931186 0.8709137879312039 C24.58243867466747 0.900730412974023, 121.36362108041342 0.5705003339750723, 145.9438809274077 0.2970401340667195 M-0.9185767326224595 0.2825395812559872 C23.630421886942898 -0.061629839717409984, 123.42271790981101 -1.5664478142885463, 148.17255050802933 -1.5736336785145069" stroke="#1864ab" stroke-width="2" fill="none"></path></g><g transform="translate(1672.5169617509712 884.6062979519611) rotate(0 73.62698688770354 -0.3513599452916196)"><path d="M121.52479706076916 7.400727905710124 C130.64127953644595 6.814264196115454, 138.64179932081765 2.2760393414416633, 147.354943377174 -0.2874471957571769 M120.65458174353476 9.237149684135698 C131.40868105688824 5.986129227410148, 140.87009529118328 0.5743198438336279, 148.60677554386066 -1.096929064277556" stroke="#1864ab" stroke-width="2" fill="none"></path></g><g transform="translate(1672.5169617509712 884.6062979519611) rotate(0 73.62698688770354 -0.3513599452916196)"><path d="M121.34398134641519 -13.119684080000159 C130.54359085800021 -6.565492722386294, 138.60703526704742 -3.9625283999958736, 147.354943377174 -0.2874471957571769 M120.4737660291808 -11.283262301574585 C131.1551538519013 -6.829643680481286, 140.6844436761151 -4.538388792883384, 148.60677554386066 -1.096929064277556" stroke="#1864ab" stroke-width="2" fill="none"></path></g></g><g transform="translate(2050.85327670113 702.5394054594492) rotate(0 244.63483537946433 195.6953212193082)"><path d="M246.1842857974938 -0.7350592994240241 C303.7411393653127 48.0665409746459, 364.69496095949484 95.14380434795108, 490.02840522732373 196.40876566247175 M244.67783913302316 -0.14147295820400133 C310.4122123857562 51.5553578309814, 374.8037678616477 104.13159688574075, 488.8029803335926 195.90231827984198 M488.81563119738803 195.89143835967468 C436.22355150058024 240.42026478343374, 382.64199672847985 283.52974040455433, 245.88923065466153 390.22844034291217 M488.8186421229765 195.99292530878216 C440.4675148577432 234.95725013716648, 391.9509292941808 273.052416462557, 244.6770523888679 391.3620007032361 M244.24283570888548 390.77509406460996 C170.77635895007273 333.8743331330819, 93.39097235002481 273.5157374022582, 1.2448050459232363 195.59404901065932 M244.421587315552 391.9684524702886 C177.22111053912894 338.93112939496376, 110.36374123700854 286.4170012382329, -0.23666908435409564 196.16275591769497 M-0.01791302312061259 195.1308108389697 C67.18394614358779 144.07489673004775, 132.10398772755417 90.95876132617381, 246.07341290613593 0.3008055141926878 M0.36588723258130235 196.514874436879 C78.83351727298022 135.73988302657915, 156.02949508085675 74.67707166815137, 244.56244660436886 -0.40860931761406794" stroke="#1864ab" stroke-width="2" fill="none"></path></g><g><g transform="translate(2543.6290754496968 896.8813903677953) rotate(0 125.29752776444548 -1.3932297383622654)"><path d="M-0.8257619462907314 -1.15490939989686 C41.237130194805054 -1.6252741167229259, 209.61449958335356 -1.7751496986954636, 251.42081747518176 -2.1411008107852014 M0.9415743025671692 0.8531592198181897 C43.014873287980876 0.021576572973221908, 209.6355417909355 -3.156747511718718, 250.98115974035372 -3.6396186965428114" stroke="#1864ab" stroke-width="2" fill="none"></path></g><g transform="translate(2543.6290754496968 896.8813903677953) rotate(0 125.29752776444548 -1.3932297383622654)"><path d="M221.03288468309466 8.683539892068154 C231.0513285268414 4.169469695756485, 235.20871438702488 2.291688774468019, 249.7810732994627 -5.0122069473288775 M223.76902211234693 6.7733873282429045 C230.18775407096476 3.333065093947744, 239.09946768786426 1.2452208582015034, 251.90662843663503 -4.340180501239729" stroke="#1864ab" stroke-width="2" fill="none"></path></g><g transform="translate(2543.6290754496968 896.8813903677953) rotate(0 125.29752776444548 -1.3932297383622654)"><path d="M220.70536103463354 -11.835054861119449 C230.9124126283776 -11.826856297821596, 235.14194825353934 -9.184622264212283, 249.7810732994627 -5.0122069473288775 M223.4414984638858 -13.745207424944699 C229.75018409585758 -11.24550394259295, 238.7567575077549 -7.3906026664444, 251.90662843663503 -4.340180501239729" stroke="#1864ab" stroke-width="2" fill="none"></path></g></g><g><g transform="translate(1426.9717679571945 1085.623563779739) rotate(0 5.082458191791034 147.10906881335723)"><path d="M-0.6169335030019283 -0.7971234060823917 C0.9187244577713349 48.411864330680324, 7.063124341521432 245.79290583387592, 8.670461226855242 295.01526103279684 M1.2600376785825937 1.398782860385254 C3.1951351098258085 50.250449652183086, 9.073847401248308 243.99572191005217, 10.781849886583931 293.0572547964392" stroke="#1864ab" stroke-width="2" fill="none"></path></g><g transform="translate(1426.9717679571945 1085.623563779739) rotate(0 5.082458191791034 147.10906881335723)"><path d="M-1.715257562133571 263.3071500057416 C2.9250837287322975 271.0509610569712, 4.97273496865924 277.87229815688613, 12.636141329365618 293.5594893112419 M0.19628130142102584 265.1996326496886 C3.1386393381948645 273.3337981545343, 4.764730015110565 279.1776482675434, 10.704196804496295 292.66532934416216" stroke="#1864ab" stroke-width="2" fill="none"></path></g><g transform="translate(1426.9717679571945 1085.623563779739) rotate(0 5.082458191791034 147.10906881335723)"><path d="M18.795177755648616 262.6422850112403 C18.209994905607967 270.44999700708485, 15.033444340142843 277.4406815075206, 12.636141329365618 293.5594893112419 M20.706716619203213 264.5347676551873 C18.14944926204513 272.7914221081027, 14.276421450616922 278.81353130371383, 10.704196804496295 292.66532934416216" stroke="#1864ab" stroke-width="2" fill="none"></path></g></g><g transform="translate(1306.7221121503512 821.2602626255584) rotate(0 116 67.5)"><text x="116" y="32" font-family="Virgil, Segoe UI Emoji" font-size="36px" fill="#000000" text-anchor="middle" style="white-space: pre;" direction="ltr">is target</text><text x="116" y="77" font-family="Virgil, Segoe UI Emoji" font-size="36px" fill="#000000" text-anchor="middle" style="white-space: pre;" direction="ltr">found in</text><text x="116" y="122" font-family="Virgil, Segoe UI Emoji" font-size="36px" fill="#000000" text-anchor="middle" style="white-space: pre;" direction="ltr">global config?</text></g><g transform="translate(1452.6631173121816 1179.7718767438628) rotate(0 28 22.5)"><text x="28" y="32" font-family="Virgil, Segoe UI Emoji" font-size="36px" fill="#087f5b" text-anchor="middle" style="white-space: pre;" direction="ltr">yes</text></g><g transform="translate(1330.1269379967057 1404.7059006463924) rotate(0 116.5 45)"><text x="116.5" y="32" font-family="Virgil, Segoe UI Emoji" font-size="36px" fill="#5c940d" text-anchor="middle" style="white-space: pre;" direction="ltr">return</text><text x="116.5" y="77" font-family="Virgil, Segoe UI Emoji" font-size="36px" fill="#5c940d" text-anchor="middle" style="white-space: pre;" direction="ltr">global target</text></g><g transform="translate(1707.9427135500907 813.6983787899926) rotate(0 18.5 22.5)"><text x="18.5" y="32" font-family="Virgil, Segoe UI Emoji" font-size="36px" fill="#a61e4d" text-anchor="middle" style="white-space: pre;" direction="ltr">no</text></g><g><g transform="translate(1032.9191594672163 892.1195906948415) rotate(0 72.47797294425135 -1.3535207894245787)"><path d="M0.9243795253336431 -0.07593261972069731 C25.03448140409095 -0.4442254696223244, 121.00414261651552 -2.1121698995098996, 145.00540584170838 -2.6311089591283237 M-0.04945995320565988 -1.1614011904131623 C23.824896039881466 -1.3093412258192259, 119.7900582052055 -1.030788246065058, 143.7720299457444 -1.218983036491263" stroke="#1864ab" stroke-width="2" fill="none"></path></g><g transform="translate(1032.9191594672163 892.1195906948415) rotate(0 72.47797294425135 -1.3535207894245787)"><path d="M115.47338894768151 8.187021368441032 C124.49946638448569 4.4577628426284575, 132.8297942162642 0.1895942591991897, 144.29446966771616 -2.5311637381344916 M115.85106057128402 8.773964285177039 C123.67006632568365 5.607786853849882, 132.39406225153695 2.9136840905489363, 144.32417563360764 -0.5944841904818894" stroke="#1864ab" stroke-width="2" fill="none"></path></g><g transform="translate(1032.9191594672163 892.1195906948415) rotate(0 72.47797294425135 -1.3535207894245787)"><path d="M115.43609805512628 -12.33415334879121 C124.40237894171042 -9.317714250965622, 132.74496551602485 -6.839897952943732, 144.29446966771616 -2.5311637381344916 M115.81376967872879 -11.747210432055203 C123.48104006240244 -9.039187215686137, 132.21571116066704 -5.858743590376065, 144.32417563360764 -0.5944841904818894" stroke="#1864ab" stroke-width="2" fill="none"></path></g></g><g transform="translate(2046.5846290076772 11.283534458704708) rotate(0 244.63483537946433 195.6953212193082)"><path d="M245.75204889776887 -0.7936107643128592 C309.7085618084497 51.665879617699204, 374.0163781314965 101.76756843080325, 487.8818456635321 196.44643933586343 M245.20438283123588 -0.24976346421133133 C316.97387956952326 56.609278020126574, 387.8654299324964 114.09378287347025, 488.90397295709454 195.52749157571048 M489.0741329051197 194.87307558930468 C440.95804266665914 235.20757747530894, 389.18864794881375 274.73245705955924, 244.61282295603706 392.2207822293215 M488.6885697110765 195.29027057118338 C417.04539721190406 255.14919378345846, 343.7125794082977 313.7633193658108, 245.23617346920406 391.8902680358078 M244.9427930591738 391.4948696030142 C150.2814443984044 315.2867687308514, 53.576484694043955 237.0788411100917, 1.153632396209334 197.1373281552039 M244.79702450532966 391.1989650810316 C187.36911246800847 347.63207061570586, 128.8658833106849 301.9813475624422, 0.19371590089558494 195.7324889160132 M0.32522162964293677 195.58847145248382 C80.26566925377828 131.43061129978395, 161.82177102205713 65.34843108845146, 245.68456887865057 1.2369764799073748 M0.1504027570963439 196.10647470773606 C57.907567577734746 146.25650666800854, 118.59822275320046 99.63913255874488, 245.48675394090003 -0.11033221583873086" stroke="#1864ab" stroke-width="2" fill="none"></path></g><g><g transform="translate(2285.5252407167686 405.9895319321164) rotate(0 4.263609935709269 148.2971914325356)"><path d="M-0.6694121025502682 0.4083977960050107 C0.9123974990077917 49.8055353923213, 7.683963760350199 247.94397980052807, 9.196631973968806 297.01718017150256 M1.1800078142713755 -0.4227973064314574 C2.6444168289263397 48.60060989057425, 7.315279171036855 246.09016905614004, 8.337842263221727 295.4190526992975" stroke="#1864ab" stroke-width="2" fill="none"></path></g><g transform="translate(2285.5252407167686 405.9895319321164) rotate(0 4.263609935709269 148.2971914325356)"><path d="M-1.8741776095427145 267.7497754394355 C2.2585663556171345 274.19423855399896, 1.6433287545923458 283.55565590733545, 8.213451187998043 294.9374605768321 M-1.7845243317730297 267.40314665989007 C0.9213122989210243 277.1823644050363, 4.708848889336021 286.59356400678786, 7.384563093945371 295.68027256028336" stroke="#1864ab" stroke-width="2" fill="none"></path></g><g transform="translate(2285.5252407167686 405.9895319321164) rotate(0 4.263609935709269 148.2971914325356)"><path d="M18.641829563325956 267.2877667072234 C17.125241625128968 273.7450573445723, 10.858229809400974 283.2337494165069, 8.213451187998043 294.9374605768321 M18.73148284109564 266.94113792767797 C14.189668210507321 276.8115613746156, 10.728226055458498 286.38600382629426, 7.384563093945371 295.68027256028336" stroke="#1864ab" stroke-width="2" fill="none"></path></g></g><g><g transform="translate(2294.2622790728706 1094.66911636362) rotate(0 1.4631901709602744 122.44433819360813)"><path d="M-0.620023836940527 -1.1706329561769961 C-0.05729163344146859 39.423053725055325, 2.9629207851766526 203.486679153102, 3.5464041788612577 244.56106728086752 M1.255324919326231 0.8291807964909821 C1.6781099584685808 42.143296815046014, 2.678033916534009 205.6526429040772, 2.796059214846891 246.05930934339335" stroke="#1864ab" stroke-width="2" fill="none"></path></g><g transform="translate(2294.2622790728706 1094.66911636362) rotate(0 1.4631901709602744 122.44433819360813)"><path d="M-9.551972942902001 218.54616125157756 C-4.224656400929519 226.33158548121085, 0.2327843223816055 236.22875242378052, 2.0938061153159557 247.5999418856161 M-8.115029268441948 217.25427111281735 C-5.628344233883167 226.46460256068823, -2.2778513893847654 234.33022194968885, 2.0046301403657614 246.9864550647842" stroke="#1864ab" stroke-width="2" fill="none"></path></g><g transform="translate(2294.2622790728706 1094.66911636362) rotate(0 1.4631901709602744 122.44433819360813)"><path d="M10.968995118816718 218.44680232767058 C9.850115908547695 226.15741283200012, 7.860533760299119 236.08579512722739, 2.0938061153159557 247.5999418856161 M12.405938793276771 217.15491218891037 C8.865734312684587 226.3536088920041, 6.18978764401163 234.24840724289476, 2.0046301403657614 246.9864550647842" stroke="#1864ab" stroke-width="2" fill="none"></path></g></g><g><g transform="translate(1027.5383611048892 208.07377492748105) rotate(0 510.0157307976759 0.9937500135608843)"><path d="M-0.4752060078084469 0.530797078460455 C169.4880674822223 1.0507287343019773, 850.4055530791937 1.9791576691838748, 1020.50666760316 2.2236384278086003 M1.4761721087526531 -0.23613840068690473 C171.19206473386518 0.012062787179478063, 849.8144587849569 0.4164805562636654, 1019.4041536809586 0.4340998406724066" stroke="#1864ab" stroke-width="2" fill="none"></path></g><g transform="translate(1027.5383611048892 208.07377492748105) rotate(0 510.0157307976759 0.9937500135608843)"><path d="M992.0939115484041 10.192986798075745 C1002.509706184466 5.983593054960574, 1012.2997866105577 3.6868952933492825, 1021.0690656700813 -0.5992732208951383 M990.9684536897373 11.216691094053695 C997.172396181467 8.274837129734479, 1003.363364512547 6.487751346779246, 1018.951248232805 0.2352120175228447" stroke="#1864ab" stroke-width="2" fill="none"></path></g><g transform="translate(1027.5383611048892 208.07377492748105) rotate(0 510.0157307976759 0.9937500135608843)"><path d="M992.1021667232109 -10.328220141037987 C1002.3617679434191 -7.137995776560022, 1012.1488716727192 -2.0350427396726474, 1021.0690656700813 -0.5992732208951383 M990.9767088645441 -9.304515845060036 C997.2433777833218 -8.091912957283368, 1003.4326748769339 -5.724536753792364, 1018.951248232805 0.2352120175228447" stroke="#1864ab" stroke-width="2" fill="none"></path></g></g><g transform="translate(2143.5547392197313 144.99575369698687) rotate(0 148.5000000000001 67.5)"><text x="148.5" y="32" font-family="Virgil, Segoe UI Emoji" font-size="36px" fill="#000000" text-anchor="middle" style="white-space: pre;" direction="ltr">is defaultTarget</text><text x="148.5" y="77" font-family="Virgil, Segoe UI Emoji" font-size="36px" fill="#000000" text-anchor="middle" style="white-space: pre;" direction="ltr">specified in</text><text x="148.5" y="122" font-family="Virgil, Segoe UI Emoji" font-size="36px" fill="#000000" text-anchor="middle" style="white-space: pre;" direction="ltr">local config?</text></g><g transform="translate(2305.3455455813382 471.26197160993433) rotate(0 28 22.5)"><text x="28" y="32" font-family="Virgil, Segoe UI Emoji" font-size="36px" fill="#087f5b" text-anchor="middle" style="white-space: pre;" direction="ltr">yes</text></g><g transform="translate(2114.63446857241 838.3650687081472) rotate(0 184.5000000000001 45)"><text x="184.5" y="32" font-family="Virgil, Segoe UI Emoji" font-size="36px" fill="#000000" text-anchor="middle" style="white-space: pre;" direction="ltr">is default target</text><text x="184.5" y="77" font-family="Virgil, Segoe UI Emoji" font-size="36px" fill="#000000" text-anchor="middle" style="white-space: pre;" direction="ltr">found in local config?</text></g><g transform="translate(2311.8360240969632 1179.4955269949796) rotate(0 28 22.5)"><text x="28" y="32" font-family="Virgil, Segoe UI Emoji" font-size="36px" fill="#087f5b" text-anchor="middle" style="white-space: pre;" direction="ltr">yes</text></g><g transform="translate(2129.0923717532123 1363.2228567940865) rotate(0 181.0000000000001 45)"><text x="181" y="32" font-family="Virgil, Segoe UI Emoji" font-size="36px" fill="#5c940d" text-anchor="middle" style="white-space: pre;" direction="ltr">return</text><text x="181" y="77" font-family="Virgil, Segoe UI Emoji" font-size="36px" fill="#5c940d" text-anchor="middle" style="white-space: pre;" direction="ltr">local default target</text></g><g><g transform="translate(2536.592072596886 207.65390475097138) rotate(0 122.428410058591 -1.8858618134327685)"><path d="M-0.16478941217064857 -0.9497148893773555 C40.87751039897912 -1.3140690856480508, 205.6944567548987 -2.57067531908746, 246.56726270008167 -2.9734335986101086 M-1.7104425828997047 1.1660808483604344 C39.24375815478043 0.49135119915404346, 205.23400175471235 -4.39398931385833, 246.2033190409307 -4.937804475225976" stroke="#1864ab" stroke-width="2" fill="none"></path></g><g transform="translate(2536.592072596886 207.65390475097138) rotate(0 122.428410058591 -1.8858618134327685)"><path d="M216.6665156952685 7.805791258459465 C227.93944816059653 1.8009099322607165, 236.40112600759684 -1.656417697547555, 247.36931874776525 -4.965955864437392 M217.25250040773508 5.873846733590142 C227.71909340124083 1.6781147189796761, 238.03073045594908 -1.224692854045336, 246.90508434163672 -4.024974094503095" stroke="#1864ab" stroke-width="2" fill="none"></path></g><g transform="translate(2536.592072596886 207.65390475097138) rotate(0 122.428410058591 -1.8858618134327685)"><path d="M216.2069866344846 -12.710271605261102 C227.49517772096812 -12.023782717388139, 236.10671809794127 -8.790371179156384, 247.36931874776525 -4.965955864437392 M216.7929713469512 -14.642216130130425 C227.55091833345855 -11.546593025542329, 238.02578680533793 -7.161796175237743, 246.90508434163672 -4.024974094503095" stroke="#1864ab" stroke-width="2" fill="none"></path></g></g><g><g transform="translate(10.46056808456774 215.77452592624468) rotate(0 261.4153691857255 -3.115334728485891)"><path d="M-0.4605680845677852 -0.8820101715624332 C86.6039587393137 -1.8135189291415674, 435.9593243403893 -4.583886773674718, 523.2913064560188 -5.581007561283149 M1.4984949416946622 1.269330543028191 C88.3685009890063 -0.03458401745650286, 435.65747039866363 -6.285507808518566, 522.5989404600286 -7.499999999999964" stroke="#1864ab" stroke-width="2" fill="none"></path></g><g transform="translate(10.46056808456774 215.77452592624468) rotate(0 261.4153691857255 -3.115334728485891)"><path d="M493.1084212100966 4.028557773701039 C505.74138104188313 0.5136015122845592, 514.1192037892456 -5.5126506980205, 523.4836022574627 -7.990376058965885 M494.7201139609231 4.0493329186207925 C504.00893024268817 -1.6356012203052375, 514.7268223084681 -4.50385738047695, 522.358144398796 -6.966671762987935" stroke="#1864ab" stroke-width="2" fill="none"></path></g><g transform="translate(10.46056808456774 215.77452592624468) rotate(0 261.4153691857255 -3.115334728485891)"><path d="M492.77529772783294 -16.489946829008293 C505.5346695381478 -12.302097003871792, 514.0375286719956 -10.626821677991792, 523.4836022574627 -7.990376058965885 M494.3869904786594 -16.46917168408854 C503.6788925451438 -14.915020862282223, 514.5143315232039 -10.543058337588638, 522.358144398796 -6.966671762987935" stroke="#1864ab" stroke-width="2" fill="none"></path></g></g><g transform="translate(13.211776863889781 146.0714547293528) rotate(0 229 22.5)"><text x="229" y="32" font-family="Virgil, Segoe UI Emoji" font-size="36px" fill="#1864ab" text-anchor="middle" style="white-space: pre;" direction="ltr">findTargetInConfiguration</text></g><g transform="translate(535.9164277427969 11.335850306919838) rotate(0 244.63483537946433 195.6953212193082)"><path d="M245.45972140422288 0.8619147808677787 C306.81874584986525 50.00885117057945, 372.41587141149654 101.50079749578718, 490.02171965669754 195.20638923568714 M244.63247035028797 -0.6939125476982875 C327.0149098444136 63.979830873277045, 408.2145745269733 129.8739363945031, 489.47405359016454 195.75023653578867 M488.98647223852527 195.2679514324931 C396.1383942883438 267.52342348930796, 305.35881717661687 341.6150457000093, 244.80446214619107 390.2637180279211 M489.215389938766 195.80641147801853 C394.1058091847153 272.16819080739697, 298.15558315620893 349.3555799468096, 244.41889895214788 390.6809130097998 M244.98586952094595 391.8623583279679 C174.94489357005247 334.48522694244133, 101.26207918537146 275.4422179134154, -0.057206940826209494 196.10422716439777 M244.69222581299678 391.96745863672106 C169.51779560561164 330.231262067217, 94.42536777339436 271.55781903917136, -0.2029754946703391 195.80832264241516 M1.1545897856486036 196.3870863921218 C91.04214302643626 123.87674610511246, 185.21387072443838 48.939673797715955, 245.32522162964293 -0.4115285475161826 M-0.4345945805151542 196.34228443932528 C72.39787238196678 138.17385095447818, 144.21204015457906 81.66123972671609, 245.15040275709634 0.10647470773605626" stroke="#1864ab" stroke-width="2" fill="none"></path></g><g transform="translate(659.1330327930204 162.6860089983261) rotate(0 125.5 45)"><text x="125.5" y="32" font-family="Virgil, Segoe UI Emoji" font-size="36px" fill="#000000" text-anchor="middle" style="white-space: pre;" direction="ltr">is targetName</text><text x="125.5" y="77" font-family="Virgil, Segoe UI Emoji" font-size="36px" fill="#000000" text-anchor="middle" style="white-space: pre;" direction="ltr">specified?</text></g><g><g transform="translate(782.8406918331989 404.08884102957654) rotate(0 4.1890834281641105 147.2013342297193)"><path d="M0.7270266629755497 -0.8959515072405337 C2.100623565449723 48.255855849091105, 7.364832652282757 245.91559846850183, 8.728589924629977 295.29861996667915 M-0.3504230683017522 1.2480700061190872 C0.7809587750708396 50.006759470006585, 6.141090205336777 244.76394193909198, 7.5310613069033385 293.45471368409216" stroke="#1864ab" stroke-width="2" fill="none"></path></g><g transform="translate(782.8406918331989 404.08884102957654) rotate(0 4.1890834281641105 147.2013342297193)"><path d="M-5.004509230551432 264.7688474904385 C1.224380417040884 274.5037832460233, 5.157813587073893 283.37867476582136, 8.211724300245024 293.738065280537 M-3.197446401638101 265.4986619658407 C0.3357432135066456 276.89210421849947, 5.095787873401196 286.6978470648143, 8.301377578014709 293.3914365009916" stroke="#1864ab" stroke-width="2" fill="none"></path></g><g transform="translate(782.8406918331989 404.08884102957654) rotate(0 4.1890834281641105 147.2013342297193)"><path d="M15.508727571628821 264.1969049378019 C14.752984317220047 274.2509157841905, 11.699936372774369 283.32060181063304, 8.211724300245024 293.738065280537 M17.315790400542152 264.9267194132041 C12.984417130516459 276.3392438736484, 9.88285405537386 286.36418118640296, 8.301377578014709 293.3914365009916" stroke="#1864ab" stroke-width="2" fill="none"></path></g></g><g transform="translate(808.2228242271719 498.13723318917437) rotate(0 27.99999999999997 22.5)"><text x="28" y="32" font-family="Virgil, Segoe UI Emoji" font-size="36px" fill="#087f5b" text-anchor="middle" style="white-space: pre;" direction="ltr">yes</text></g><g transform="translate(543.0550705534383 697.3674171084449) rotate(0 244.63483537946433 195.6953212193082)"><path d="M244.65743371748965 0.7587344683950568 C295.298000207221 39.28820201582807, 345.43684183678573 79.37736996254692, 488.625349024975 195.717054083592 M245.18581100587298 -0.4666904253360735 C304.6989243577103 49.8168204324654, 366.1788262967828 99.28182431681186, 489.04285347252016 195.94576759658764 M490.05587696991626 196.88923065466153 C422.2795367815484 247.86036800786593, 356.6922281978371 302.0260657601385, 244.0979427280956 391.3764930561807 M488.72524406861356 195.6770523888679 C408.8333116357035 262.7384690601106, 327.5197956811955 328.355505933653, 244.6209113972485 391.08245651943554 M245.82805533665095 392.6354474845396 C150.1068249075642 315.3920336671417, 58.239568450252705 242.2518198974023, -1.1568253688960461 197.15562006334434 M245.56807969289068 391.1539733542623 C165.5103262070472 327.81110845757706, 85.12342974849155 264.09245307735347, -0.008964503744376186 195.56501761672706 M1.243549300538645 197.07341290613593 C84.393634360594 128.94739593017144, 168.19937259249008 59.19407990149861, 245.7317744651626 1.0297488737580303 M0.5646258037101627 195.56244660436886 C90.09532376171624 122.68194598790645, 180.0979865691513 50.74643885011716, 245.18264281457925 0.655215231213367" stroke="#1864ab" stroke-width="2" fill="none"></path></g><g transform="translate(678.9703624758715 824.051365443639) rotate(0 106.5 67.5)"><text x="106.5" y="32" font-family="Virgil, Segoe UI Emoji" font-size="36px" fill="#000000" text-anchor="middle" style="white-space: pre;" direction="ltr">is target</text><text x="106.5" y="77" font-family="Virgil, Segoe UI Emoji" font-size="36px" fill="#000000" text-anchor="middle" style="white-space: pre;" direction="ltr">found in</text><text x="106.5" y="122" font-family="Virgil, Segoe UI Emoji" font-size="36px" fill="#000000" text-anchor="middle" style="white-space: pre;" direction="ltr">local config?</text></g><g><g transform="translate(789.720018282715 1088.4146665978196) rotate(0 4.454948157330421 147.55319224879213)"><path d="M0.6399938844144344 0.34479456916451445 C2.217940386981521 49.663983235568956, 7.876632749293019 246.65725737616992, 9.393044370268308 295.6261767249474 M-0.483148055607453 -0.5197922273632138 C0.9064394018713422 48.499930982138245, 6.654447723099981 244.70385801205055, 8.22378918028886 293.9889012269689" stroke="#1864ab" stroke-width="2" fill="none"></path></g><g transform="translate(789.720018282715 1088.4146665978196) rotate(0 4.454948157330421 147.55319224879213)"><path d="M-2.312997778041222 265.42025619221033 C1.8502011199109663 274.12329551188606, 2.6680828265723298 282.038675289585, 7.1955666752856455 292.6603622168316 M-3.02497990345762 265.33108021726014 C0.3864853851731169 272.1500001499209, 1.4146741910337557 277.5261134950956, 7.951878157104202 294.57190108038617" stroke="#1864ab" stroke-width="2" fill="none"></path></g><g transform="translate(789.720018282715 1088.4146665978196) rotate(0 4.454948157330421 147.55319224879213)"><path d="M18.19875788756221 264.79745453804975 C16.33450437107935 273.7928557904746, 11.12643334515818 281.8912025160511, 7.1955666752856455 292.6603622168316 M17.48677576214581 264.70827856309955 C16.70168417284134 271.5200929579521, 13.53168921915155 277.0236764150248, 7.951878157104202 294.57190108038617" stroke="#1864ab" stroke-width="2" fill="none"></path></g></g><g transform="translate(815.4113676377019 1182.5629795619425) rotate(0 27.99999999999997 22.5)"><text x="28" y="32" font-family="Virgil, Segoe UI Emoji" font-size="36px" fill="#087f5b" text-anchor="middle" style="white-space: pre;" direction="ltr">yes</text></g><g transform="translate(701.8751883222258 1407.497003464472) rotate(0 107.5 45)"><text x="107.5" y="32" font-family="Virgil, Segoe UI Emoji" font-size="36px" fill="#5c940d" text-anchor="middle" style="white-space: pre;" direction="ltr">return</text><text x="107.5" y="77" font-family="Virgil, Segoe UI Emoji" font-size="36px" fill="#5c940d" text-anchor="middle" style="white-space: pre;" direction="ltr">local target</text></g><g transform="translate(1073.193608732382 838.0500837053578) rotate(0 18.5 22.5)"><text x="18.5" y="32" font-family="Virgil, Segoe UI Emoji" font-size="36px" fill="#a61e4d" text-anchor="middle" style="white-space: pre;" direction="ltr">no</text></g><g transform="translate(2631.980031696056 152.61897205171226) rotate(0 18.5 22.5)"><text x="18.5" y="32" font-family="Virgil, Segoe UI Emoji" font-size="36px" fill="#a61e4d" text-anchor="middle" style="white-space: pre;" direction="ltr">no</text></g><g transform="translate(2782.002260118675 10) rotate(0 244.63483537946422 195.6953212193082)"><path d="M245.35724963648406 -0.45363457281696723 C313.7146142872307 54.11065521866, 384.5789583664193 110.58590185799025, 490.055175699197 196.88843748944342 M244.72121544571695 -0.45062633287758636 C296.9466088439231 43.1732842210043, 350.7963632876231 86.38903232923533, 488.7257296797565 195.6773404477771 M490.4105299937556 195.24182279449698 C416.45704795306676 255.08837739280688, 345.91405718476034 310.82708346836, 245.8291630872076 392.6371127518491 M489.742840447553 195.42081353034123 C423.16567389516905 250.58203799919073, 356.01166269967047 303.65907812767745, 245.56883965489823 391.15365674461276 M245.03216870027433 391.37271343112764 C165.42414529290417 328.8658469286844, 88.42389749945508 264.29130139645173, 1.2446589596780286 197.0743707470845 M244.3512646407036 391.7568561641734 C166.61985812094926 327.6542411596382, 87.30684507890533 264.9239385110285, 0.565129637521293 195.56205616136495 M0.9150080252489327 196.36528562915848 C60.39866591661419 148.9030386132427, 117.53673834222714 103.7870123371686, 243.7812483424346 -0.3300642918151224 M0.5444696167066074 195.81052809363194 C67.4478488112052 142.42485176855388, 136.284773773915 88.86945107819622, 244.84809008057593 -0.4009313686340778" stroke="#1864ab" stroke-width="2" fill="none"></path></g><g transform="translate(2875.9175520411086 136.68394833519415) rotate(0 148.5 67.5)"><text x="148.5" y="32" font-family="Virgil, Segoe UI Emoji" font-size="36px" fill="#000000" text-anchor="middle" style="white-space: pre;" direction="ltr">is defaultTarget</text><text x="148.5" y="77" font-family="Virgil, Segoe UI Emoji" font-size="36px" fill="#000000" text-anchor="middle" style="white-space: pre;" direction="ltr">specified in</text><text x="148.5" y="122" font-family="Virgil, Segoe UI Emoji" font-size="36px" fill="#000000" text-anchor="middle" style="white-space: pre;" direction="ltr">global config?</text></g><g><g transform="translate(3035.7479242085724 402.3462785993297) rotate(0 2.6992958516946146 142.3156559807161)"><path d="M-0.38264157548546784 -0.09149025902152053 C0.3954681600488583 47.49435938146141, 4.70235373743244 238.1712879164232, 5.78123327887497 285.8164385517792 M1.617332868045196 -1.1851265903469175 C2.1115203565869343 46.02993847091858, 4.04542773395211 236.5661739174085, 4.661883870641431 284.06115371065334" stroke="#1864ab" stroke-width="2" fill="none"></path></g><g transform="translate(3035.7479242085724 402.3462785993297) rotate(0 2.6992958516946146 142.3156559807161)"><path d="M-6.070611349941635 255.44486548119835 C-0.5267083989154981 267.01873895310234, 3.566507941968238 279.3203545803119, 3.029475307593784 282.067406837662 M-5.928064571396852 256.32041261644713 C-2.2345390373935374 265.17229151013714, -0.6091500770819556 272.00960311426275, 4.621654194350085 284.13444945106403" stroke="#1864ab" stroke-width="2" fill="none"></path></g><g transform="translate(3035.7479242085724 402.3462785993297) rotate(0 2.6992958516946146 142.3156559807161)"><path d="M14.449274557780356 255.21187466611843 C11.93530437435745 266.8118156806746, 7.970062500647319 279.20493019614065, 3.029475307593784 282.067406837662 M14.59182133632514 256.0874218013672 C12.287811186188218 264.87739380793624, 7.9165776126653284 271.7827934110969, 4.621654194350085 284.13444945106403" stroke="#1864ab" stroke-width="2" fill="none"></path></g></g><g transform="translate(3057.5168625456267 469.1775251116069) rotate(0 28 22.5)"><text x="28" y="32" font-family="Virgil, Segoe UI Emoji" font-size="36px" fill="#087f5b" text-anchor="middle" style="white-space: pre;" direction="ltr">yes</text></g><g transform="translate(2857.3057855366974 836.2806222098206) rotate(0 194 45)"><text x="194" y="32" font-family="Virgil, Segoe UI Emoji" font-size="36px" fill="#000000" text-anchor="middle" style="white-space: pre;" direction="ltr">is default target</text><text x="194" y="77" font-family="Virgil, Segoe UI Emoji" font-size="36px" fill="#000000" text-anchor="middle" style="white-space: pre;" direction="ltr">found in global config?</text></g><g><g transform="translate(3042.566597478661 1078.972952706472) rotate(0 3.1506658609432634 129.12800658215247)"><path d="M-0.016890833526849836 0.6625748254358768 C1.3351961998358093 43.42397051258458, 6.809983461208503 214.35269718684623, 7.786228972354365 257.267973946993 M-1.4848972504679114 -0.03517733654938637 C-0.1967084696520398 42.7836696646314, 5.632992628140237 215.04819414855348, 7.231617781713067 258.29119050085427" stroke="#1864ab" stroke-width="2" fill="none"></path></g><g transform="translate(3042.566597478661 1078.972952706472) rotate(0 3.1506658609432634 129.12800658215247)"><path d="M-2.9074588451292334 231.726762011282 C-2.414715719025726 236.07335016576195, 2.129677510855268 244.87099627154572, 5.964604049369155 258.2713165278721 M-4.77644234669767 230.0241578012778 C-0.11081379750085496 239.7150961624204, 3.7340823687584512 249.70968478226766, 6.699156617193876 257.85831799499573" stroke="#1864ab" stroke-width="2" fill="none"></path></g><g transform="translate(3042.566597478661 1078.972952706472) rotate(0 3.1506658609432634 129.12800658215247)"><path d="M17.601115309587907 231.006769979168 C12.503134480014868 235.54689164200246, 11.452606201727473 244.54095798040672, 5.964604049369155 258.2713165278721 M15.73213180801947 229.3041657691638 C13.569919906623902 239.4221941775625, 10.5819229680416 249.6566643491285, 6.699156617193876 257.85831799499573" stroke="#1864ab" stroke-width="2" fill="none"></path></g></g><g transform="translate(3064.0073410612517 1177.411080496653) rotate(0 28 22.5)"><text x="28" y="32" font-family="Virgil, Segoe UI Emoji" font-size="36px" fill="#087f5b" text-anchor="middle" style="white-space: pre;" direction="ltr">yes</text></g><g transform="translate(2872.2636887175 1361.1384102957581) rotate(0 190 45)"><text x="190" y="32" font-family="Virgil, Segoe UI Emoji" font-size="36px" fill="#5c940d" text-anchor="middle" style="white-space: pre;" direction="ltr">return</text><text x="190" y="77" font-family="Virgil, Segoe UI Emoji" font-size="36px" fill="#5c940d" text-anchor="middle" style="white-space: pre;" direction="ltr">global default target</text></g><g transform="translate(2632.92025261259 828.6983787899931) rotate(0 18.5 22.5)"><text x="18.5" y="32" font-family="Virgil, Segoe UI Emoji" font-size="36px" fill="#a61e4d" text-anchor="middle" style="white-space: pre;" direction="ltr">no</text></g><g><g transform="translate(3283.73167259762 889.0038596916515) rotate(0 89.81986448803173 3.593999278158549)"><path d="M-0.09318369850516328 -0.4703105427324772 C29.891411763622752 0.9656743328318498, 148.89819602168797 5.962325393431137, 178.92812763493893 7.419661129591168 M-1.6012438695598394 -1.7628275230061263 C28.85451353236786 -0.01884657199042561, 151.05248311909546 7.594804351100946, 181.2409728456234 8.950826079323068" stroke="#1864ab" stroke-width="2" fill="none"></path></g><g transform="translate(3283.73167259762 889.0038596916515) rotate(0 89.81986448803173 3.593999278158549)"><path d="M151.7463728018261 16.383978084679214 C158.86692047902056 16.43679830757688, 166.56016615786706 15.699070422461457, 179.71158859393944 8.043613043352142 M153.33143908494782 17.118530652503935 C160.58869667700486 15.870363275536427, 170.31909557002953 11.825814391739943, 181.8232867687886 9.826211186795607" stroke="#1864ab" stroke-width="2" fill="none"></path></g><g transform="translate(3283.73167259762 889.0038596916515) rotate(0 89.81986448803173 3.593999278158549)"><path d="M152.87105336675614 -4.106387846965548 C159.54173076870254 0.42023636596340186, 166.98936918731428 4.157185820001573, 179.71158859393944 8.043613043352142 M154.45611964987785 -3.371835279140827 C161.3955161913842 1.4453350674185983, 170.7930354684357 3.4654638842634125, 181.8232867687886 9.826211186795607" stroke="#1864ab" stroke-width="2" fill="none"></path></g></g><g transform="translate(3348.5869192792575 836.1983787899926) rotate(0 18.5 22.5)"><text x="18.5" y="32" font-family="Virgil, Segoe UI Emoji" font-size="36px" fill="#a61e4d" text-anchor="middle" style="white-space: pre;" direction="ltr">no</text></g><g transform="translate(3485.7261608157164 852.1492047991069) rotate(0 49 45)"><text x="49" y="32" font-family="Virgil, Segoe UI Emoji" font-size="36px" fill="#c92a2a" text-anchor="middle" style="white-space: pre;" direction="ltr">throw</text><text x="49" y="77" font-family="Virgil, Segoe UI Emoji" font-size="36px" fill="#c92a2a" text-anchor="middle" style="white-space: pre;" direction="ltr">error</text></g><g><g transform="translate(3272.946913789721 206.74420646558292) rotate(0 92.61796011371598 0.6840886103090043)"><path d="M-0.01192438378930083 0.39807010665535936 C31.185334647007842 0.8258921887743744, 155.88567378972002 1.8452359419406814, 186.71324364205037 1.8067242533077434 M-1.4773234146181495 -0.43854703268967565 C29.676751856430062 -0.2539917914458093, 154.73341634984405 -0.013644311260669284, 186.20731031786798 0.25923264438444216" stroke="#1864ab" stroke-width="2" fill="none"></path></g><g transform="translate(3272.946913789721 206.74420646558292) rotate(0 92.61796011371598 0.6840886103090043)"><path d="M158.63038336723483 11.786058146479204 C167.22202659986596 6.21571875888708, 171.85445368311488 5.024412881031942, 186.35390179868935 0.376603372787772 M158.77820289186573 11.182331604855731 C168.0973814418635 7.23900387054694, 180.36577207826272 2.5231303284843163, 185.9377235182017 1.0348259531163557" stroke="#1864ab" stroke-width="2" fill="none"></path></g><g transform="translate(3272.946913789721 206.74420646558292) rotate(0 92.61796011371598 0.6840886103090043)"><path d="M158.7302479934761 -8.734907460486392 C167.16584406099054 -8.953235962190462, 171.7722257052477 -4.792521030623128, 186.35390179868935 0.376603372787772 M158.878067518107 -9.338634002109865 C168.05001920035897 -5.48193301810334, 180.28044914145391 -2.397345555340568, 185.9377235182017 1.0348259531163557" stroke="#1864ab" stroke-width="2" fill="none"></path></g></g><g transform="translate(3341.639083992799 150.86339750744037) rotate(0 18.5 22.5)"><text x="18.5" y="32" font-family="Virgil, Segoe UI Emoji" font-size="36px" fill="#a61e4d" text-anchor="middle" style="white-space: pre;" direction="ltr">no</text></g><g transform="translate(3480.5451101972244 150.21034361824206) rotate(0 49 45)"><text x="49" y="32" font-family="Virgil, Segoe UI Emoji" font-size="36px" fill="#c92a2a" text-anchor="middle" style="white-space: pre;" direction="ltr">throw</text><text x="49" y="77" font-family="Virgil, Segoe UI Emoji" font-size="36px" fill="#c92a2a" text-anchor="middle" style="white-space: pre;" direction="ltr">error</text></g><g transform="translate(1845.0451101972244 832.710343618242) rotate(0 49 45)"><text x="49" y="32" font-family="Virgil, Segoe UI Emoji" font-size="36px" fill="#c92a2a" text-anchor="middle" style="white-space: pre;" direction="ltr">throw</text><text x="49" y="77" font-family="Virgil, Segoe UI Emoji" font-size="36px" fill="#c92a2a" text-anchor="middle" style="white-space: pre;" direction="ltr">error</text></g></svg>