<?xml version="1.0" encoding="UTF-8" standalone="no"?>
<!DOCTYPE svg PUBLIC "-//W3C//DTD SVG 1.1//EN"
 "http://www.w3.org/Graphics/SVG/1.1/DTD/svg11.dtd">
<!-- Generated by graphviz version 2.40.1 (20161225.0304)
 -->
<!-- Title: G Pages: 1 -->
<svg width="492pt" height="1428pt"
 viewBox="0.00 0.00 492.26 1428.00" xmlns="http://www.w3.org/2000/svg" xmlns:xlink="http://www.w3.org/1999/xlink">
<g id="graph0" class="graph" transform="scale(1 1) rotate(0) translate(4 1424)">
<title>G</title>
<polygon fill="#ffffff" stroke="transparent" points="-4,4 -4,-1424 488.2648,-1424 488.2648,4 -4,4"/>
<g id="clust1" class="cluster">
<title>cluster_0</title>
<polygon fill="#d3d3d3" stroke="#d3d3d3" points="8,-87.4 8,-1412 244,-1412 244,-87.4 8,-87.4"/>
</g>
<!-- q1 -->
<g id="node1" class="node">
<title>q1</title>
<polygon fill="#ffffff" stroke="#ffffff" points="223.8335,-1398 16.1665,-1398 16.1665,-1374 223.8335,-1374 235.8335,-1386 223.8335,-1398"/>
<text text-anchor="middle" x="126" y="-1381.8" font-family="Times,serif" font-size="14.00" fill="#000000">1. Does `sasjsbuild` subfolder exist?</text>
</g>
<!-- q2 -->
<g id="node2" class="node">
<title>q2</title>
<polygon fill="#ffffff" stroke="#ffffff" points="224.0525,-1230.6 31.9475,-1230.6 31.9475,-1206.6 224.0525,-1206.6 236.0525,-1218.6 224.0525,-1230.6"/>
<text text-anchor="middle" x="134" y="-1214.4" font-family="Times,serif" font-size="14.00" fill="#000000">2. macroVars in sasjsconfig.json?</text>
</g>
<!-- q1&#45;&gt;q2 -->
<g id="edge2" class="edge">
<title>q1&#45;&gt;q2</title>
<path fill="none" stroke="#000000" d="M126.8679,-1367.9468C128.0444,-1343.4771 130,-1302.8 130,-1302.8 130,-1302.8 131.4839,-1271.5631 132.6441,-1247.1411"/>
<polygon fill="#000000" stroke="#000000" points="136.1535,-1247.025 133.1321,-1236.8701 129.1614,-1246.6928 136.1535,-1247.025"/>
<text text-anchor="middle" x="140.8829" y="-1290.2" font-family="Times,serif" font-size="14.00" fill="#000000">Yes</text>
</g>
<!-- a1 -->
<g id="node9" class="node">
<title>a1</title>
<polygon fill="none" stroke="#000000" points="438.1757,-1315.0019 251.8243,-1315.0019 251.8243,-1273.7981 438.1757,-1273.7981 438.1757,-1315.0019"/>
<text text-anchor="middle" x="345" y="-1298.6" font-family="Times,serif" font-size="14.00" fill="#000000">Create empty compiled file in </text>
<text text-anchor="middle" x="345" y="-1281.8" font-family="Times,serif" font-size="14.00" fill="#000000">sasjsbuild subdirectory</text>
</g>
<!-- q1&#45;&gt;a1 -->
<g id="edge1" class="edge">
<title>q1&#45;&gt;a1</title>
<path fill="none" stroke="#000000" d="M169.2674,-1367.9028C202.6807,-1353.9272 249.2736,-1334.439 286.0883,-1319.0407"/>
<polygon fill="#000000" stroke="#000000" points="287.8322,-1322.1052 295.7071,-1315.0175 285.131,-1315.6473 287.8322,-1322.1052"/>
<text text-anchor="middle" x="256.5533" y="-1337.4" font-family="Times,serif" font-size="14.00" fill="#000000">No</text>
</g>
<!-- q3 -->
<g id="node3" class="node">
<title>q3</title>
<polygon fill="#ffffff" stroke="#ffffff" points="223.6218,-1068.8 54.3782,-1068.8 54.3782,-1044.8 223.6218,-1044.8 235.6218,-1056.8 223.6218,-1068.8"/>
<text text-anchor="middle" x="145" y="-1052.6" font-family="Times,serif" font-size="14.00" fill="#000000">3. Binary Files in source file?</text>
</g>
<!-- q2&#45;&gt;q3 -->
<g id="edge5" class="edge">
<title>q2&#45;&gt;q3</title>
<path fill="none" stroke="#000000" d="M135.1346,-1200.356C136.6098,-1176.6346 139,-1138.2 139,-1138.2 139,-1138.2 141.1814,-1108.6055 142.9136,-1085.1055"/>
<polygon fill="#000000" stroke="#000000" points="146.4237,-1085.0956 143.6684,-1074.8653 139.4427,-1084.5809 146.4237,-1085.0956"/>
<text text-anchor="middle" x="147.5533" y="-1125.6" font-family="Times,serif" font-size="14.00" fill="#000000">No</text>
</g>
<!-- a2 -->
<g id="node10" class="node">
<title>a2</title>
<polygon fill="none" stroke="#000000" points="484.0301,-1147.8 251.9699,-1147.8 251.9699,-1111.8 484.0301,-1111.8 484.0301,-1147.8"/>
<text text-anchor="middle" x="368" y="-1125.6" font-family="Times,serif" font-size="14.00" fill="#000000">Insert macro variables in compiled file</text>
</g>
<!-- q2&#45;&gt;a2 -->
<g id="edge4" class="edge">
<title>q2&#45;&gt;a2</title>
<path fill="none" stroke="#000000" d="M181.6354,-1200.523C219.0409,-1186.3281 271.2504,-1166.5152 310.8962,-1151.4702"/>
<polygon fill="#000000" stroke="#000000" points="312.3237,-1154.6721 320.4313,-1147.8517 309.84,-1148.1275 312.3237,-1154.6721"/>
<text text-anchor="middle" x="281.8829" y="-1170" font-family="Times,serif" font-size="14.00" fill="#000000">Yes</text>
</g>
<!-- q4 -->
<g id="node4" class="node">
<title>q4</title>
<polygon fill="#ffffff" stroke="#ffffff" points="220.561,-884.6 77.439,-884.6 77.439,-804.6 220.561,-804.6 232.561,-844.6 220.561,-884.6"/>
<text text-anchor="middle" x="155" y="-874" font-family="Times,serif" font-size="14.00" fill="#000000">4. Macros in source file, </text>
<text text-anchor="middle" x="155" y="-857.2" font-family="Times,serif" font-size="14.00" fill="#000000">initProgram, or </text>
<text text-anchor="middle" x="155" y="-840.4" font-family="Times,serif" font-size="14.00" fill="#000000">termProgram?</text>
<text text-anchor="middle" x="155" y="-823.6" font-family="Times,serif" font-size="14.00" fill="#000000">Is source file a </text>
<text text-anchor="middle" x="155" y="-806.8" font-family="Times,serif" font-size="14.00" fill="#000000">Service or Test?</text>
</g>
<!-- q3&#45;&gt;q4 -->
<g id="edge8" class="edge">
<title>q3&#45;&gt;q4</title>
<path fill="none" stroke="#000000" d="M146.1854,-1038.7028C147.934,-1012.0077 151,-965.2 151,-965.2 151,-965.2 152.0885,-932.3803 153.1299,-900.9828"/>
<polygon fill="#000000" stroke="#000000" points="156.6314,-900.9928 153.4649,-890.8822 149.6353,-900.7606 156.6314,-900.9928"/>
<text text-anchor="middle" x="159.5533" y="-952.6" font-family="Times,serif" font-size="14.00" fill="#000000">No</text>
</g>
<!-- a3 -->
<g id="node11" class="node">
<title>a3</title>
<polygon fill="none" stroke="#000000" points="464.3503,-986.2014 251.6497,-986.2014 251.6497,-927.3986 464.3503,-927.3986 464.3503,-986.2014"/>
<text text-anchor="middle" x="358" y="-969.4" font-family="Times,serif" font-size="14.00" fill="#000000">Convert to base64 and </text>
<text text-anchor="middle" x="358" y="-952.6" font-family="Times,serif" font-size="14.00" fill="#000000">wrap in put statements in compiled</text>
<text text-anchor="middle" x="358" y="-935.8" font-family="Times,serif" font-size="14.00" fill="#000000"> file with filerefs</text>
</g>
<!-- q3&#45;&gt;a3 -->
<g id="edge7" class="edge">
<title>q3&#45;&gt;a3</title>
<path fill="none" stroke="#000000" d="M183.5727,-1038.6908C212.1857,-1025.2574 252.0258,-1006.5532 286.4081,-990.4112"/>
<polygon fill="#000000" stroke="#000000" points="287.9182,-993.5688 295.4828,-986.1508 284.9434,-987.2324 287.9182,-993.5688"/>
<text text-anchor="middle" x="261.8829" y="-1008.2" font-family="Times,serif" font-size="14.00" fill="#000000">Yes</text>
</g>
<!-- q5 -->
<g id="node5" class="node">
<title>q5</title>
<polygon fill="#ffffff" stroke="#ffffff" points="223.8932,-644.4 46.1068,-644.4 46.1068,-620.4 223.8932,-620.4 235.8932,-632.4 223.8932,-644.4"/>
<text text-anchor="middle" x="141" y="-628.2" font-family="Times,serif" font-size="14.00" fill="#000000">5. SAS Includes in source file?</text>
</g>
<!-- q4&#45;&gt;q5 -->
<g id="edge11" class="edge">
<title>q4&#45;&gt;q5</title>
<path fill="none" stroke="#000000" d="M152.6802,-798.3595C150.9918,-764.7041 149,-725 149,-725 149,-725 145.814,-688.1218 143.4632,-660.911"/>
<polygon fill="#000000" stroke="#000000" points="146.9284,-660.3564 142.5805,-650.6948 139.9543,-660.959 146.9284,-660.3564"/>
<text text-anchor="middle" x="157.5533" y="-712.4" font-family="Times,serif" font-size="14.00" fill="#000000">No</text>
</g>
<!-- a4 -->
<g id="node12" class="node">
<title>a4</title>
<polygon fill="none" stroke="#000000" points="478.196,-746.0014 251.804,-746.0014 251.804,-687.1986 478.196,-687.1986 478.196,-746.0014"/>
<text text-anchor="middle" x="365" y="-729.2" font-family="Times,serif" font-size="14.00" fill="#000000">Construct macroFolders list and</text>
<text text-anchor="middle" x="365" y="-712.4" font-family="Times,serif" font-size="14.00" fill="#000000"> recursively compile all dependencies</text>
<text text-anchor="middle" x="365" y="-695.6" font-family="Times,serif" font-size="14.00" fill="#000000">before adding to compiled file</text>
</g>
<!-- q4&#45;&gt;a4 -->
<g id="edge10" class="edge">
<title>q4&#45;&gt;a4</title>
<path fill="none" stroke="#000000" d="M230.5181,-798.5699C256.1761,-782.9307 284.39,-765.7337 308.3211,-751.1472"/>
<polygon fill="#000000" stroke="#000000" points="310.2141,-754.0923 316.9313,-745.899 306.5708,-748.1151 310.2141,-754.0923"/>
<text text-anchor="middle" x="294.8829" y="-768" font-family="Times,serif" font-size="14.00" fill="#000000">Yes</text>
</g>
<!-- q6 -->
<g id="node6" class="node">
<title>q6</title>
<polygon fill="#ffffff" stroke="#ffffff" points="224.026,-477 25.974,-477 25.974,-453 224.026,-453 236.026,-465 224.026,-477"/>
<text text-anchor="middle" x="131" y="-460.8" font-family="Times,serif" font-size="14.00" fill="#000000">6. initProgram in sasjsconfig.json?</text>
</g>
<!-- q5&#45;&gt;q6 -->
<g id="edge14" class="edge">
<title>q5&#45;&gt;q6</title>
<path fill="none" stroke="#000000" d="M139.9151,-614.3468C138.4445,-589.8771 136,-549.2 136,-549.2 136,-549.2 134.1451,-517.9631 132.6948,-493.5411"/>
<polygon fill="#000000" stroke="#000000" points="136.1716,-493.0451 132.0849,-483.2701 129.184,-493.4601 136.1716,-493.0451"/>
<text text-anchor="middle" x="144.5533" y="-536.6" font-family="Times,serif" font-size="14.00" fill="#000000">No</text>
</g>
<!-- a5 -->
<g id="node13" class="node">
<title>a5</title>
<polygon fill="none" stroke="#000000" points="467.9585,-561.4019 252.0415,-561.4019 252.0415,-520.1981 467.9585,-520.1981 467.9585,-561.4019"/>
<text text-anchor="middle" x="360" y="-545" font-family="Times,serif" font-size="14.00" fill="#000000">Wrap in put statements in compiled</text>
<text text-anchor="middle" x="360" y="-528.2" font-family="Times,serif" font-size="14.00" fill="#000000"> file with filerefs</text>
</g>
<!-- q5&#45;&gt;a5 -->
<g id="edge13" class="edge">
<title>q5&#45;&gt;a5</title>
<path fill="none" stroke="#000000" d="M184.2674,-614.3028C217.6807,-600.3272 264.2736,-580.839 301.0883,-565.4407"/>
<polygon fill="#000000" stroke="#000000" points="302.8322,-568.5052 310.7071,-561.4175 300.131,-562.0473 302.8322,-568.5052"/>
<text text-anchor="middle" x="273.8829" y="-583.8" font-family="Times,serif" font-size="14.00" fill="#000000">Yes</text>
</g>
<!-- q7 -->
<g id="node7" class="node">
<title>q7</title>
<polygon fill="#ffffff" stroke="#ffffff" points="220.6008,-292.6019 51.3992,-292.6019 51.3992,-263.3981 220.6008,-263.3981 232.6008,-278 220.6008,-292.6019"/>
<text text-anchor="middle" x="142" y="-282.2" font-family="Times,serif" font-size="14.00" fill="#000000">7. Does source file contain </text>
<text text-anchor="middle" x="142" y="-265.4" font-family="Times,serif" font-size="14.00" fill="#000000">anything other than a header?</text>
</g>
<!-- q6&#45;&gt;q7 -->
<g id="edge16" class="edge">
<title>q6&#45;&gt;q7</title>
<path fill="none" stroke="#000000" d="M132.383,-446.9028C134.423,-420.2077 138,-373.4 138,-373.4 138,-373.4 139.5377,-336.727 140.7062,-308.8563"/>
<polygon fill="#000000" stroke="#000000" points="144.21,-308.8383 141.1321,-298.7004 137.2161,-308.5449 144.21,-308.8383"/>
<text text-anchor="middle" x="146.5533" y="-360.8" font-family="Times,serif" font-size="14.00" fill="#000000">No</text>
</g>
<!-- a6 -->
<g id="node14" class="node">
<title>a6</title>
<polygon fill="none" stroke="#000000" points="427.7891,-394.4014 252.2109,-394.4014 252.2109,-335.5986 427.7891,-335.5986 427.7891,-394.4014"/>
<text text-anchor="middle" x="340" y="-377.6" font-family="Times,serif" font-size="14.00" fill="#000000">Insert initProgram (macros </text>
<text text-anchor="middle" x="340" y="-360.8" font-family="Times,serif" font-size="14.00" fill="#000000">were previously compiled &amp;</text>
<text text-anchor="middle" x="340" y="-344" font-family="Times,serif" font-size="14.00" fill="#000000">inserted in step 4)</text>
</g>
<!-- q6&#45;&gt;a6 -->
<g id="edge17" class="edge">
<title>q6&#45;&gt;a6</title>
<path fill="none" stroke="#000000" d="M168.8483,-446.8908C196.8045,-433.5146 235.6834,-414.9123 269.3216,-398.8174"/>
<polygon fill="#000000" stroke="#000000" points="271.1469,-401.8241 278.6569,-394.3508 268.1256,-395.5097 271.1469,-401.8241"/>
<text text-anchor="middle" x="245.8829" y="-416.4" font-family="Times,serif" font-size="14.00" fill="#000000">Yes</text>
</g>
<!-- q8 -->
<g id="node8" class="node">
<title>q8</title>
<polygon fill="#ffffff" stroke="#ffffff" points="223.5106,-125.4 18.4894,-125.4 18.4894,-101.4 223.5106,-101.4 235.5106,-113.4 223.5106,-125.4"/>
<text text-anchor="middle" x="127" y="-109.2" font-family="Times,serif" font-size="14.00" fill="#000000">8. termProgram in sasjsconfig.json?</text>
</g>
<!-- q7&#45;&gt;q8 -->
<g id="edge20" class="edge">
<title>q7&#45;&gt;q8</title>
<path fill="none" stroke="#000000" d="M140.4859,-257.0051C138.7085,-232.3578 136,-194.8 136,-194.8 136,-194.8 132.7279,-165.2055 130.1296,-141.7055"/>
<polygon fill="#000000" stroke="#000000" points="133.5752,-141.0201 128.9974,-131.4653 126.6176,-141.7894 133.5752,-141.0201"/>
<text text-anchor="middle" x="144.5533" y="-182.2" font-family="Times,serif" font-size="14.00" fill="#000000">No</text>
</g>
<!-- a7 -->
<g id="node15" class="node">
<title>a7</title>
<polygon fill="none" stroke="#000000" points="391.991,-204.4 252.009,-204.4 252.009,-168.4 391.991,-168.4 391.991,-204.4"/>
<text text-anchor="middle" x="322" y="-182.2" font-family="Times,serif" font-size="14.00" fill="#000000">Insert source file code</text>
</g>
<!-- q7&#45;&gt;a7 -->
<g id="edge19" class="edge">
<title>q7&#45;&gt;a7</title>
<path fill="none" stroke="#000000" d="M182.8448,-257.2145C211.0172,-242.8779 248.4593,-223.824 277.4084,-209.0922"/>
<polygon fill="#000000" stroke="#000000" points="279.1615,-212.1272 286.4865,-204.4724 275.9867,-205.8886 279.1615,-212.1272"/>
<text text-anchor="middle" x="258.8829" y="-226.6" font-family="Times,serif" font-size="14.00" fill="#000000">Yes</text>
</g>
<!-- a8 -->
<g id="node16" class="node">
<title>a8</title>
<polygon fill="none" stroke="#000000" points="215.8223,-58.6014 38.1777,-58.6014 38.1777,.2014 215.8223,.2014 215.8223,-58.6014"/>
<text text-anchor="middle" x="127" y="-41.8" font-family="Times,serif" font-size="14.00" fill="#000000">Insert termProgram (macros </text>
<text text-anchor="middle" x="127" y="-25" font-family="Times,serif" font-size="14.00" fill="#000000">were previously compiled &amp;</text>
<text text-anchor="middle" x="127" y="-8.2" font-family="Times,serif" font-size="14.00" fill="#000000">inserted in step 4)</text>
</g>
<!-- q8&#45;&gt;a8 -->
<g id="edge21" class="edge">
<title>q8&#45;&gt;a8</title>
<path fill="none" stroke="#000000" d="M127,-95.1299C127,-87.3987 127,-78.0689 127,-68.8922"/>
<polygon fill="#000000" stroke="#000000" points="130.5001,-68.6897 127,-58.6897 123.5001,-68.6898 130.5001,-68.6897"/>
</g>
<!-- a1&#45;&gt;q2 -->
<g id="edge3" class="edge">
<title>a1&#45;&gt;q2</title>
<path fill="none" stroke="#000000" d="M287.622,-1273.7874C258.5675,-1263.3498 223.3158,-1250.686 193.913,-1240.1233"/>
<polygon fill="#000000" stroke="#000000" points="194.7778,-1236.715 184.1833,-1236.6279 192.4111,-1243.3028 194.7778,-1236.715"/>
</g>
<!-- a2&#45;&gt;q3 -->
<g id="edge6" class="edge">
<title>a2&#45;&gt;q3</title>
<path fill="none" stroke="#000000" d="M312.8764,-1111.7551C281.7847,-1101.577 242.7562,-1088.8009 210.157,-1078.1294"/>
<polygon fill="#000000" stroke="#000000" points="210.855,-1074.6752 200.2623,-1074.8904 208.6772,-1081.3278 210.855,-1074.6752"/>
</g>
<!-- a3&#45;&gt;q4 -->
<g id="edge9" class="edge">
<title>a3&#45;&gt;q4</title>
<path fill="none" stroke="#000000" d="M304.9293,-927.4673C285.5184,-916.7388 263.021,-904.3042 241.451,-892.3823"/>
<polygon fill="#000000" stroke="#000000" points="243.0439,-889.2637 232.5987,-887.4895 239.6577,-895.3902 243.0439,-889.2637"/>
</g>
<!-- a4&#45;&gt;q5 -->
<g id="edge12" class="edge">
<title>a4&#45;&gt;q5</title>
<path fill="none" stroke="#000000" d="M287.2843,-687.3872C258.2491,-676.4731 225.8117,-664.2801 198.874,-654.1544"/>
<polygon fill="#000000" stroke="#000000" points="199.8069,-650.766 189.2148,-650.5236 197.3439,-657.3184 199.8069,-650.766"/>
</g>
<!-- a5&#45;&gt;q6 -->
<g id="edge15" class="edge">
<title>a5&#45;&gt;q6</title>
<path fill="none" stroke="#000000" d="M297.7272,-520.1874C265.9199,-509.6591 227.2693,-496.8655 195.1931,-486.2482"/>
<polygon fill="#000000" stroke="#000000" points="196.0576,-482.8477 185.4643,-483.0279 193.8579,-489.4931 196.0576,-482.8477"/>
</g>
<!-- a6&#45;&gt;q7 -->
<g id="edge18" class="edge">
<title>a6&#45;&gt;q7</title>
<path fill="none" stroke="#000000" d="M273.5181,-335.7882C249.1289,-325.0718 221.7777,-313.0539 198.361,-302.7647"/>
<polygon fill="#000000" stroke="#000000" points="199.4874,-299.4367 188.9242,-298.6182 196.6714,-305.8453 199.4874,-299.4367"/>
</g>
</g>
</svg>
